<svg width="472" height="371" viewBox="0 0 472 371" fill="none" xmlns="http://www.w3.org/2000/svg">
<path d="M415.913 361.042H426.245L385.856 210.305H375.515L415.913 361.042Z" fill="url(#paint0_linear)"/>
<path d="M400.982 243.286C397.715 266.81 401.93 288.74 411.2 303.777C424.269 291.877 434.364 271.923 437.664 248.432C440.964 224.941 436.717 202.978 427.446 187.941C414.402 199.842 404.307 219.763 400.982 243.286Z" fill="url(#paint1_linear)"/>
<path d="M430.705 239.529C426.909 250.201 423.769 261.096 421.304 272.152C416.926 291.403 418.037 314.297 418.037 314.297" stroke="#112244" stroke-linecap="round" stroke-linejoin="round"/>
<path d="M406.593 233.256C406.593 233.256 409.223 255.309 412.466 272.364C415.709 289.418 417.906 311.872 417.906 311.872" stroke="#112244" stroke-linecap="round" stroke-linejoin="round"/>
<path d="M401.326 270.33C401.326 270.33 406.594 284.714 410.441 294.017C414.288 303.32 417.906 312.925 417.906 312.925" stroke="#112244" stroke-linecap="round" stroke-linejoin="round"/>
<path d="M422.014 148.238C419.85 164.075 422.758 178.826 429.031 188.913C437.787 180.876 444.549 167.448 446.706 151.611C448.862 135.774 445.963 121.023 439.69 110.935C430.934 118.972 424.179 132.4 422.014 148.238Z" fill="url(#paint2_linear)"/>
<path d="M404.788 184.74C405.605 166.313 406.847 133.062 407.549 113.68C394.766 129.509 386.566 153.751 386.566 180.974C386.566 207.879 394.579 231.876 407.116 247.713C405.711 229.115 404.037 201.508 404.788 184.74Z" fill="url(#paint3_linear)"/>
<path d="M429.627 180.966C429.627 153.351 421.198 128.782 408.097 112.977C407.909 113.198 407.737 113.443 407.549 113.671C406.847 133.054 405.614 166.313 404.789 184.731C404.037 201.508 405.72 229.107 407.108 247.697C407.435 248.114 407.754 248.514 408.088 248.955C421.19 233.15 429.627 208.573 429.627 180.966Z" fill="url(#paint4_linear)"/>
<path d="M334.815 361.042H324.482L364.88 210.305H375.213L334.815 361.042Z" fill="url(#paint5_linear)"/>
<path d="M431.555 210.631C424.416 226.371 422.881 242.559 426.262 254.958C437.811 249.331 448.969 237.504 456.099 221.756C463.23 206.009 464.749 189.787 461.4 177.429C449.843 183.057 438.693 194.884 431.555 210.631Z" fill="url(#paint6_linear)"/>
<path d="M441.723 360.993H394.325L387.293 299.563H448.764L441.723 360.993Z" fill="url(#paint7_linear)"/>
<path d="M387.293 299.563L394.325 360.993H412.466L407.214 299.563H387.293Z" fill="url(#paint8_linear)"/>
<path d="M451.165 297.807H384.892V312.941H451.165V297.807Z" fill="#FFD46A"/>
<path d="M259.851 318.046H194.173V331.94H259.851V318.046Z" fill="#223762"/>
<path d="M256.077 318.046H190.4V331.94H256.077V318.046Z" fill="#A7BDE5"/>
<path d="M198.307 329.4C200.743 329.4 202.717 327.425 202.717 324.989C202.717 322.553 200.743 320.578 198.307 320.578C195.871 320.578 193.896 322.553 193.896 324.989C193.896 327.425 195.871 329.4 198.307 329.4Z" fill="#617FAA"/>
<path d="M196.028 324.989C196.028 324.007 196.358 323.054 196.963 322.281C197.569 321.509 198.415 320.961 199.369 320.725C198.716 320.552 198.032 320.532 197.369 320.665C196.707 320.798 196.084 321.082 195.549 321.494C195.014 321.906 194.58 322.435 194.282 323.041C193.984 323.647 193.829 324.314 193.829 324.989C193.829 325.664 193.984 326.331 194.282 326.937C194.58 327.543 195.014 328.072 195.549 328.484C196.084 328.896 196.707 329.18 197.369 329.313C198.032 329.446 198.716 329.426 199.369 329.253C198.415 329.017 197.569 328.469 196.963 327.697C196.358 326.924 196.028 325.971 196.028 324.989Z" fill="#223762"/>
<path d="M210.844 329.4C213.28 329.4 215.255 327.425 215.255 324.989C215.255 322.553 213.28 320.578 210.844 320.578C208.408 320.578 206.434 322.553 206.434 324.989C206.434 327.425 208.408 329.4 210.844 329.4Z" fill="#617FAA"/>
<path d="M208.565 324.989C208.566 324.007 208.895 323.054 209.5 322.281C210.106 321.509 210.953 320.961 211.906 320.725C211.253 320.552 210.569 320.532 209.907 320.665C209.244 320.798 208.622 321.082 208.086 321.494C207.551 321.906 207.117 322.435 206.819 323.041C206.521 323.647 206.366 324.314 206.366 324.989C206.366 325.664 206.521 326.331 206.819 326.937C207.117 327.543 207.551 328.072 208.086 328.484C208.622 328.896 209.244 329.18 209.907 329.313C210.569 329.446 211.253 329.426 211.906 329.253C210.953 329.017 210.106 328.469 209.5 327.697C208.895 326.924 208.566 325.971 208.565 324.989Z" fill="#223762"/>
<path d="M222.843 329.4C225.279 329.4 227.253 327.425 227.253 324.989C227.253 322.553 225.279 320.578 222.843 320.578C220.407 320.578 218.432 322.553 218.432 324.989C218.432 327.425 220.407 329.4 222.843 329.4Z" fill="#617FAA"/>
<path d="M220.531 324.989C220.532 324.007 220.861 323.054 221.467 322.281C222.072 321.509 222.919 320.961 223.872 320.725C223.219 320.552 222.535 320.532 221.873 320.665C221.211 320.798 220.588 321.082 220.053 321.494C219.517 321.906 219.084 322.435 218.785 323.041C218.487 323.647 218.332 324.314 218.332 324.989C218.332 325.664 218.487 326.331 218.785 326.937C219.084 327.543 219.517 328.072 220.053 328.484C220.588 328.896 221.211 329.18 221.873 329.313C222.535 329.446 223.219 329.426 223.872 329.253C222.919 329.017 222.072 328.469 221.467 327.697C220.861 326.924 220.532 325.971 220.531 324.989Z" fill="#223762"/>
<path d="M247.24 329.4C249.676 329.4 251.65 327.425 251.65 324.989C251.65 322.553 249.676 320.578 247.24 320.578C244.804 320.578 242.829 322.553 242.829 324.989C242.829 327.425 244.804 329.4 247.24 329.4Z" fill="#617FAA"/>
<path d="M244.953 324.989C244.953 324.007 245.283 323.054 245.888 322.281C246.493 321.509 247.34 320.961 248.293 320.725C247.64 320.552 246.956 320.532 246.294 320.665C245.632 320.798 245.009 321.082 244.474 321.494C243.939 321.906 243.505 322.435 243.207 323.041C242.909 323.647 242.753 324.314 242.753 324.989C242.753 325.664 242.909 326.331 243.207 326.937C243.505 327.543 243.939 328.072 244.474 328.484C245.009 328.896 245.632 329.18 246.294 329.313C246.956 329.446 247.64 329.426 248.293 329.253C247.34 329.017 246.493 328.469 245.888 327.697C245.283 326.924 244.953 325.971 244.953 324.989Z" fill="#223762"/>
<path d="M308.016 194.827V238.116C308.016 242.901 307.074 247.639 305.243 252.06C303.412 256.481 300.728 260.497 297.344 263.881C293.961 267.264 289.944 269.948 285.523 271.779C281.103 273.61 276.365 274.553 271.58 274.553C266.795 274.553 262.057 275.495 257.636 277.326C253.215 279.157 249.199 281.841 245.815 285.225C242.432 288.608 239.748 292.625 237.917 297.046C236.086 301.466 235.143 306.204 235.143 310.989V326.222" stroke="#7A87A1" stroke-linecap="round" stroke-linejoin="round"/>
<path d="M122.887 16.2164L122.108 15.4368C121.671 14.9998 120.962 14.9998 120.525 15.4368L58.1958 77.7661C57.7588 78.2031 57.7588 78.9116 58.1958 79.3486L58.9755 80.1283C59.4125 80.5653 60.121 80.5653 60.558 80.1283L122.887 17.7989C123.324 17.3619 123.324 16.6534 122.887 16.2164Z" fill="#223762"/>
<path d="M409.028 193.447C410.376 193.447 411.47 191.497 411.47 189.093C411.47 186.689 410.376 184.74 409.028 184.74C407.679 184.74 406.585 186.689 406.585 189.093C406.585 191.497 407.679 193.447 409.028 193.447Z" fill="url(#paint9_linear)"/>
<path d="M416.396 195.627C418.097 193.927 418.702 191.775 417.748 190.822C416.794 189.868 414.643 190.473 412.943 192.173C411.242 193.873 410.637 196.025 411.591 196.978C412.545 197.932 414.696 197.327 416.396 195.627Z" fill="url(#paint10_linear)"/>
<path opacity="0.48" d="M144.572 53.3243C149.022 50.4878 150.331 44.5802 147.494 40.1294C144.658 35.6787 138.75 34.3701 134.3 37.2066C129.849 40.0432 128.54 45.9507 131.377 50.4015C134.213 54.8523 140.121 56.1609 144.572 53.3243Z" fill="#EF8C48"/>
<path d="M416.243 219.386C418.575 217.054 419.405 214.104 418.097 212.796C416.79 211.488 413.839 212.318 411.508 214.65C409.176 216.982 408.346 219.932 409.654 221.24C410.961 222.548 413.912 221.718 416.243 219.386Z" fill="url(#paint11_linear)"/>
<path d="M415.531 230.343C416.923 227.354 416.692 224.298 415.016 223.517C413.339 222.736 410.851 224.527 409.459 227.516C408.067 230.505 408.298 233.562 409.975 234.342C411.651 235.123 414.139 233.333 415.531 230.343Z" fill="url(#paint12_linear)"/>
<path d="M118.125 11.4507L117.345 10.671C116.908 10.234 116.2 10.234 115.763 10.671L53.4336 73.0004C52.9966 73.4374 52.9966 74.1459 53.4336 74.5828L54.2133 75.3625C54.6503 75.7995 55.3588 75.7995 55.7958 75.3625L118.125 13.0332C118.562 12.5962 118.562 11.8877 118.125 11.4507Z" fill="#223762"/>
<path d="M60.4934 73.3188L59.4097 73.5227C58.8024 73.6371 58.4027 74.2221 58.517 74.8294L82.3165 201.268C82.4308 201.876 83.0159 202.275 83.6232 202.161L84.7068 201.957C85.3142 201.843 85.7138 201.258 85.5995 200.65L61.8 74.2115C61.6857 73.6041 61.1007 73.2045 60.4934 73.3188Z" fill="#223762"/>
<path d="M137.684 48.8142L143.098 45.3342C144.223 44.6108 144.549 43.112 143.825 41.9866L121.812 7.74353C121.088 6.61814 119.59 6.2923 118.464 7.01577L113.051 10.4958C111.926 11.2192 111.6 12.718 112.323 13.8434L134.337 48.0865C135.06 49.2119 136.559 49.5377 137.684 48.8142Z" fill="url(#paint13_linear)"/>
<path d="M143.092 51.0031C146.261 48.9836 147.193 44.7776 145.173 41.6088C143.154 38.44 138.948 37.5084 135.779 39.5279C132.61 41.5474 131.679 45.7534 133.698 48.9222C135.718 52.091 139.924 53.0226 143.092 51.0031Z" fill="#EF8C48"/>
<path d="M125.948 24.1114C135.357 18.1162 149.773 23.9072 158.153 37.0492L124.069 58.7674C115.697 45.6254 116.538 30.1066 125.948 24.1114Z" fill="url(#paint14_linear)"/>
<path d="M158.153 37.0491L148.997 42.8809C142.871 33.2756 134.899 26.3248 127.434 23.2782C136.819 18.7287 150.206 24.5769 158.153 37.0491Z" fill="#223762"/>
<path d="M52.7863 74.7579L53.8619 74.5554C54.1504 74.4989 54.4496 74.5581 54.6948 74.7204C54.94 74.8826 55.1114 75.1349 55.1721 75.4225L78.9761 201.886C79.0314 202.179 78.9677 202.483 78.7991 202.73C78.6305 202.977 78.3707 203.146 78.0769 203.202L77.0013 203.404C76.7097 203.459 76.4081 203.396 76.1631 203.229C75.9181 203.061 75.7495 202.803 75.6946 202.512L51.8891 76.0405C51.8342 75.7488 51.8974 75.4473 52.0648 75.2023C52.2323 74.9572 52.4902 74.7887 52.7818 74.7338L52.7863 74.7579Z" fill="#223762"/>
<path d="M59.339 84.1203C63.8409 84.1203 67.4904 80.4708 67.4904 75.9689C67.4904 71.4669 63.8409 67.8174 59.339 67.8174C54.837 67.8174 51.1875 71.4669 51.1875 75.9689C51.1875 80.4708 54.837 84.1203 59.339 84.1203Z" fill="#223762"/>
<path d="M57.8199 84.1203C62.3219 84.1203 65.9714 80.4708 65.9714 75.9689C65.9714 71.4669 62.3219 67.8174 57.8199 67.8174C53.318 67.8174 49.6685 71.4669 49.6685 75.9689C49.6685 80.4708 53.318 84.1203 57.8199 84.1203Z" fill="#4C93F4"/>
<path d="M57.8197 80.0527C60.0752 80.0527 61.9037 78.2243 61.9037 75.9688C61.9037 73.7133 60.0752 71.8849 57.8197 71.8849C55.5643 71.8849 53.7358 73.7133 53.7358 75.9688C53.7358 78.2243 55.5643 80.0527 57.8197 80.0527Z" fill="#223762"/>
<path d="M426.245 198.143H32.3691V210.297H426.245V198.143Z" fill="url(#paint15_linear)"/>
<path d="M426.588 198.143H354.115V210.297H426.588V198.143Z" fill="#3769A5"/>
<path d="M426.245 206.352H32.3691V210.305H426.245V206.352Z" fill="#83A4D6"/>
<path d="M426.245 206.352H354.115V210.305H426.245V206.352Z" fill="#223762"/>
<path d="M42.7014 361.042H32.3691L72.759 210.305H83.0912L42.7014 361.042Z" fill="url(#paint16_linear)"/>
<path d="M82.3806 361.042H72.0483L112.438 210.305H122.77L82.3806 361.042Z" fill="url(#paint17_linear)"/>
<path d="M163.47 361.042H173.803L133.413 210.305H123.081L163.47 361.042Z" fill="url(#paint18_linear)"/>
<path d="M123.791 361.042H134.123L93.7336 210.305H83.4014L123.791 361.042Z" fill="url(#paint19_linear)"/>
<path d="M295.135 361.042H284.803L325.193 210.305H335.525L295.135 361.042Z" fill="url(#paint20_linear)"/>
<path d="M376.226 361.042H386.558L346.168 210.305H335.836L376.226 361.042Z" fill="url(#paint21_linear)"/>
<path d="M287.817 198.143H321.15L295.92 122.631H272.576L287.817 198.143Z" fill="#3769A5"/>
<path d="M285.571 198.143H318.912L293.682 122.631H270.338L285.571 198.143Z" fill="#223762"/>
<path d="M319.77 195.154H262.195V198.143H319.77V195.154Z" fill="#3769A5"/>
<path d="M296.173 195.154H262.195V198.143H296.173V195.154Z" fill="#4C93F4"/>
<path d="M360.2 175.902H225.881C225.275 175.913 224.674 175.794 224.118 175.554C223.562 175.315 223.064 174.959 222.656 174.512C222.248 174.065 221.94 173.535 221.752 172.96C221.565 172.384 221.502 171.775 221.568 171.173L229.115 84.9371C229.247 83.6562 229.843 82.4678 230.791 81.5964C231.739 80.7251 232.973 80.2311 234.261 80.2079H368.564C369.17 80.1973 369.77 80.3158 370.326 80.5555C370.882 80.7952 371.381 81.1506 371.789 81.598C372.197 82.0454 372.505 82.5746 372.693 83.1504C372.88 83.7261 372.943 84.3352 372.877 84.9371L365.33 171.173C365.199 172.451 364.605 173.637 363.66 174.508C362.715 175.379 361.485 175.875 360.2 175.902Z" fill="#223762"/>
<path d="M357.472 175.902H223.161C222.555 175.913 221.955 175.794 221.399 175.554C220.843 175.315 220.344 174.959 219.936 174.512C219.528 174.065 219.22 173.535 219.032 172.96C218.845 172.384 218.782 171.775 218.848 171.173L226.395 84.9371C226.527 83.6562 227.123 82.4678 228.071 81.5964C229.019 80.7251 230.254 80.2311 231.541 80.2079H365.844C366.45 80.1973 367.051 80.3158 367.607 80.5555C368.163 80.7952 368.661 81.1506 369.069 81.598C369.477 82.0454 369.785 82.5746 369.973 83.1504C370.16 83.7261 370.223 84.3352 370.157 84.9371L362.651 171.189C362.515 172.473 361.912 173.662 360.958 174.53C360.003 175.399 358.763 175.887 357.472 175.902Z" fill="#4C93F4"/>
<path d="M356.002 174.595H224.86C224.254 174.606 223.653 174.487 223.097 174.248C222.541 174.008 222.043 173.652 221.635 173.205C221.227 172.758 220.919 172.228 220.731 171.653C220.544 171.077 220.481 170.468 220.547 169.866L227.898 86.2847C228.03 85.0038 228.626 83.8154 229.574 82.9441C230.522 82.0727 231.756 81.5788 233.044 81.5556H364.137C364.743 81.545 365.343 81.6635 365.899 81.9032C366.455 82.1429 366.954 82.4982 367.362 82.9456C367.77 83.3931 368.078 83.9223 368.266 84.498C368.453 85.0738 368.516 85.6828 368.45 86.2847L361.099 169.866C360.968 171.139 360.379 172.32 359.441 173.191C358.503 174.061 357.281 174.56 356.002 174.595Z" fill="#D6E3FA"/>
<path d="M357.056 174.595H226.004C225.527 174.604 225.053 174.511 224.615 174.322C224.177 174.133 223.784 173.854 223.462 173.501C223.141 173.149 222.898 172.732 222.75 172.278C222.603 171.825 222.553 171.345 222.606 170.871L230.096 85.2392C230.2 84.2251 230.674 83.2849 231.427 82.598C232.18 81.911 233.16 81.5254 234.179 81.5147H365.199C365.676 81.506 366.15 81.5991 366.588 81.7877C367.026 81.9764 367.419 82.2562 367.74 82.6087C368.062 82.9611 368.305 83.378 368.452 83.8316C368.6 84.2852 368.649 84.7651 368.597 85.2392L361.107 170.83C361.013 171.846 360.548 172.791 359.801 173.486C359.053 174.18 358.076 174.575 357.056 174.595Z" fill="#D6E3FA"/>
<path d="M222.687 169.866L230.038 86.2847C230.169 85.0038 230.766 83.8154 231.714 82.944C232.662 82.0727 233.896 81.5788 235.184 81.5555H233.035C231.748 81.5788 230.514 82.0727 229.566 82.944C228.617 83.8154 228.021 85.0038 227.89 86.2847L220.539 169.866C220.473 170.468 220.535 171.077 220.723 171.653C220.91 172.228 221.218 172.758 221.626 173.205C222.034 173.652 222.533 174.008 223.089 174.248C223.645 174.487 224.246 174.606 224.851 174.595H226.999C226.394 174.606 225.793 174.487 225.237 174.248C224.681 174.008 224.183 173.652 223.775 173.205C223.367 172.758 223.059 172.228 222.871 171.653C222.683 171.077 222.621 170.468 222.687 169.866Z" fill="#223762"/>
<path d="M219.975 158.235L218.816 171.475C218.757 172.043 218.819 172.617 218.998 173.159C219.177 173.701 219.47 174.199 219.856 174.62C220.242 175.041 220.713 175.375 221.237 175.6C221.762 175.825 222.329 175.936 222.899 175.926H357.603C358.851 175.902 360.047 175.423 360.968 174.579C361.888 173.736 362.469 172.586 362.602 171.344L363.745 158.276L219.975 158.235Z" fill="url(#paint22_linear)"/>
<path d="M292.603 164.639C292.651 164.15 292.769 163.672 292.955 163.217C292.499 162.958 291.984 162.82 291.46 162.817C289.426 162.817 287.613 164.72 287.376 167.073C287.139 169.425 288.65 171.328 290.643 171.328C291.471 171.275 292.265 170.977 292.924 170.473C293.582 169.968 294.076 169.28 294.343 168.494C293.715 168.085 293.217 167.504 292.909 166.821C292.601 166.138 292.495 165.38 292.603 164.639Z" fill="#D6E3FA"/>
<path d="M105.92 74.1393C109.446 75.0469 112.728 76.7201 115.534 79.04L110.829 81.5393L117.29 80.6327C118.661 81.9948 119.868 83.5136 120.884 85.1577L112.275 87.608L121.758 86.7095C121.929 87.0444 122.093 87.3956 122.256 87.7469L112.618 92.3943L122.975 89.4621C123.212 90.0992 123.432 90.7444 123.62 91.406C124.356 93.9987 124.665 96.694 124.535 99.386L115.387 100.472L124.421 100.791C124.421 101.011 124.372 101.24 124.347 101.461L116.49 102.686L124.175 102.547C123.86 104.312 123.353 106.037 122.664 107.693L116.694 107.815L121.684 109.767C120.606 111.815 119.245 113.701 117.641 115.37C112.953 94.9019 105.92 74.1393 105.92 74.1393Z" fill="url(#paint23_linear)"/>
<path d="M113.614 107.831L108.632 110.976C107.471 110.085 106.391 109.093 105.406 108.011L111.482 102.547L103.364 105.43C101.819 103.186 100.654 100.702 99.9167 98.0791C99.8596 97.8667 99.8106 97.6543 99.7615 97.442L108.134 94.0442L99.198 94.5424C99.1081 93.8808 99.0509 93.211 99.0183 92.5494L107.545 88.6044L98.9774 91.4631C98.9672 89.6425 99.159 87.8263 99.5492 86.0479L107.529 82.7808L99.9902 84.4225C100.311 83.3265 100.706 82.254 101.175 81.2125L106.549 79.3584L101.534 80.4448C102.662 78.1389 104.141 76.0226 105.92 74.1719C105.92 74.1719 112.953 94.9345 117.608 115.387C116.123 115.005 114.676 114.485 113.287 113.835L113.614 107.831Z" fill="url(#paint24_linear)"/>
<path d="M129.101 86.3419C123.643 89.2854 118.902 93.3961 115.215 98.3813L124.045 100.546L112.994 101.73C111.31 104.524 109.962 107.507 108.975 110.617L124.224 111.066L108.167 113.516C108.02 114.145 107.897 114.782 107.783 115.427L125.662 119.078L107.309 118.539C107.178 119.683 107.08 120.835 107.048 122.011C106.911 126.577 107.523 131.136 108.861 135.504L124.445 133.495L109.637 137.758C109.767 138.118 109.898 138.477 110.045 138.828L123.547 137.595L110.788 140.544C112.049 143.313 113.607 145.936 115.436 148.368L125.368 146.106L117.943 151.399C120.573 154.315 123.597 156.85 126.928 158.929C126.128 123.367 129.101 86.3419 129.101 86.3419Z" fill="url(#paint25_linear)"/>
<path d="M130.432 144.864L139.939 147.984C141.481 146.04 142.848 143.963 144.023 141.777L131.689 135.316L146.342 136.697C147.96 132.383 148.855 127.832 148.989 123.228C148.989 122.852 148.989 122.485 148.989 122.117L133.731 119.993L148.711 117.094C148.58 115.967 148.393 114.856 148.172 113.753L132.433 110.788L147.796 111.94C147.051 108.944 145.974 106.04 144.586 103.282L130.048 101.281L143.181 100.758C142.204 99.0866 141.112 97.4847 139.914 95.9636L130.252 95.1468L139 94.8528C136.168 91.5267 132.837 88.6609 129.125 86.3583C129.125 86.3583 126.152 123.383 126.985 158.937C129.293 157.696 131.481 156.241 133.519 154.592L130.432 144.864Z" fill="url(#paint26_linear)"/>
<path d="M140.282 88.7515C136.359 90.0193 132.76 92.1295 129.737 94.9345L134.238 97.9811L127.704 96.9356C126.098 98.6666 124.668 100.552 123.432 102.563L131.943 105.487L122.321 104.483C122.092 104.899 121.888 105.299 121.676 105.773L130.954 111.425L120.712 107.905C120.385 108.722 120.067 109.539 119.781 110.355C118.679 113.55 118.001 116.875 117.763 120.247L127.018 121.488L117.69 121.986C117.69 122.264 117.69 122.542 117.69 122.803L125.596 124.232L117.723 124.151C117.803 126.292 118.09 128.42 118.58 130.505L124.698 130.595L119.307 133.046C120.102 135.495 121.247 137.817 122.705 139.939C130.252 114.537 140.282 88.7515 140.282 88.7515Z" fill="url(#paint27_linear)"/>
<path d="M127.826 130.554L132.49 134.393C133.824 133.256 135.066 132.016 136.206 130.685L130.685 123.987L138.64 127.467C140.546 124.642 142.071 121.577 143.173 118.352C143.263 118.09 143.337 117.821 143.418 117.535L135.25 113.451L144.366 113.966C144.545 113.149 144.692 112.332 144.815 111.515L136.59 106.721L145.011 110.159C145.265 107.936 145.312 105.694 145.15 103.462L137.39 99.5575L144.938 101.403C144.749 100.064 144.476 98.7385 144.121 97.4339L138.852 95.1959L143.859 96.4782C143.056 93.7278 141.821 91.1225 140.2 88.7596C140.2 88.7596 130.17 114.545 122.623 139.923C124.233 139.417 125.79 138.755 127.271 137.946L127.826 130.554Z" fill="url(#paint28_linear)"/>
<path d="M107.529 106.549C103.91 109.67 101.021 113.549 99.0671 117.911L106.091 118.082L97.9236 120.81C97.1181 123.191 96.5945 125.658 96.3636 128.161L107.954 125.972L96.2329 130.481C96.2329 130.979 96.2329 131.485 96.2329 131.984L110.339 131.771L96.3963 134.409C96.4861 135.292 96.6086 136.182 96.772 137.072C97.4461 140.569 98.6935 143.931 100.464 147.021L111.899 142.937L101.428 148.654C101.591 148.899 101.746 149.152 101.91 149.397L111.899 146.171L102.751 150.516C104.161 152.398 105.771 154.121 107.553 155.654L114.676 152.297L109.93 157.508C112.409 159.275 115.122 160.685 117.992 161.698C111.433 134.998 107.529 106.549 107.529 106.549Z" fill="url(#paint29_linear)"/>
<path d="M118.254 150.525L125.948 151.341C126.794 149.618 127.486 147.822 128.014 145.975L117.617 143.108L128.888 141.72C129.395 138.192 129.315 134.604 128.651 131.102C128.594 130.816 128.521 130.546 128.463 130.285L116.596 131.216L127.418 126.536C127.132 125.719 126.805 124.902 126.462 124.085L114.104 124.445L125.899 122.811C124.84 120.673 123.547 118.66 122.044 116.808L110.731 117.706L120.533 115.101C119.516 114.003 118.424 112.977 117.265 112.03L109.833 113.01L116.367 111.376C113.678 109.337 110.688 107.728 107.505 106.606C107.505 106.606 111.409 135.055 117.935 161.755C119.461 160.434 120.861 158.974 122.117 157.394L118.254 150.525Z" fill="url(#paint30_linear)"/>
<path d="M136.697 198.143H103.87L98.9941 155.597H141.573L136.697 198.143Z" fill="url(#paint31_linear)"/>
<path d="M98.9941 155.597L103.87 198.143H116.432L112.79 155.597H98.9941Z" fill="url(#paint32_linear)"/>
<path d="M143.231 154.38H97.3276V164.867H143.231V154.38Z" fill="#FFD46A"/>
<path d="M201.623 198.143H157.688L169.972 139.302H213.907L201.623 198.143Z" fill="#223762"/>
<path d="M198.788 198.143H154.062L166.566 139.302H211.293L198.788 198.143Z" fill="url(#paint33_linear)"/>
<path d="M195.921 192.899H159.158L169.441 144.546H206.196L195.921 192.899Z" fill="#3769A5"/>
<path d="M169.441 144.546L159.158 192.899H161.771L172.047 144.546H169.441Z" fill="#223762"/>
<path d="M206.899 171.328L211.905 198.143H201.206L206.899 171.328Z" fill="#223762"/>
<path d="M165.177 176.874L183.514 161.698L190.4 166.542L204.497 152.542L195.921 192.899H161.771L165.177 176.874Z" fill="#D6E3FA"/>
<path d="M182.706 154.935C182.167 157.704 179.618 159.95 176.988 159.95C174.358 159.95 172.717 157.704 173.256 154.935C173.795 152.166 176.343 149.92 178.973 149.92C181.603 149.92 183.245 152.166 182.706 154.935Z" fill="#D6E3FA"/>
<path d="M248.538 154.935H231.484L237.544 85.6804H254.591L248.538 154.935Z" fill="white"/>
<path d="M355.406 154.935H252.41L258.47 85.6804H361.466L355.406 154.935Z" fill="white"/>
<path d="M244.569 94.0033H238.182L238.745 87.6243H245.124L244.569 94.0033Z" fill="#FFD46A"/>
<path d="M252.165 94.0033H245.778L246.341 87.6243H252.72L252.165 94.0033Z" fill="#FF9F5B"/>
<path d="M243.858 101.706H237.471L238.035 95.3184H244.414L243.858 101.706Z" fill="#FFD46A"/>
<path d="M251.454 101.706H245.075L245.631 95.3184H252.01L251.454 101.706Z" fill="#FF9F5B"/>
<path d="M243.148 109.4H236.769L237.324 103.021H243.703L243.148 109.4Z" fill="#FF9F5B"/>
<path d="M250.744 109.4H244.365L244.92 103.021H251.299L250.744 109.4Z" fill="#FFD46A"/>
<path d="M350.089 106.369H344.616L345.09 100.889H350.571L350.089 106.369Z" fill="#FFD46A"/>
<path d="M356.615 106.369H351.134L351.616 100.889H357.089L356.615 106.369Z" fill="#FF9F5B"/>
<path d="M349.484 112.977H344.003L344.485 107.497H349.958L349.484 112.977Z" fill="#FFD46A"/>
<path d="M356.002 112.977H350.521L351.003 107.497H356.484L356.002 112.977Z" fill="#FF9F5B"/>
<path d="M348.872 119.585H343.399L343.873 114.104H349.354L348.872 119.585Z" fill="#FF9F5B"/>
<path d="M355.398 119.585H349.917L350.399 114.104H355.872L355.398 119.585Z" fill="#FFD46A"/>
<path d="M337.853 148.548H266.989L271.155 100.889H342.027L337.853 148.548Z" fill="#4C93F4"/>
<path d="M358.82 96.5354H259.842L260.569 88.2288H359.539L358.82 96.5354Z" fill="#D6E3FA"/>
<path d="M271.155 100.889L337.853 148.548H266.989L271.155 100.889Z" fill="#D6E3FA"/>
<path d="M310.434 193.969H288.977V198.143H310.434V193.969Z" fill="#3769A5"/>
<path d="M289.655 195.154H221.119V198.143H289.655V195.154Z" fill="#4C93F4"/>
<path d="M310.328 194.451L289.655 198.086V195.145L310.328 191.511V194.451Z" fill="#223762"/>
<path d="M241.792 191.511H310.328L289.655 195.145H221.119L241.792 191.511Z" fill="#D6E3FA"/>
<path d="M310.434 198.143C311.769 198.143 312.851 196.658 312.851 194.827C312.851 192.995 311.769 191.511 310.434 191.511C309.099 191.511 308.016 192.995 308.016 194.827C308.016 196.658 309.099 198.143 310.434 198.143Z" fill="#223762"/>
<path d="M345.678 198.143C345.881 198.144 346.081 198.09 346.255 197.986C346.429 197.882 346.572 197.732 346.667 197.553C346.762 197.373 346.806 197.171 346.795 196.969C346.783 196.766 346.716 196.571 346.601 196.403C345.037 194.216 342.974 192.434 340.584 191.204C338.193 189.975 335.543 189.333 332.855 189.333C330.166 189.333 327.517 189.975 325.126 191.204C322.735 192.434 320.672 194.216 319.108 196.403C318.993 196.571 318.926 196.766 318.915 196.969C318.903 197.171 318.947 197.373 319.043 197.553C319.138 197.732 319.28 197.882 319.454 197.986C319.629 198.09 319.828 198.144 320.031 198.143H345.678Z" fill="#4C93F4"/>
<path d="M330.854 195.505C331.886 193.279 333.265 191.231 334.938 189.436C334.241 189.349 333.54 189.306 332.839 189.305C330.15 189.303 327.5 189.943 325.109 191.172C322.718 192.401 320.655 194.183 319.092 196.371C318.977 196.538 318.91 196.734 318.899 196.936C318.887 197.139 318.931 197.341 319.027 197.52C319.122 197.699 319.264 197.849 319.438 197.953C319.613 198.057 319.812 198.112 320.015 198.11H331.777C330.878 198.143 330.331 196.624 330.854 195.505Z" fill="#223762"/>
<path d="M235.307 329.4C237.743 329.4 239.717 327.425 239.717 324.989C239.717 322.553 237.743 320.578 235.307 320.578C232.871 320.578 230.896 322.553 230.896 324.989C230.896 327.425 232.871 329.4 235.307 329.4Z" fill="#223762"/>
<path d="M382.613 35.3829H346.773C345.884 35.3829 345.164 36.1033 345.164 36.992V64.1663C345.164 65.055 345.884 65.7754 346.773 65.7754H382.613C383.502 65.7754 384.222 65.055 384.222 64.1663V36.992C384.222 36.1033 383.502 35.3829 382.613 35.3829Z" fill="#223762"/>
<path d="M381.453 35.3829H345.612C344.724 35.3829 344.003 36.1033 344.003 36.992V64.1663C344.003 65.055 344.724 65.7754 345.612 65.7754H381.453C382.341 65.7754 383.062 65.055 383.062 64.1663V36.992C383.062 36.1033 382.341 35.3829 381.453 35.3829Z" fill="url(#paint34_linear)"/>
<path d="M345.515 37.7598L363.533 54.2261L381.232 37.7598" stroke="#112244" stroke-width="0.5" stroke-linecap="round" stroke-linejoin="round"/>
<path d="M345.605 42.7748C349.362 42.7748 352.408 39.4873 352.408 35.432C352.408 31.3766 349.362 28.0891 345.605 28.0891C341.847 28.0891 338.801 31.3766 338.801 35.432C338.801 39.4873 341.847 42.7748 345.605 42.7748Z" fill="#FF9F5B"/>
<path d="M344.616 42.7748C348.374 42.7748 351.42 39.4873 351.42 35.432C351.42 31.3766 348.374 28.0891 344.616 28.0891C340.859 28.0891 337.812 31.3766 337.812 35.432C337.812 39.4873 340.859 42.7748 344.616 42.7748Z" fill="#FFD46A"/>
<path d="M344.935 30.6047H344.29C343.92 30.6047 343.62 30.9046 343.62 31.2745V39.5812C343.62 39.9511 343.92 40.2509 344.29 40.2509H344.935C345.305 40.2509 345.605 39.9511 345.605 39.5812V31.2745C345.605 30.9046 345.305 30.6047 344.935 30.6047Z" fill="white"/>
<path d="M221.96 11.7943H205.853V53.0744H233.64V23.7847L221.96 11.7943Z" fill="url(#paint35_linear)"/>
<path d="M223.651 59.1513H195.856V17.8712H211.971L223.651 29.8697V59.1513Z" fill="url(#paint36_linear)"/>
<path d="M211.971 17.8712V29.8697H223.651L211.971 17.8712Z" fill="white"/>
<path d="M209.684 24.6667H199.581V28.0891H209.684V24.6667Z" fill="#EAF1FC"/>
<path d="M219.878 31.6912H199.581V35.1135H219.878V31.6912Z" fill="#EAF1FC"/>
<path d="M219.878 38.5438H199.581V41.9661H219.878V38.5438Z" fill="#EAF1FC"/>
<path d="M219.878 45.3884H199.581V48.8107H219.878V45.3884Z" fill="#EAF1FC"/>
<path d="M219.878 52.2413H199.581V55.6636H219.878V52.2413Z" fill="#EAF1FC"/>
<path d="M320.26 0H295.487C294.588 0 293.726 0.357122 293.09 0.992804C292.454 1.62848 292.097 2.49065 292.097 3.38964V18.6471C292.099 19.5454 292.457 20.4064 293.092 21.0416C293.728 21.6768 294.588 22.0346 295.487 22.0368H300.894L305.999 29.0121H307.869L314.845 22.0368H320.252C321.151 22.0368 322.014 21.6799 322.651 21.0445C323.288 20.409 323.647 19.5469 323.649 18.6471V3.39781C323.65 2.95199 323.564 2.51034 323.394 2.09814C323.224 1.68595 322.974 1.31131 322.66 0.995689C322.345 0.680066 321.971 0.429658 321.559 0.258802C321.147 0.0879464 320.706 -1.29429e-06 320.26 0Z" fill="url(#paint37_linear)"/>
<path d="M318.39 0H293.617C292.718 0 291.856 0.357122 291.22 0.992804C290.584 1.62848 290.227 2.49065 290.227 3.38964V18.6471C290.229 19.5454 290.587 20.4064 291.222 21.0416C291.857 21.6768 292.718 22.0346 293.617 22.0368H299.024L305.999 29.0121L312.974 22.0368H318.381C319.281 22.0368 320.144 21.6799 320.781 21.0445C321.418 20.409 321.777 19.5469 321.779 18.6471V3.39781C321.78 2.95199 321.694 2.51034 321.524 2.09814C321.354 1.68595 321.104 1.31131 320.789 0.995689C320.475 0.680066 320.101 0.429658 319.689 0.258802C319.277 0.0879464 318.835 -1.29429e-06 318.39 0Z" fill="url(#paint38_linear)"/>
<path d="M305.999 18.0672C309.315 18.0672 312.002 15.0723 312.002 11.3778C312.002 7.68332 309.315 4.68835 305.999 4.68835C302.683 4.68835 299.996 7.68332 299.996 11.3778C299.996 15.0723 302.683 18.0672 305.999 18.0672Z" fill="url(#paint39_linear)"/>
<path d="M268.003 34.0924H259.957C256.073 34.0924 252.925 37.241 252.925 41.1249V49.1702C252.925 53.0541 256.073 56.2027 259.957 56.2027H268.003C271.887 56.2027 275.035 53.0541 275.035 49.1702V41.1249C275.035 37.241 271.887 34.0924 268.003 34.0924Z" fill="url(#paint40_linear)"/>
<path d="M268.214 34.0924H256.494C253.625 34.0924 251.299 36.4182 251.299 39.2871V51.0079C251.299 53.8769 253.625 56.2027 256.494 56.2027H268.214C271.083 56.2027 273.409 53.8769 273.409 51.0079V39.2871C273.409 36.4182 271.083 34.0924 268.214 34.0924Z" fill="url(#paint41_linear)"/>
<path d="M264.596 38.3396H260.12C257.594 38.3396 255.546 40.3874 255.546 42.9136V47.3895C255.546 49.9157 257.594 51.9635 260.12 51.9635H264.596C267.122 51.9635 269.17 49.9157 269.17 47.3895V42.9136C269.17 40.3874 267.122 38.3396 264.596 38.3396Z" fill="#D6E3FA"/>
<path d="M263.567 41.4762H261.149C259.787 41.4762 258.683 42.5806 258.683 43.9429V46.3605C258.683 47.7229 259.787 48.8272 261.149 48.8272H263.567C264.929 48.8272 266.034 47.7229 266.034 46.3605V43.9429C266.034 42.5806 264.929 41.4762 263.567 41.4762Z" fill="url(#paint42_linear)"/>
<path d="M189.543 80.9921H178.639C174.461 80.9921 171.075 84.3783 171.075 88.5555V99.4595C171.075 103.637 174.461 107.023 178.639 107.023H189.543C193.72 107.023 197.106 103.637 197.106 99.4595V88.5555C197.106 84.3783 193.72 80.9921 189.543 80.9921Z" fill="url(#paint43_linear)"/>
<path d="M190 80.9921H174.358C171.489 80.9921 169.164 83.3178 169.164 86.1868V101.828C169.164 104.697 171.489 107.023 174.358 107.023H190C192.869 107.023 195.194 104.697 195.194 101.828V86.1868C195.194 83.3178 192.869 80.9921 190 80.9921Z" fill="url(#paint44_linear)"/>
<path d="M185.001 85.9907H179.357C176.488 85.9907 174.162 88.3165 174.162 91.1855V96.8294C174.162 99.6984 176.488 102.024 179.357 102.024H185.001C187.87 102.024 190.196 99.6984 190.196 96.8294V91.1855C190.196 88.3165 187.87 85.9907 185.001 85.9907Z" fill="#D6E3FA"/>
<path d="M183.596 89.6744H180.762C179.156 89.6744 177.854 90.9763 177.854 92.5822V95.4164C177.854 97.0223 179.156 98.3242 180.762 98.3242H183.596C185.202 98.3242 186.504 97.0223 186.504 95.4164V92.5822C186.504 90.9763 185.202 89.6744 183.596 89.6744Z" fill="url(#paint45_linear)"/>
<path d="M385.333 55.8352C385.333 55.8352 403.874 80.0773 396.768 91.4632C389.662 102.849 380.759 92.28 379.746 88.5064C378.733 84.7329 382.376 79.5219 388.461 78.8194C394.546 78.117 400.5 97.6952 393.06 106.762C385.619 115.828 372.754 112.095 372.754 112.095" stroke="#112244" stroke-width="0.5" stroke-linecap="round" stroke-linejoin="round" stroke-dasharray="3 3"/>
<path d="M395.061 105.561C396.779 105.561 398.173 104.27 398.173 102.678C398.173 101.085 396.779 99.7943 395.061 99.7943C393.342 99.7943 391.949 101.085 391.949 102.678C391.949 104.27 393.342 105.561 395.061 105.561Z" fill="#FFD46A"/>
<path d="M262.358 58.1875C261.795 60.3069 261.711 62.5252 262.113 64.6811C262.514 66.8371 263.39 68.8766 264.678 70.6516C269.089 76.5814 278.351 77.341 278.351 77.341" stroke="#112244" stroke-width="0.5" stroke-linecap="round" stroke-linejoin="round" stroke-dasharray="3 3"/>
<path d="M209.684 62.1897C209.684 62.1897 207.299 67.9643 205.829 78.705C204.358 89.4457 222.564 94.7466 222.564 94.7466" stroke="#112244" stroke-width="0.5" stroke-linecap="round" stroke-linejoin="round" stroke-dasharray="3 3"/>
<path d="M182.142 109.4C182.142 109.4 180.46 114.129 185.017 122.632C189.575 131.134 197.482 133.25 202.799 129.166C208.116 125.082 208.214 111.687 205.731 108.803C203.248 105.92 201.647 107.586 201.165 112.299C200.683 117.012 210.24 125.94 215.108 128.088C219.976 130.236 220.49 128.904 220.49 128.904" stroke="#112244" stroke-width="0.5" stroke-linecap="round" stroke-linejoin="round" stroke-dasharray="3 3"/>
<path d="M263.15 70.3739C264.743 70.3739 266.034 68.9806 266.034 67.262C266.034 65.5433 264.743 64.15 263.15 64.15C261.558 64.15 260.267 65.5433 260.267 67.262C260.267 68.9806 261.558 70.3739 263.15 70.3739Z" fill="#FFD46A"/>
<path d="M212.641 93.2682C214.233 93.2682 215.524 91.8749 215.524 90.1562C215.524 88.4376 214.233 87.0443 212.641 87.0443C211.049 87.0443 209.758 88.4376 209.758 90.1562C209.758 91.8749 211.049 93.2682 212.641 93.2682Z" fill="#FFD46A"/>
<path d="M206.874 116.089C208.467 116.089 209.758 114.696 209.758 112.977C209.758 111.259 208.467 109.865 206.874 109.865C205.282 109.865 203.991 111.259 203.991 112.977C203.991 114.696 205.282 116.089 206.874 116.089Z" fill="#FFD46A"/>
<path d="M306.938 31.6912C306.938 31.6912 306.318 39.7283 315.286 42.8811C324.254 46.0338 336.106 49.9871 336.865 59.8619C337.625 69.7368 326.247 77.3411 326.247 77.3411" stroke="#112244" stroke-width="0.5" stroke-linecap="round" stroke-linejoin="round" stroke-dasharray="3 3"/>
<path d="M310.27 42.7748C311.863 42.7748 313.154 41.3815 313.154 39.6628C313.154 37.9442 311.863 36.5509 310.27 36.5509C308.678 36.5509 307.387 37.9442 307.387 39.6628C307.387 41.3815 308.678 42.7748 310.27 42.7748Z" fill="#FFD46A"/>
<path d="M173.803 169.727L179.986 172.716L185.793 168.159L189.109 169.98L197.922 161.698L201.059 168.722L204.497 152.542L190.4 166.542L183.514 161.698L173.803 169.727Z" fill="white"/>
<path d="M163.65 184.037H169.555V178.924H171.606V184.037H179.357L182.305 186.986H188.472L192.507 182.951V178.009H195.39L197.783 175.616H199.588L195.921 192.899H161.771L163.65 184.037Z" fill="url(#paint46_linear)"/>
<path d="M372.452 241.792C379.975 260.847 392.529 275.549 405.94 282.9C387.408 261.966 368.703 188.97 368.703 188.97C363.95 203.427 364.848 222.712 372.452 241.792Z" fill="url(#paint47_linear)"/>
<path d="M402.167 229.997C394.603 210.917 382.049 196.248 368.679 188.913C368.679 188.913 387.391 261.942 405.916 282.843C410.629 268.362 409.73 249.077 402.167 229.997Z" fill="url(#paint48_linear)"/>
<path d="M402.167 229.997C394.603 210.917 382.049 196.248 368.679 188.913C368.679 188.913 387.391 261.942 405.916 282.843C410.629 268.362 409.73 249.077 402.167 229.997Z" fill="url(#paint49_linear)"/>
<path d="M390.497 247.005C391.458 246.602 391.656 244.89 390.94 243.18C390.223 241.47 388.863 240.41 387.902 240.813C386.941 241.215 386.743 242.928 387.459 244.638C388.176 246.348 389.535 247.408 390.497 247.005Z" fill="url(#paint50_linear)"/>
<path d="M402.623 248.955C403.584 248.552 403.782 246.84 403.066 245.13C402.349 243.42 400.989 242.36 400.028 242.762C399.067 243.165 398.869 244.878 399.585 246.588C400.302 248.298 401.661 249.358 402.623 248.955Z" fill="url(#paint51_linear)"/>
<path d="M396.375 246.371C397.078 244.655 396.866 242.944 395.901 242.549C394.937 242.154 393.586 243.225 392.883 244.941C392.18 246.657 392.393 248.368 393.357 248.763C394.321 249.157 395.672 248.087 396.375 246.371Z" fill="url(#paint52_linear)"/>
<path d="M397.368 252.859C398.071 251.143 397.859 249.432 396.894 249.037C395.93 248.642 394.579 249.713 393.876 251.429C393.174 253.144 393.386 254.855 394.35 255.25C395.314 255.645 396.666 254.574 397.368 252.859Z" fill="url(#paint53_linear)"/>
<path d="M403.34 263.318C404.304 260.963 404.017 258.617 402.697 258.076C401.378 257.536 399.527 259.007 398.563 261.361C397.599 263.716 397.887 266.062 399.206 266.603C400.525 267.143 402.376 265.672 403.34 263.318Z" fill="url(#paint54_linear)"/>
<path d="M406.103 271.315C406.202 268.772 405.128 266.666 403.704 266.611C402.279 266.555 401.044 268.571 400.945 271.113C400.845 273.655 401.919 275.761 403.344 275.817C404.768 275.873 406.003 273.857 406.103 271.315Z" fill="url(#paint55_linear)"/>
<path d="M337.388 109.898H273.72L274.185 104.556H337.853L337.388 109.898Z" fill="white"/>
<path d="M336.432 118.205H272.756L273.23 112.863H336.898L336.432 118.205Z" fill="white"/>
<path d="M336.105 127.214H272.437L272.903 121.872H336.579L336.105 127.214Z" fill="white"/>
<path d="M471.577 370.01H0L32.369 361.042H441.723L471.577 370.01Z" fill="url(#paint56_linear)"/>
<path opacity="0.45" d="M344.069 162.776H325.365V175.927H344.069V162.776Z" fill="url(#paint57_linear)"/>
<path d="M319.778 178.655L322.628 177.838C325.479 177.021 325.365 171.091 325.365 171.091V161.2H344.069V171.091C344.069 171.091 344.183 177.013 341.333 177.838L338.482 178.655H319.778Z" fill="url(#paint58_linear)"/>
<defs>
<linearGradient id="paint0_linear" x1="400.884" y1="247.991" x2="400.884" y2="206.343" gradientUnits="userSpaceOnUse">
<stop stop-color="#3769A5"/>
<stop offset="1" stop-color="#08448B"/>
</linearGradient>
<linearGradient id="paint1_linear" x1="399.88" y1="245.859" x2="438.775" y2="245.859" gradientUnits="userSpaceOnUse">
<stop stop-color="#223762"/>
<stop offset="1" stop-color="#041B48"/>
</linearGradient>
<linearGradient id="paint2_linear" x1="14867.7" y1="18663.5" x2="11181" y2="21201.7" gradientUnits="userSpaceOnUse">
<stop stop-color="#223762"/>
<stop offset="1" stop-color="#041B48"/>
</linearGradient>
<linearGradient id="paint3_linear" x1="10317.2" y1="42985.7" x2="10856.3" y2="42985.7" gradientUnits="userSpaceOnUse">
<stop stop-color="#3769A5"/>
<stop offset="1" stop-color="#08448B"/>
</linearGradient>
<linearGradient id="paint4_linear" x1="427.103" y1="115.787" x2="388.812" y2="289.631" gradientUnits="userSpaceOnUse">
<stop stop-color="#4C93F4"/>
<stop offset="1" stop-color="#0B63DA"/>
</linearGradient>
<linearGradient id="paint5_linear" x1="22053.3" y1="60845.7" x2="22053.3" y2="53159.7" gradientUnits="userSpaceOnUse">
<stop stop-color="#3769A5"/>
<stop offset="1" stop-color="#08448B"/>
</linearGradient>
<linearGradient id="paint6_linear" x1="22592.6" y1="24122.2" x2="17829.9" y2="28205" gradientUnits="userSpaceOnUse">
<stop stop-color="#3769A5"/>
<stop offset="1" stop-color="#08448B"/>
</linearGradient>
<linearGradient id="paint7_linear" x1="471.985" y1="304.635" x2="389.319" y2="341.512" gradientUnits="userSpaceOnUse">
<stop stop-color="#FF9F5B"/>
<stop offset="1" stop-color="#E5670E"/>
</linearGradient>
<linearGradient id="paint8_linear" x1="14748.6" y1="31198.9" x2="14336.5" y2="31198.9" gradientUnits="userSpaceOnUse">
<stop stop-color="#FF9F5B"/>
<stop offset="1" stop-color="#E5670E"/>
</linearGradient>
<linearGradient id="paint9_linear" x1="2911.52" y1="2781.31" x2="2860.04" y2="2857.67" gradientUnits="userSpaceOnUse">
<stop stop-color="#4C93F4"/>
<stop offset="1" stop-color="#0B63DA"/>
</linearGradient>
<linearGradient id="paint10_linear" x1="4500.58" y1="2509.9" x2="4449.48" y2="2543.12" gradientUnits="userSpaceOnUse">
<stop stop-color="#4C93F4"/>
<stop offset="1" stop-color="#0B63DA"/>
</linearGradient>
<linearGradient id="paint11_linear" x1="6302.66" y1="3485.78" x2="6232.59" y2="3531.33" gradientUnits="userSpaceOnUse">
<stop stop-color="#4C93F4"/>
<stop offset="1" stop-color="#0B63DA"/>
</linearGradient>
<linearGradient id="paint12_linear" x1="7046.83" y1="3251.97" x2="6996.6" y2="3318.76" gradientUnits="userSpaceOnUse">
<stop stop-color="#4C93F4"/>
<stop offset="1" stop-color="#0B63DA"/>
</linearGradient>
<linearGradient id="paint13_linear" x1="2212.71" y1="7498.27" x2="1627.8" y2="7319.13" gradientUnits="userSpaceOnUse">
<stop stop-color="#4C93F4"/>
<stop offset="1" stop-color="#0B63DA"/>
</linearGradient>
<linearGradient id="paint14_linear" x1="7299.22" y1="6181.82" x2="6501.85" y2="5105.3" gradientUnits="userSpaceOnUse">
<stop stop-color="#4C93F4"/>
<stop offset="1" stop-color="#0B63DA"/>
</linearGradient>
<linearGradient id="paint15_linear" x1="326.811" y1="198.674" x2="-92.9986" y2="222.581" gradientUnits="userSpaceOnUse">
<stop stop-color="#A7BDE5"/>
<stop offset="1" stop-color="#2F66CB"/>
</linearGradient>
<linearGradient id="paint16_linear" x1="3617.41" y1="67463.1" x2="3617.41" y2="47888.4" gradientUnits="userSpaceOnUse">
<stop stop-color="#A7BDE5"/>
<stop offset="1" stop-color="#2F66CB"/>
</linearGradient>
<linearGradient id="paint17_linear" x1="6121.17" y1="60845.7" x2="6121.17" y2="53159.7" gradientUnits="userSpaceOnUse">
<stop stop-color="#3769A5"/>
<stop offset="1" stop-color="#08448B"/>
</linearGradient>
<linearGradient id="paint18_linear" x1="9341.32" y1="60845.7" x2="9341.32" y2="53159.7" gradientUnits="userSpaceOnUse">
<stop stop-color="#3769A5"/>
<stop offset="1" stop-color="#08448B"/>
</linearGradient>
<linearGradient id="paint19_linear" x1="6837.56" y1="67463.1" x2="6837.56" y2="47888.4" gradientUnits="userSpaceOnUse">
<stop stop-color="#A7BDE5"/>
<stop offset="1" stop-color="#2F66CB"/>
</linearGradient>
<linearGradient id="paint20_linear" x1="19546" y1="67463.1" x2="19546" y2="47888.4" gradientUnits="userSpaceOnUse">
<stop stop-color="#A7BDE5"/>
<stop offset="1" stop-color="#2F66CB"/>
</linearGradient>
<linearGradient id="paint21_linear" x1="22766.2" y1="67463.1" x2="22766.2" y2="47888.4" gradientUnits="userSpaceOnUse">
<stop stop-color="#A7BDE5"/>
<stop offset="1" stop-color="#2F66CB"/>
</linearGradient>
<linearGradient id="paint22_linear" x1="61359.2" y1="5190.05" x2="57971.4" y2="12876.9" gradientUnits="userSpaceOnUse">
<stop stop-color="#3769A5"/>
<stop offset="1" stop-color="#08448B"/>
</linearGradient>
<linearGradient id="paint23_linear" x1="2762.62" y1="8475.39" x2="1558.89" y2="9777.63" gradientUnits="userSpaceOnUse">
<stop stop-color="#223762"/>
<stop offset="1" stop-color="#041B48"/>
</linearGradient>
<linearGradient id="paint24_linear" x1="2718.71" y1="8439.54" x2="1515.42" y2="9740.94" gradientUnits="userSpaceOnUse">
<stop stop-color="#223762"/>
<stop offset="1" stop-color="#041B48"/>
</linearGradient>
<linearGradient id="paint25_linear" x1="3757.05" y1="15570.7" x2="1734.53" y2="17042.1" gradientUnits="userSpaceOnUse">
<stop stop-color="#223762"/>
<stop offset="1" stop-color="#041B48"/>
</linearGradient>
<linearGradient id="paint26_linear" x1="4023.48" y1="15889" x2="1998.9" y2="17367.4" gradientUnits="userSpaceOnUse">
<stop stop-color="#223762"/>
<stop offset="1" stop-color="#041B48"/>
</linearGradient>
<linearGradient id="paint27_linear" x1="3786.43" y1="11576.3" x2="1733.82" y2="13320.6" gradientUnits="userSpaceOnUse">
<stop stop-color="#4C93F4"/>
<stop offset="1" stop-color="#0B63DA"/>
</linearGradient>
<linearGradient id="paint28_linear" x1="4400.03" y1="10989.1" x2="1935.72" y2="12088.1" gradientUnits="userSpaceOnUse">
<stop stop-color="#3769A5"/>
<stop offset="1" stop-color="#08448B"/>
</linearGradient>
<linearGradient id="paint29_linear" x1="3526.98" y1="12348" x2="1368.24" y2="13987.9" gradientUnits="userSpaceOnUse">
<stop stop-color="#4C93F4"/>
<stop offset="1" stop-color="#0B63DA"/>
</linearGradient>
<linearGradient id="paint30_linear" x1="4195.46" y1="11812" x2="1746.01" y2="12784.7" gradientUnits="userSpaceOnUse">
<stop stop-color="#3769A5"/>
<stop offset="1" stop-color="#08448B"/>
</linearGradient>
<linearGradient id="paint31_linear" x1="7305.88" y1="12599.5" x2="5680.5" y2="14078.4" gradientUnits="userSpaceOnUse">
<stop stop-color="#FF9F5B"/>
<stop offset="1" stop-color="#E5670E"/>
</linearGradient>
<linearGradient id="paint32_linear" x1="2952.77" y1="12336.6" x2="1884.37" y2="12734.7" gradientUnits="userSpaceOnUse">
<stop stop-color="#FF9F5B"/>
<stop offset="1" stop-color="#E5670E"/>
</linearGradient>
<linearGradient id="paint33_linear" x1="15050.9" y1="15415" x2="11572.2" y2="19626.8" gradientUnits="userSpaceOnUse">
<stop stop-color="#4C93F4"/>
<stop offset="1" stop-color="#0B63DA"/>
</linearGradient>
<linearGradient id="paint34_linear" x1="18827.6" y1="4101.59" x2="17251.6" y2="6028.15" gradientUnits="userSpaceOnUse">
<stop stop-color="#4C93F4"/>
<stop offset="1" stop-color="#0B63DA"/>
</linearGradient>
<linearGradient id="paint35_linear" x1="7208.98" y1="5722.9" x2="8154.29" y2="5722.9" gradientUnits="userSpaceOnUse">
<stop stop-color="#223762"/>
<stop offset="1" stop-color="#041B48"/>
</linearGradient>
<linearGradient id="paint36_linear" x1="7038.72" y1="6707.31" x2="7837.82" y2="5883.09" gradientUnits="userSpaceOnUse">
<stop stop-color="#4C93F4"/>
<stop offset="1" stop-color="#0B63DA"/>
</linearGradient>
<linearGradient id="paint37_linear" x1="11575.8" y1="3377.29" x2="12795" y2="3377.29" gradientUnits="userSpaceOnUse">
<stop stop-color="#223762"/>
<stop offset="1" stop-color="#041B48"/>
</linearGradient>
<linearGradient id="paint38_linear" x1="11501.4" y1="3377.29" x2="12720.6" y2="3377.29" gradientUnits="userSpaceOnUse">
<stop stop-color="#4C93F4"/>
<stop offset="1" stop-color="#0B63DA"/>
</linearGradient>
<linearGradient id="paint39_linear" x1="4709.92" y1="1510.75" x2="4886.54" y2="1510.75" gradientUnits="userSpaceOnUse">
<stop stop-color="#223762"/>
<stop offset="1" stop-color="#041B48"/>
</linearGradient>
<linearGradient id="paint40_linear" x1="7099.59" y1="3437.3" x2="7698.34" y2="3437.3" gradientUnits="userSpaceOnUse">
<stop stop-color="#223762"/>
<stop offset="1" stop-color="#041B48"/>
</linearGradient>
<linearGradient id="paint41_linear" x1="7053.96" y1="3437.3" x2="7652.7" y2="3437.3" gradientUnits="userSpaceOnUse">
<stop stop-color="#4C93F4"/>
<stop offset="1" stop-color="#0B63DA"/>
</linearGradient>
<linearGradient id="paint42_linear" x1="2586.83" y1="1172.95" x2="2652.99" y2="1172.95" gradientUnits="userSpaceOnUse">
<stop stop-color="#223762"/>
<stop offset="1" stop-color="#041B48"/>
</linearGradient>
<linearGradient id="paint43_linear" x1="5623.23" y1="5644.56" x2="6452.83" y2="5644.56" gradientUnits="userSpaceOnUse">
<stop stop-color="#223762"/>
<stop offset="1" stop-color="#041B48"/>
</linearGradient>
<linearGradient id="paint44_linear" x1="5560.4" y1="5644.56" x2="6390.01" y2="5644.56" gradientUnits="userSpaceOnUse">
<stop stop-color="#4C93F4"/>
<stop offset="1" stop-color="#0B63DA"/>
</linearGradient>
<linearGradient id="paint45_linear" x1="2061.33" y1="1938.38" x2="2152.93" y2="1938.38" gradientUnits="userSpaceOnUse">
<stop stop-color="#223762"/>
<stop offset="1" stop-color="#041B48"/>
</linearGradient>
<linearGradient id="paint46_linear" x1="9096.03" y1="5754.42" x2="8172.98" y2="6312.67" gradientUnits="userSpaceOnUse">
<stop stop-color="#4C93F4"/>
<stop offset="1" stop-color="#0B63DA"/>
</linearGradient>
<linearGradient id="paint47_linear" x1="18476.6" y1="30622.2" x2="23212.4" y2="38368.9" gradientUnits="userSpaceOnUse">
<stop stop-color="#3769A5"/>
<stop offset="1" stop-color="#08448B"/>
</linearGradient>
<linearGradient id="paint48_linear" x1="18964.2" y1="30317.8" x2="23701.4" y2="38060.4" gradientUnits="userSpaceOnUse">
<stop stop-color="#4C93F4"/>
<stop offset="1" stop-color="#0B63DA"/>
</linearGradient>
<linearGradient id="paint49_linear" x1="18808.1" y1="28916.4" x2="25598.3" y2="40016.3" gradientUnits="userSpaceOnUse">
<stop stop-color="#4C93F4"/>
<stop offset="1" stop-color="#0B63DA"/>
</linearGradient>
<linearGradient id="paint50_linear" x1="3144.78" y1="3593.03" x2="3134.1" y2="3646.79" gradientUnits="userSpaceOnUse">
<stop stop-color="#4C93F4"/>
<stop offset="1" stop-color="#0B63DA"/>
</linearGradient>
<linearGradient id="paint51_linear" x1="3221.77" y1="3620.69" x2="3211.16" y2="3674.48" gradientUnits="userSpaceOnUse">
<stop stop-color="#4C93F4"/>
<stop offset="1" stop-color="#0B63DA"/>
</linearGradient>
<linearGradient id="paint52_linear" x1="3899.9" y1="2146.16" x2="3879.43" y2="2176.18" gradientUnits="userSpaceOnUse">
<stop stop-color="#4C93F4"/>
<stop offset="1" stop-color="#0B63DA"/>
</linearGradient>
<linearGradient id="paint53_linear" x1="3914.15" y1="2187.15" x2="3893.68" y2="2217.17" gradientUnits="userSpaceOnUse">
<stop stop-color="#4C93F4"/>
<stop offset="1" stop-color="#0B63DA"/>
</linearGradient>
<linearGradient id="paint54_linear" x1="5416.46" y1="2888.02" x2="5388.48" y2="2929.12" gradientUnits="userSpaceOnUse">
<stop stop-color="#4C93F4"/>
<stop offset="1" stop-color="#0B63DA"/>
</linearGradient>
<linearGradient id="paint55_linear" x1="5381.32" y1="2331.94" x2="5369.15" y2="2380.11" gradientUnits="userSpaceOnUse">
<stop stop-color="#4C93F4"/>
<stop offset="1" stop-color="#0B63DA"/>
</linearGradient>
<linearGradient id="paint56_linear" x1="0" y1="5259.16" x2="272270" y2="5259.16" gradientUnits="userSpaceOnUse">
<stop stop-color="#223762"/>
<stop offset="1" stop-color="#041B48"/>
</linearGradient>
<linearGradient id="paint57_linear" x1="7947.92" y1="4292.85" x2="8002.93" y2="4014.03" gradientUnits="userSpaceOnUse">
<stop stop-color="#223762"/>
<stop offset="1" stop-color="#041B48"/>
</linearGradient>
<linearGradient id="paint58_linear" x1="331.923" y1="162.981" x2="331.923" y2="200.389" gradientUnits="userSpaceOnUse">
<stop stop-color="#FFC063"/>
<stop offset="0.95" stop-color="#E44D0B"/>
</linearGradient>
</defs>
</svg>
