<svg width="40" height="40" viewBox="0 0 40 40" fill="none" xmlns="http://www.w3.org/2000/svg">
<path d="M29.9874 13.4247C29.3717 12.7755 28.3453 12.7469 27.695 13.3642L17.3426 23.1821L12.4048 18.1123C11.7794 17.4707 10.754 17.4566 10.1118 18.0821C9.47017 18.7069 9.45666 19.7334 10.0815 20.375L16.1356 26.5907C16.4528 26.9167 16.8745 27.081 17.2972 27.081C17.6983 27.081 18.0994 26.9328 18.4135 26.6361L29.927 15.7172C30.5767 15.101 30.6042 14.0745 29.9874 13.4247Z" fill="white"/>
<path d="M20 0C8.97187 0 0 8.97187 0 20C0 31.0281 8.97187 40 20 40C31.0281 40 40 31.0281 40 20C40 8.97187 31.0281 0 20 0ZM20 36.7568C10.7605 36.7568 3.2432 29.2401 3.2432 20C3.2432 10.7605 10.7605 3.2432 20 3.2432C29.24 3.2432 36.7568 10.7605 36.7568 20C36.7568 29.24 29.24 36.7568 20 36.7568Z" fill="white"/>
</svg>
