<svg width="244" height="200" viewBox="0 0 244 200" fill="none" xmlns="http://www.w3.org/2000/svg">
<path opacity="0.49" d="M168.012 18.9729C119.391 32.4224 79.6402 1.33017 54.5616 0.062427C16.8544 -1.83919 -21.5354 39.7931 28.8492 112.68C79.2338 185.567 99.8875 201.999 154.981 194.502C199.064 188.505 228.498 146.714 236.974 117.43C250.237 71.5802 216.634 5.52753 168.012 18.9729Z" fill="url(#paint0_linear)"/>
<path d="M117.412 9.7168H55.5774V54.421H117.412V9.7168Z" fill="#223762"/>
<path d="M115.95 9.7168H54.8665V54.421H115.95V9.7168Z" fill="url(#paint1_linear)"/>
<path d="M113.564 12.3213H57.2596V51.8245H113.564V12.3213Z" fill="url(#paint2_linear)"/>
<path d="M58.3649 12.3213H57.2596V51.8245H58.3649V12.3213Z" fill="#223762"/>
<path d="M58.3608 45.0429L73.139 35.2504L90.412 38.9114L108.449 19.1313L113.565 24.7671V51.8204H58.3608V45.0429Z" fill="#D6E3FA"/>
<path d="M67.1335 27.2416C69.1398 27.2416 70.7661 25.2041 70.7661 22.6908C70.7661 20.1774 69.1398 18.1399 67.1335 18.1399C65.1273 18.1399 63.501 20.1774 63.501 22.6908C63.501 25.2041 65.1273 27.2416 67.1335 27.2416Z" fill="white"/>
<path d="M66.8612 39.4113L71.8306 41.5567L76.0564 38.6636L84.764 37.7128L73.139 35.2505L66.8612 39.4113Z" fill="white"/>
<path d="M102.646 25.4904L106.633 27.8877L109.213 26.1283L111.96 27.2376L113.686 26.689L113.565 24.7671L108.449 19.1313L102.646 25.4904Z" fill="white"/>
<path d="M58.3608 47.8749C62.8525 44.9546 68.2617 43.7889 73.5575 44.5999C82.5333 45.9327 83.3094 50.5404 91.7325 48.6023C100.156 46.6641 103.614 37.0829 107.47 37.8102C111.326 38.5375 113.686 42.6658 113.686 42.6658L113.56 51.8244H58.3608V47.8749Z" fill="white"/>
<path d="M58.3608 48.6023C58.3608 48.6023 64.5817 44.8438 73.5575 45.9327C82.5333 47.0217 83.3094 50.7802 91.7325 49.1834C100.156 47.5865 103.614 39.8012 107.47 40.3945C111.326 40.9877 113.686 44.3521 113.686 44.3521L113.56 51.8245H58.3608V48.6023Z" fill="#3769A5"/>
<path opacity="0.49" d="M22.7543 127.917C23.7782 122.834 30.5477 121.729 33.1928 126.187C39.4462 136.723 53.1557 155.662 65.6991 166.6C83.3012 181.947 53.8668 197.022 37.0651 190.224C20.2635 183.426 21.0802 136.682 22.6933 128.169L22.7543 127.917Z" fill="url(#paint3_linear)"/>
<path d="M64.281 100.438C64.281 100.438 62.1965 99.5031 61.3148 98.5116C60.4331 97.5202 55.8213 91.4009 54.972 91.2262C54.5878 91.1363 54.188 91.1365 53.8038 91.2267C53.4197 91.317 53.0616 91.4948 52.7576 91.7463C52.2009 92.2379 61.3554 110.116 61.3554 110.116L69.5226 107.301L64.281 100.438Z" fill="url(#paint4_linear)"/>
<path d="M52.7577 91.7461C52.7577 91.7461 52.2945 91.7461 51.8638 92.6116C51.4331 93.4771 51.7256 97.4875 53.1274 100.454C54.5293 103.42 56.1058 108.987 56.4187 109.625C56.6527 109.99 56.9836 110.284 57.3746 110.472C57.7656 110.661 58.2013 110.738 58.6332 110.693C59.3971 110.539 60.7827 110.336 61.3596 110.136C61.9366 109.937 62.4567 109.031 60.3845 105.37C58.3122 101.709 57.1663 100.011 56.1505 97.0771C55.1347 94.1434 54.6959 92.5669 53.9686 92.1484C53.6072 91.9104 53.1896 91.7717 52.7577 91.7461Z" fill="url(#paint5_linear)"/>
<path d="M131.362 120.6C131.362 120.6 111.135 103.306 104.873 99.4705C98.6117 95.6348 64.8459 99.4705 64.468 99.4705C64.0901 99.4705 62.9524 101.831 62.9524 104.147C62.9524 106.463 66.1096 109.43 66.1096 109.43L95.7715 110.506L130.309 125.183L131.362 120.6Z" fill="url(#paint6_linear)"/>
<path d="M84.6136 100.673C79.5752 101.047 69.4088 102.705 62.9645 103.822C62.9645 103.936 62.9645 104.05 62.9645 104.163C62.9645 106.475 66.1216 109.446 66.1216 109.446L95.7836 110.522L130.321 125.199L131.386 120.624C131.386 120.624 121.984 112.587 114.015 106.252C103.358 103.582 89.2214 100.332 84.6136 100.673Z" fill="url(#paint7_linear)"/>
<path d="M69.5796 109.121C69.5796 109.121 67.7227 107.788 67.0604 106.638C66.3981 105.488 63.1027 98.5725 62.3063 98.2271C61.9477 98.0617 61.5557 97.9815 61.161 97.9927C60.7663 98.004 60.3795 98.1065 60.0309 98.2921C59.3889 98.6537 64.7646 118.031 64.7646 118.031L73.3341 116.91L69.5796 109.121Z" fill="url(#paint8_linear)"/>
<path d="M146.099 191.772L114.43 195.729H148.7V191.772H146.099Z" fill="url(#paint9_linear)"/>
<path d="M151.3 191.772L182.965 195.729H148.7V191.772H151.3Z" fill="url(#paint10_linear)"/>
<path d="M151.284 143.789H146.099V191.776H151.284V143.789Z" fill="url(#paint11_linear)"/>
<path d="M153.45 146.255H143.933V155.121H153.45V146.255Z" fill="url(#paint12_linear)"/>
<path d="M148.692 139.563H103.333V144.54H148.692V139.563Z" fill="url(#paint13_linear)"/>
<path d="M187.906 82.3845H141.845C140.724 82.3845 139.813 83.4775 139.813 84.8225V84.9241C139.721 90.9305 139.315 96.928 138.594 102.892C138.035 107.693 137.171 112.454 136.006 117.146C134.82 121.774 133.259 126.032 131.321 129.198C129.168 132.717 126.278 135.728 122.849 138.023C119.432 140.282 115.588 141.643 111.736 141.643C109.11 141.645 106.523 141.002 104.203 139.77C103.175 139.23 101.98 139.803 101.533 141.05C101.086 142.298 101.562 143.744 102.59 144.301C105.103 145.632 107.876 146.398 110.716 146.548L110.777 146.576H156.912L177.395 134.212L184.119 122.672L188.239 91.5675L187.906 82.3845Z" fill="url(#paint14_linear)"/>
<path d="M148.59 139.563H137.493V144.776H148.59V139.563Z" fill="url(#paint15_linear)"/>
<path d="M185.005 84.8346V84.924C184.913 90.9304 184.506 96.9279 183.786 102.892C183.227 107.693 182.362 112.454 181.198 117.146C180.011 121.774 178.451 126.032 176.513 129.197C174.36 132.717 171.469 135.728 168.041 138.023C164.624 140.282 160.78 141.643 156.928 141.643C154.301 141.645 151.714 141.001 149.394 139.77C148.366 139.23 147.172 139.803 146.725 141.05C146.278 142.297 146.753 143.744 147.781 144.301C150.597 145.796 153.736 146.579 156.924 146.58C161.568 146.58 166.05 144.955 169.983 142.358C173.95 139.702 177.291 136.215 179.776 132.139C182.181 128.186 183.9 123.285 185.192 118.145C187.126 110.425 188.081 102.169 188.573 95.7973C189.064 89.4261 189.076 84.9443 189.076 84.8915C189.076 83.5343 188.174 82.4291 187.045 82.4251C185.915 82.421 185.013 83.5181 185.013 84.863L185.005 84.8346Z" fill="url(#paint16_linear)"/>
<path d="M160.605 127.568C160.605 127.568 158.439 134.049 150.13 137.905C141.82 141.761 129.61 143.594 121.943 141.156C108.94 137.092 96.1777 113.562 96.1777 113.562L71.6314 117.751C70.1217 116.273 69.2473 114.264 69.1935 112.152V108.414C69.1935 108.414 94.7637 101.953 100.326 101.823C105.889 101.693 129.176 121.802 130.456 122.875C131.735 123.948 136.92 116.825 136.92 116.825L160.605 127.568Z" fill="url(#paint17_linear)"/>
<path d="M131.362 134.09C123.775 134.683 117.051 130.717 111.415 126.865C105.779 123.013 102.118 109.759 93.8088 109.564C87.4376 109.413 74.882 112.371 69.3682 113.761C69.7339 115.279 70.518 116.664 71.6314 117.759L96.1777 113.57C96.1777 113.57 108.961 137.084 121.943 141.164C129.61 143.573 141.825 141.757 150.13 137.913C158.435 134.069 160.605 127.588 160.605 127.588L144.86 120.457C141.841 125.703 136.441 133.708 131.362 134.09Z" fill="url(#paint18_linear)"/>
<path d="M160.345 45.2948C160.345 45.2948 160.894 44.6446 163.596 43.3159C166.298 41.9873 171.933 42.6333 172.128 42.8446C172.324 43.0559 173.725 48.4194 170.962 50.0894C168.199 51.7594 165.749 52.2836 164.319 51.9504C162.889 51.6172 160.751 51.2881 160.751 51.2881L160.345 45.2948Z" fill="url(#paint19_linear)"/>
<path d="M192.92 53.5758C192.92 53.5758 193.302 51.5442 190.434 48.773C187.565 46.0018 181.901 44.084 179.694 45.6971C177.488 47.3102 178.097 51.0769 178.114 51.3004C178.13 51.5238 185.285 54.0431 185.285 54.0431L181.994 54.4494C181.994 54.4494 186.114 56.9199 187.801 57.2937C189.487 57.6675 192.92 53.5758 192.92 53.5758Z" fill="url(#paint20_linear)"/>
<path d="M155.957 72.3929C155.957 72.3929 147.184 68.8619 144.811 63.3196C142.438 57.7773 162.202 52.1131 162.202 52.1131C162.202 52.1131 162.572 49.3947 162.86 47.355C163.149 45.3152 160.321 44.917 160.321 44.917C160.321 44.917 153.494 46.136 141.959 50.3943C133.3 53.584 133.019 54.4576 131.756 59.0409C130.492 63.6243 142.093 79.2314 146.733 89.0604C149.529 95.0009 155.957 72.3929 155.957 72.3929Z" fill="url(#paint21_linear)"/>
<path d="M169.199 74.4731C169.199 74.4731 178.171 75.1802 180.365 76.7486C182.559 78.317 184.144 82.2868 184.781 86.2363C185.419 90.1858 177.524 113.46 170.487 122.229C163.449 130.997 161.791 130.156 161.791 130.156C161.791 130.156 138.224 127.454 133.893 124.931C129.562 122.408 127.587 119.73 127.587 119.73C127.587 119.73 138.842 101.254 141.443 91.3439C144.043 81.4335 146.201 74.4406 150.666 73.0998C155.132 71.7589 160.292 71.7061 160.292 71.7061L169.199 74.4731Z" fill="url(#paint22_linear)"/>
<path d="M184.781 86.2323C184.585 85.01 184.299 83.804 183.924 82.6241L178.463 83.0061C178.463 83.0061 180.312 89.7796 179.312 92.4045C178.313 95.0293 172.583 100.214 166.029 101.344C159.475 102.473 167.777 105.11 168.467 107.39C169.158 109.669 154.685 114.375 145.904 111.859C141.978 110.762 138.167 109.285 134.527 107.451C131.024 114.143 127.619 119.754 127.619 119.754C127.619 119.754 129.574 122.432 133.925 124.955C138.277 127.479 161.824 130.181 161.824 130.181C161.824 130.181 163.482 131.03 170.519 122.253C177.557 113.477 185.419 90.1818 184.781 86.2323Z" fill="url(#paint23_linear)"/>
<path d="M161.645 71.8077C161.096 71.9673 160.627 72.3287 160.333 72.8195C160.031 73.3959 159.932 74.0574 160.053 74.6968C160.174 75.3362 160.507 75.916 160.999 76.3424C162.255 77.3826 166.801 78.2358 169.052 77.3744C171.304 76.513 170.958 74.8918 170.958 74.8918L161.645 71.8077Z" fill="white"/>
<path d="M162.803 64.7335L161.645 71.8117C161.645 71.8117 162.145 73.4371 164.896 74.5138C167.647 75.5906 170.97 74.8958 170.97 74.8958L173.612 68.2483L162.803 64.7335Z" fill="url(#paint24_linear)"/>
<path d="M168.26 39.6346C168.26 39.6346 164.059 48.7608 162.694 52.0114C161.328 55.262 165.058 57.639 165.058 57.639L173.38 53.7058L174.514 42.9056L168.26 39.6346Z" fill="url(#paint25_linear)"/>
<path d="M164.002 50.8371C162.783 54.6038 161.332 59.1669 161.381 63.6608C161.43 68.1548 168.788 71.9499 172.547 69.837C176.305 67.7241 179.101 63.1164 179.101 63.1164C179.101 63.1164 181.677 64.3354 183.12 62.6003C184.562 60.8653 185.558 57.8666 184.53 56.8102C183.502 55.7537 181.819 56.6598 181.819 56.6598C181.819 56.6598 183.733 53.0029 181.937 49.5653C180.141 46.1278 169.439 42.9625 168.691 43.2348C167.943 43.507 165.225 47.0705 164.002 50.8371Z" fill="url(#paint26_linear)"/>
<path d="M178.211 60.8327C178.211 60.8327 181.015 56.4688 181.462 54.1893C181.909 51.9098 181.283 50.0366 179.162 48.2366C177.041 46.4365 169.683 44.5796 168.281 43.5029C166.879 42.4261 166.249 41.3412 168.008 38.4359C169.768 35.5307 175.94 32.8855 182.035 35.9777C188.13 39.0698 190.068 43.0965 191.413 45.823C192.758 48.5494 189.454 53.3075 187.191 57.5008C184.928 61.6941 181.096 67.1105 178.971 68.7114C176.846 70.3123 174.156 68.7317 174.156 68.7317L179.191 62.6815C179.191 62.6815 180.068 63.5551 181.84 62.5881C183.611 61.621 185.09 59.2602 184.843 57.765C184.595 56.2697 182.535 55.8064 181.304 57.1392C180.072 58.472 178.211 60.8327 178.211 60.8327Z" fill="url(#paint27_linear)"/>
<path d="M166.944 53.4987C166.944 53.4987 164.303 57.8951 164.006 59.1263C163.709 60.3575 167.078 60.6663 167.078 60.6663" stroke="#EB6057" stroke-linecap="round" stroke-linejoin="round"/>
<path d="M184.184 45.4168C181.36 42.861 170.207 41.9955 169.317 40.0614C169.04 39.46 169.085 38.3182 169.28 37.0261C168.787 37.4325 168.361 37.9154 168.021 38.4564C166.277 41.3616 166.895 42.4628 168.293 43.5233C169.691 44.5838 177.049 46.457 179.174 48.257C181.299 50.0571 181.937 51.914 181.474 54.2097C181.011 56.5055 178.223 60.8532 178.223 60.8532C178.223 60.8532 187.008 47.9726 184.184 45.4168Z" fill="url(#paint28_linear)"/>
<path d="M181.324 58.6996C181.324 58.6996 182.449 58.4395 182.441 59.3619C182.433 60.2843 182.1 61.0482 180.889 61.1538C180.697 61.1643 180.507 61.1033 180.357 60.9825C180.207 60.8617 180.107 60.6897 180.076 60.4996" stroke="#EB6057" stroke-linecap="round" stroke-linejoin="round"/>
<path d="M169.934 51.7676C169.934 51.7676 170.394 54.8922 172.108 55.3229C173.061 55.5949 174.078 55.5303 174.989 55.1401" stroke="#EB6057" stroke-linecap="round" stroke-linejoin="round"/>
<path d="M167.846 50.8615C167.846 50.8615 166.684 51.922 165.66 51.6741C164.636 51.4263 165.327 49.7522 165.327 49.7522" stroke="#EB6057" stroke-linecap="round" stroke-linejoin="round"/>
<path d="M178.943 76.3707C178.943 76.3707 199.523 73.8637 202.392 71.4663C205.261 69.069 187.557 57.6309 187.557 57.6309C187.557 57.6309 190.214 53.0475 191.876 52.7834L193.538 52.5193C193.538 52.5193 214.419 64.2053 216.431 69.8695C218.442 75.5337 206.638 83.6846 199.95 86.4314C193.262 89.1782 184.509 92.8067 180.576 91.6039C176.643 90.4012 175.525 84.7329 176.724 80.885C177.923 77.0371 178.943 76.3707 178.943 76.3707Z" fill="url(#paint29_linear)"/>
<path d="M83.5694 195.721H88.4941L69.2301 123.83H64.3054L83.5694 195.721Z" fill="url(#paint30_linear)"/>
<path d="M44.8911 195.721H39.9664L59.2304 123.83H64.1551L44.8911 195.721Z" fill="url(#paint31_linear)"/>
<path d="M197.601 195.721H202.53L183.266 123.83H178.337L197.601 195.721Z" fill="url(#paint32_linear)"/>
<path d="M158.927 195.721H153.998L173.262 123.83H178.191L158.927 195.721Z" fill="url(#paint33_linear)"/>
<path d="M58.8443 195.721H63.7731L44.5091 123.83H39.5803L58.8443 195.721Z" fill="url(#paint34_linear)"/>
<path d="M20.1701 195.721H15.2413L34.5053 123.83H39.4341L20.1701 195.721Z" fill="url(#paint35_linear)"/>
<path d="M41.7062 67.906L41.7958 67.4102C41.8492 67.1143 41.6527 66.8311 41.3568 66.7776L11.9314 61.462C11.6355 61.4085 11.3523 61.6051 11.2988 61.901L11.2092 62.3968C11.1558 62.6927 11.3523 62.9759 11.6482 63.0294L41.0736 68.345C41.3695 68.3985 41.6528 68.2019 41.7062 67.906Z" fill="#223762"/>
<path opacity="0.48" d="M52.8922 84.1804C55.0156 82.8272 55.6398 80.0089 54.2866 77.8856C52.9334 75.7623 50.1151 75.138 47.9918 76.4912C45.8685 77.8444 45.2442 80.6627 46.5974 82.786C47.9507 84.9093 50.7689 85.5336 52.8922 84.1804Z" fill="#EF8C48"/>
<path d="M42.2782 64.7451L42.3678 64.2493C42.4213 63.9534 42.2247 63.6702 41.9288 63.6167L12.5034 58.3011C12.2075 58.2476 11.9243 58.4442 11.8708 58.7401L11.7812 59.2359C11.7278 59.5318 11.9243 59.815 12.2203 59.8685L41.6456 65.1841C41.9416 65.2376 42.2248 65.041 42.2782 64.7451Z" fill="#223762"/>
<path d="M15.0778 59.6993L14.5827 59.7925C14.2872 59.8481 14.0927 60.1328 14.1483 60.4283L25.495 120.709C25.5506 121.004 25.8353 121.199 26.1308 121.143L26.6259 121.05C26.9214 120.994 27.1159 120.71 27.0603 120.414L15.7136 60.1336C15.658 59.8381 15.3734 59.6436 15.0778 59.6993Z" fill="#223762"/>
<path d="M49.5448 81.7049L52.053 80.1063C52.615 79.7481 52.7803 79.0021 52.4221 78.4401L42.0272 62.1297C41.669 61.5677 40.923 61.4024 40.3609 61.7606L37.8527 63.3592C37.2906 63.7174 37.1254 64.4634 37.4836 65.0254L47.8785 81.3358C48.2367 81.8978 48.9827 82.0631 49.5448 81.7049Z" fill="url(#paint36_linear)"/>
<path d="M52.1866 83.0736C53.6987 82.1099 54.1432 80.1029 53.1796 78.5909C52.2159 77.0788 50.209 76.6343 48.6969 77.5979C47.1849 78.5616 46.7403 80.5685 47.704 82.0806C48.6676 83.5926 50.6746 84.0372 52.1866 83.0736Z" fill="url(#paint37_linear)"/>
<path d="M44.0094 70.2474C48.479 67.4031 55.3866 70.1498 59.3686 76.4154L43.1155 86.7727C39.1213 80.5071 39.5236 73.1079 44.0094 70.2474Z" fill="url(#paint38_linear)"/>
<path d="M59.3686 76.4155L55.0006 79.1988C52.0791 74.6155 48.2759 71.3039 44.7164 69.8533C49.1942 67.6795 55.5816 70.4669 59.3686 76.4155Z" fill="#223762"/>
<path d="M11.9183 60.2933L11.4231 60.3865C11.1276 60.4421 10.9332 60.7267 10.9888 61.0223L22.3353 121.303C22.3909 121.598 22.6756 121.793 22.9711 121.737L23.4663 121.644C23.7618 121.588 23.9563 121.304 23.9006 121.008L12.5541 60.7276C12.4985 60.4321 12.2138 60.2376 11.9183 60.2933Z" fill="#223762"/>
<path d="M14.5383 64.8555C16.6859 64.8555 18.4269 63.1145 18.4269 60.9669C18.4269 58.8193 16.6859 57.0784 14.5383 57.0784C12.3907 57.0784 10.6498 58.8193 10.6498 60.9669C10.6498 63.1145 12.3907 64.8555 14.5383 64.8555Z" fill="#223762"/>
<path d="M13.8151 64.8555C15.9627 64.8555 17.7036 63.1145 17.7036 60.9669C17.7036 58.8193 15.9627 57.0784 13.8151 57.0784C11.6675 57.0784 9.92651 58.8193 9.92651 60.9669C9.92651 63.1145 11.6675 64.8555 13.8151 64.8555Z" fill="#4C93F4"/>
<path d="M13.8152 62.9134C14.8901 62.9134 15.7615 62.042 15.7615 60.9671C15.7615 59.8921 14.8901 59.0208 13.8152 59.0208C12.7403 59.0208 11.8689 59.8921 11.8689 60.9671C11.8689 62.042 12.7403 62.9134 13.8152 62.9134Z" fill="#223762"/>
<path d="M15.2412 123.83L203.091 123.83V118.032L15.2412 118.032V123.83Z" fill="url(#paint39_linear)"/>
<path d="M168.524 123.83H203.091V118.032H168.524V123.83Z" fill="#3769A5"/>
<path d="M15.2412 123.83L203.091 123.83V121.944L15.2412 121.944V123.83Z" fill="#83A4D6"/>
<path d="M168.691 123.83H203.091V121.944H168.691V123.83Z" fill="#223762"/>
<path d="M173.66 195.721H178.585L159.325 123.83H154.396L173.66 195.721Z" fill="url(#paint40_linear)"/>
<path d="M134.986 195.721H130.057L149.321 123.83H154.25L134.986 195.721Z" fill="url(#paint41_linear)"/>
<path d="M0 200H243.797L227.064 195.721H15.4323L0 200Z" fill="url(#paint42_linear)"/>
<path d="M60.035 98.2922C60.035 98.2922 59.5758 98.219 58.9826 98.9585C58.3894 99.698 57.8693 103.704 58.6494 106.894C59.4296 110.084 59.8684 115.833 60.035 116.536C60.1908 116.941 60.456 117.295 60.8011 117.559C61.1462 117.822 61.5575 117.984 61.9894 118.027C62.7696 118.027 64.1673 118.105 64.7728 118.027C65.3782 117.95 66.069 117.166 64.7728 113.152C63.4766 109.137 62.6964 107.256 62.286 104.176C61.8757 101.096 61.7659 99.4664 61.1361 98.8935C60.8271 98.6015 60.4477 98.3943 60.035 98.2922Z" fill="url(#paint43_linear)"/>
<path d="M33.2499 118.044H51.3721L46.3052 93.7698H28.183L33.2499 118.044Z" fill="#223762"/>
<path d="M31.6611 118.044H50.1124L44.9521 93.7698H26.5007L31.6611 118.044Z" fill="url(#paint44_linear)"/>
<path d="M35.8827 101.311L29.7472 118.044H39.4422L36.8539 101.311H35.8827Z" fill="#223762"/>
<path d="M36.8539 101.311L30.7224 118.044H40.4133L36.8539 101.311Z" fill="#4C93F4"/>
<path d="M203.672 124.699C200.092 138.271 201.729 151.614 207.17 161.358C216.711 155.564 224.715 144.764 228.299 131.192C231.883 117.621 230.241 104.277 224.801 94.5336C215.256 100.328 207.251 111.128 203.672 124.699Z" fill="url(#paint45_linear)"/>
<path d="M217.913 124.155C215.67 130.462 213.815 136.901 212.359 143.435C209.771 154.812 210.425 168.335 210.425 168.335" stroke="#112244" stroke-linecap="round" stroke-linejoin="round"/>
<path d="M202.831 120.25C202.831 120.25 204.383 133.277 206.301 143.354C208.218 153.431 209.515 166.697 209.515 166.697" stroke="#112244" stroke-linecap="round" stroke-linejoin="round"/>
<path d="M199.718 142.155C199.718 142.155 202.83 150.656 205.106 156.161C207.381 161.667 209.515 167.335 209.515 167.335" stroke="#112244" stroke-linecap="round" stroke-linejoin="round"/>
<path d="M212.794 72.5147C211.169 84.4038 212.578 95.3747 216.089 102.786C221.457 96.5855 225.76 86.3989 227.385 74.5057C229.01 62.6125 227.6 51.6457 224.09 44.2343C218.722 50.4348 214.419 60.6214 212.794 72.5147Z" fill="url(#paint46_linear)"/>
<path d="M201.766 91.5836C202.254 80.6981 202.985 61.0481 203.391 49.5938C195.838 58.9393 190.99 73.2705 190.99 89.357C190.99 105.257 195.728 119.425 203.131 128.771C202.314 117.804 201.319 101.494 201.766 91.5836Z" fill="url(#paint47_linear)"/>
<path d="M216.439 89.3572C216.439 73.0391 211.457 58.5251 203.716 49.1836C203.607 49.3177 203.505 49.4599 203.395 49.5899C202.989 61.0443 202.254 80.6943 201.77 91.5798C201.327 101.49 202.319 117.8 203.139 128.783C203.335 129.027 203.521 129.287 203.721 129.527C211.457 120.189 216.439 105.671 216.439 89.3572Z" fill="url(#paint48_linear)"/>
<path d="M216.52 100.499C213.586 110.283 213.964 119.88 216.926 126.869C223.245 122.66 228.84 114.854 231.773 105.07C234.707 95.2854 234.329 85.6879 231.367 78.6991C225.049 82.8924 219.454 90.7183 216.52 100.499Z" fill="url(#paint49_linear)"/>
<path d="M223.59 195.721H195.586L191.429 159.428H227.751L223.59 195.721Z" fill="url(#paint50_linear)"/>
<path d="M191.429 159.428L195.586 195.721H206.301L203.201 159.428H191.429Z" fill="url(#paint51_linear)"/>
<path d="M229.165 158.392H190.007V167.335H229.165V158.392Z" fill="#FFD46A"/>
<path d="M204.273 96.7278C205.07 96.7278 205.715 95.5763 205.715 94.1558C205.715 92.7353 205.07 91.5837 204.273 91.5837C203.476 91.5837 202.831 92.7353 202.831 94.1558C202.831 95.5763 203.476 96.7278 204.273 96.7278Z" fill="url(#paint52_linear)"/>
<path d="M208.626 98.0193C209.63 97.0149 209.988 95.744 209.425 95.1806C208.861 94.6173 207.59 94.9749 206.586 95.9794C205.582 96.9838 205.224 98.2548 205.787 98.8181C206.351 99.3814 207.622 99.0238 208.626 98.0193Z" fill="url(#paint53_linear)"/>
<path d="M208.536 112.058C209.915 110.679 210.407 108.935 209.634 108.162C208.861 107.389 207.117 107.88 205.738 109.259C204.359 110.638 203.867 112.383 204.64 113.155C205.413 113.928 207.157 113.437 208.536 112.058Z" fill="url(#paint54_linear)"/>
<path d="M208.115 118.532C208.938 116.764 208.802 114.957 207.812 114.495C206.821 114.034 205.35 115.093 204.527 116.861C203.704 118.629 203.84 120.436 204.83 120.897C205.821 121.359 207.292 120.3 208.115 118.532Z" fill="url(#paint55_linear)"/>
<path d="M182.636 125.292C187.106 136.568 194.521 145.235 202.428 149.566C191.478 137.198 180.409 94.0499 180.409 94.0499C177.634 102.623 178.171 114.017 182.636 125.292Z" fill="url(#paint56_linear)"/>
<path d="M200.218 118.324C195.748 107.048 188.333 98.3814 180.426 94.0499C180.426 94.0499 191.482 137.198 202.428 149.566C205.22 140.997 204.683 129.6 200.218 118.324Z" fill="url(#paint57_linear)"/>
<path d="M200.218 118.324C195.748 107.048 188.333 98.3814 180.426 94.0499C180.426 94.0499 191.482 137.198 202.428 149.566C205.22 140.997 204.683 129.6 200.218 118.324Z" fill="url(#paint58_linear)"/>
<path d="M193.318 128.377C193.885 128.139 194.002 127.128 193.579 126.118C193.156 125.108 192.353 124.482 191.786 124.719C191.219 124.957 191.102 125.968 191.525 126.978C191.948 127.988 192.751 128.615 193.318 128.377Z" fill="url(#paint59_linear)"/>
<path d="M200.483 129.525C201.05 129.287 201.167 128.276 200.744 127.266C200.321 126.256 199.518 125.629 198.951 125.867C198.384 126.105 198.267 127.116 198.69 128.126C199.113 129.136 199.916 129.762 200.483 129.525Z" fill="url(#paint60_linear)"/>
<path d="M197.591 127.233C198.007 126.215 197.881 125.2 197.309 124.966C196.737 124.732 195.936 125.369 195.52 126.387C195.104 127.405 195.23 128.42 195.802 128.654C196.374 128.888 197.175 128.252 197.591 127.233Z" fill="url(#paint61_linear)"/>
<path d="M197.38 131.833C197.795 130.82 197.67 129.809 197.101 129.576C196.532 129.343 195.735 129.976 195.32 130.989C194.905 132.003 195.03 133.013 195.599 133.246C196.168 133.479 196.965 132.847 197.38 131.833Z" fill="url(#paint62_linear)"/>
<path d="M200.919 138.01C201.489 136.619 201.318 135.232 200.537 134.912C199.756 134.592 198.661 135.461 198.091 136.852C197.522 138.244 197.693 139.631 198.474 139.951C199.254 140.27 200.349 139.402 200.919 138.01Z" fill="url(#paint63_linear)"/>
<path d="M202.549 142.741C202.607 141.238 201.972 139.993 201.128 139.961C200.285 139.928 199.554 141.119 199.495 142.621C199.437 144.123 200.073 145.368 200.916 145.401C201.759 145.434 202.49 144.243 202.549 142.741Z" fill="url(#paint64_linear)"/>
<path d="M103.309 144.54H143.747L145.096 139.563H103.309V144.54Z" fill="url(#paint65_linear)"/>
<path d="M100.879 72.21H89.7984C89.3964 72.21 89.0109 72.3697 88.7267 72.6539C88.4425 72.9382 88.2828 73.3237 88.2828 73.7256V80.5479C88.2807 80.7483 88.3183 80.9471 88.3935 81.1329C88.4687 81.3186 88.58 81.4876 88.7209 81.6301C88.8619 81.7726 89.0297 81.8856 89.2146 81.9628C89.3996 82.04 89.598 82.0797 89.7984 82.0797H92.2364L94.5199 85.2003H95.357L98.4776 82.0797H100.916C101.317 82.0797 101.703 81.9201 101.987 81.6358C102.271 81.3516 102.431 80.9661 102.431 80.5641V73.7297C102.432 73.5272 102.392 73.3267 102.314 73.1399C102.235 72.9531 102.121 72.7839 101.976 72.6422C101.831 72.5006 101.66 72.3893 101.471 72.3151C101.283 72.2409 101.081 72.2051 100.879 72.21Z" fill="url(#paint66_linear)"/>
<path d="M100.038 72.2099H88.9613C88.5593 72.2099 88.1738 72.3696 87.8896 72.6538C87.6054 72.938 87.4457 73.3235 87.4457 73.7255V80.5477C87.4457 80.9497 87.6054 81.3352 87.8896 81.6194C88.1738 81.9037 88.5593 82.0633 88.9613 82.0633H91.3992L94.5198 85.1839L97.6404 82.0633H100.078C100.48 82.0633 100.866 81.9037 101.15 81.6194C101.434 81.3352 101.594 80.9497 101.594 80.5477V73.7296C101.595 73.5267 101.555 73.3258 101.476 73.1388C101.398 72.9517 101.282 72.7823 101.137 72.6406C100.992 72.4989 100.82 72.3877 100.631 72.3138C100.442 72.2398 100.241 72.2045 100.038 72.2099Z" fill="url(#paint67_linear)"/>
<path d="M84.0245 51.4832H72.948C72.546 51.4832 72.1605 51.6429 71.8763 51.9271C71.592 52.2114 71.4324 52.5968 71.4324 52.9988V59.8211C71.4324 60.223 71.592 60.6085 71.8763 60.8927C72.1605 61.177 72.546 61.3367 72.948 61.3367H75.3859L77.6695 64.4573H78.5065L81.6271 61.3367H84.0651C84.4671 61.3367 84.8526 61.177 85.1368 60.8927C85.421 60.6085 85.5807 60.223 85.5807 59.8211V52.9988C85.5808 52.7963 85.5403 52.5959 85.4616 52.4093C85.3829 52.2227 85.2676 52.0538 85.1225 51.9125C84.9775 51.7712 84.8055 51.6604 84.6169 51.5867C84.4284 51.513 84.2269 51.4778 84.0245 51.4832Z" fill="url(#paint68_linear)"/>
<path d="M83.1873 51.4832H72.1108C71.7089 51.4832 71.3234 51.6429 71.0391 51.9271C70.7549 52.2114 70.5952 52.5968 70.5952 52.9988V59.8211C70.5952 60.223 70.7549 60.6085 71.0391 60.8927C71.3234 61.177 71.7089 61.3367 72.1108 61.3367H74.5488L77.6694 64.4573L80.79 61.3367H83.2279C83.6299 61.3367 84.0154 61.177 84.2996 60.8927C84.5839 60.6085 84.7435 60.223 84.7435 59.8211V52.9988C84.7436 52.7963 84.7031 52.5959 84.6244 52.4093C84.5457 52.2227 84.4304 52.0538 84.2854 51.9125C84.1403 51.7712 83.9684 51.6604 83.7798 51.5867C83.5912 51.513 83.3897 51.4778 83.1873 51.4832Z" fill="url(#paint69_linear)"/>
<path d="M120.033 59.2319H108.953C108.551 59.2319 108.165 59.3916 107.881 59.6758C107.597 59.96 107.437 60.3455 107.437 60.7475V67.5738C107.437 67.9758 107.597 68.3613 107.881 68.6455C108.165 68.9297 108.551 69.0894 108.953 69.0894H111.391L113.674 72.21H114.511L117.632 69.0894H120.07C120.472 69.0894 120.857 68.9297 121.142 68.6455C121.426 68.3613 121.585 67.9758 121.585 67.5738V60.7475C121.586 60.5453 121.545 60.3452 121.467 60.1589C121.388 59.9726 121.273 59.8039 121.129 59.6627C120.984 59.5214 120.813 59.4106 120.625 59.3366C120.436 59.2626 120.235 59.227 120.033 59.2319Z" fill="url(#paint70_linear)"/>
<path d="M119.196 59.2319H108.116C107.917 59.2319 107.72 59.2711 107.536 59.3473C107.352 59.4234 107.185 59.5351 107.044 59.6758C106.903 59.8165 106.792 59.9836 106.715 60.1675C106.639 60.3514 106.6 60.5485 106.6 60.7475V67.5738C106.6 67.7728 106.639 67.9699 106.715 68.1538C106.792 68.3377 106.903 68.5047 107.044 68.6455C107.185 68.7862 107.352 68.8979 107.536 68.974C107.72 69.0502 107.917 69.0894 108.116 69.0894H110.554L113.674 72.21L116.795 69.0894H119.233C119.635 69.0894 120.02 68.9297 120.305 68.6455C120.589 68.3613 120.748 67.9758 120.748 67.5738V60.7475C120.748 60.5453 120.708 60.3452 120.63 60.1589C120.551 59.9726 120.436 59.8039 120.292 59.6627C120.147 59.5214 119.976 59.4106 119.787 59.3366C119.599 59.2626 119.398 59.227 119.196 59.2319Z" fill="url(#paint71_linear)"/>
<path d="M102.748 118.06C102.748 118.06 88.9045 118.214 83.285 117.747C77.6655 117.28 75.4632 113.814 74.9431 112.262C74.6407 111.41 74.4654 110.519 74.423 109.617H56.7721C56.8146 110.519 56.9898 111.41 57.2922 112.262C57.8123 113.814 60.0146 117.28 65.6341 117.747C71.2536 118.214 85.0972 118.06 85.0972 118.06H102.748Z" fill="url(#paint72_linear)"/>
<path d="M134.381 115.911H116.693C116.568 115.911 116.466 116.012 116.466 116.138V117.804C116.466 117.93 116.568 118.032 116.693 118.032H134.381C134.506 118.032 134.608 117.93 134.608 117.804V116.138C134.608 116.012 134.506 115.911 134.381 115.911Z" fill="#223762"/>
<path d="M85.3775 118.032H119.359C120.021 118.032 120.415 117.382 120.24 116.581L114.483 90.121C114.308 89.3083 113.629 88.6704 112.971 88.6704H78.99C78.3277 88.6704 77.9336 89.3205 78.1083 90.121L83.866 116.581C84.0407 117.382 84.7193 118.032 85.3775 118.032Z" fill="#223762"/>
<path d="M83.7034 118.032H117.685C118.347 118.032 118.741 117.382 118.566 116.581L112.809 90.121C112.634 89.3083 111.955 88.6704 111.297 88.6704H77.324C76.6617 88.6704 76.2676 89.3205 76.4423 90.121L82.2 116.581C82.3706 117.382 83.0492 118.032 83.7034 118.032Z" fill="url(#paint73_linear)"/>
<path d="M95.8447 100.58C95.6608 100.143 95.5245 99.6883 95.4383 99.2226C95.0524 99.2117 94.6746 99.3352 94.3697 99.572C93.1507 100.498 92.915 102.936 93.8252 105.017C94.7354 107.097 96.4582 108.032 97.6691 107.101C98.6239 106.37 98.9653 104.704 98.628 103.014C97.6041 102.993 96.507 102.095 95.8447 100.58Z" fill="#D6E3FA"/>
<path d="M129.094 100.974V95.5575L134.052 91.6852L134.718 92.6766L130.334 96.102V100.974H129.094Z" fill="url(#paint74_linear)"/>
<path d="M133.832 118.34H125.966L124.511 101.307H135.291L133.832 118.34Z" fill="url(#paint75_linear)"/>
<path d="M135.275 100.283H124.605L124.048 102.091H135.754L135.275 100.283Z" fill="url(#paint76_linear)"/>
<path d="M139.07 109.316L137.526 110.616L136.274 109.966L135.998 112.034L141.593 115.894L146.201 113.729L147.542 113.334V110.657L139.07 109.316Z" fill="url(#paint77_linear)"/>
<path d="M137.221 118.158L135.291 111.246H149.354L148.529 118.158H137.221Z" fill="url(#paint78_linear)"/>
<path d="M148.529 118.158H156.054L158.061 111.246H149.354L148.529 118.158Z" fill="url(#paint79_linear)"/>
<path d="M140.541 103.765L137.526 110.275L151.41 112.53L151.702 105.577L140.541 103.765Z" fill="url(#paint80_linear)"/>
<path d="M151.702 105.578L159.13 106.784L160.008 113.924L151.41 112.53L151.702 105.578Z" fill="url(#paint81_linear)"/>
<defs>
<linearGradient id="paint0_linear" x1="47.4001" y1="2.8079" x2="227.361" y2="150.938" gradientUnits="userSpaceOnUse">
<stop stop-color="#EAF1FC"/>
<stop offset="1" stop-color="#C0D4F4"/>
</linearGradient>
<linearGradient id="paint1_linear" x1="99.4447" y1="12.9187" x2="78.8682" y2="41.004" gradientUnits="userSpaceOnUse">
<stop stop-color="#4C93F4"/>
<stop offset="1" stop-color="#0B63DA"/>
</linearGradient>
<linearGradient id="paint2_linear" x1="14550.1" y1="1265.76" x2="12732.6" y2="3856.35" gradientUnits="userSpaceOnUse">
<stop stop-color="#4C93F4"/>
<stop offset="1" stop-color="#0B63DA"/>
</linearGradient>
<linearGradient id="paint3_linear" x1="41383.6" y1="2155.23" x2="-2927.65" y2="1660.63" gradientUnits="userSpaceOnUse">
<stop stop-color="#EAF1FC"/>
<stop offset="1" stop-color="#C0D4F4"/>
</linearGradient>
<linearGradient id="paint4_linear" x1="38.6862" y1="94.0004" x2="73.2469" y2="106.056" gradientUnits="userSpaceOnUse">
<stop stop-color="#223762"/>
<stop offset="1" stop-color="#041B48"/>
</linearGradient>
<linearGradient id="paint5_linear" x1="41.0378" y1="96.2953" x2="65.7823" y2="104.925" gradientUnits="userSpaceOnUse">
<stop stop-color="#3769A5"/>
<stop offset="1" stop-color="#08448B"/>
</linearGradient>
<linearGradient id="paint6_linear" x1="13547.8" y1="7721.66" x2="17631.6" y2="7181.65" gradientUnits="userSpaceOnUse">
<stop stop-color="#3769A5"/>
<stop offset="1" stop-color="#08448B"/>
</linearGradient>
<linearGradient id="paint7_linear" x1="13562.5" y1="7011.43" x2="17629.5" y2="6412.52" gradientUnits="userSpaceOnUse">
<stop stop-color="#223762"/>
<stop offset="1" stop-color="#041B48"/>
</linearGradient>
<linearGradient id="paint8_linear" x1="1569.25" y1="4913.35" x2="2778.8" y2="5393.26" gradientUnits="userSpaceOnUse">
<stop stop-color="#223762"/>
<stop offset="1" stop-color="#041B48"/>
</linearGradient>
<linearGradient id="paint9_linear" x1="11691.8" y1="2098.21" x2="11757.3" y2="2295.17" gradientUnits="userSpaceOnUse">
<stop stop-color="#223762"/>
<stop offset="1" stop-color="#041B48"/>
</linearGradient>
<linearGradient id="paint10_linear" x1="152724" y1="2098.21" x2="152659" y2="2295.17" gradientUnits="userSpaceOnUse">
<stop stop-color="#223762"/>
<stop offset="1" stop-color="#041B48"/>
</linearGradient>
<linearGradient id="paint11_linear" x1="1881.9" y1="21292.3" x2="2225.74" y2="21259.1" gradientUnits="userSpaceOnUse">
<stop stop-color="#223762"/>
<stop offset="1" stop-color="#041B48"/>
</linearGradient>
<linearGradient id="paint12_linear" x1="3518.66" y1="3523.7" x2="3639.29" y2="3408.2" gradientUnits="userSpaceOnUse">
<stop stop-color="#223762"/>
<stop offset="1" stop-color="#041B48"/>
</linearGradient>
<linearGradient id="paint13_linear" x1="14779.5" y1="2114.89" x2="14776.2" y2="2010.47" gradientUnits="userSpaceOnUse">
<stop stop-color="#223762"/>
<stop offset="1" stop-color="#041B48"/>
</linearGradient>
<linearGradient id="paint14_linear" x1="33217.9" y1="23544.4" x2="33091.2" y2="22939.9" gradientUnits="userSpaceOnUse">
<stop stop-color="#223762"/>
<stop offset="1" stop-color="#041B48"/>
</linearGradient>
<linearGradient id="paint15_linear" x1="4113.7" y1="2078.87" x2="4106.99" y2="2028.55" gradientUnits="userSpaceOnUse">
<stop stop-color="#223762"/>
<stop offset="1" stop-color="#041B48"/>
</linearGradient>
<linearGradient id="paint16_linear" x1="14619.4" y1="27844.3" x2="15276.4" y2="27157" gradientUnits="userSpaceOnUse">
<stop stop-color="#3769A5"/>
<stop offset="1" stop-color="#08448B"/>
</linearGradient>
<linearGradient id="paint17_linear" x1="20797.7" y1="12371.4" x2="28141.5" y2="11492.9" gradientUnits="userSpaceOnUse">
<stop stop-color="#4C93F4"/>
<stop offset="1" stop-color="#0B63DA"/>
</linearGradient>
<linearGradient id="paint18_linear" x1="26427.7" y1="10293.6" x2="30194.4" y2="11389.9" gradientUnits="userSpaceOnUse">
<stop stop-color="#3769A5"/>
<stop offset="1" stop-color="#08448B"/>
</linearGradient>
<linearGradient id="paint19_linear" x1="169.316" y1="50.114" x2="165.128" y2="45.7371" gradientUnits="userSpaceOnUse">
<stop stop-color="#F8A695"/>
<stop offset="1" stop-color="#E56045"/>
</linearGradient>
<linearGradient id="paint20_linear" x1="7332.06" y1="304.945" x2="7144.23" y2="100.227" gradientUnits="userSpaceOnUse">
<stop stop-color="#F8A695"/>
<stop offset="1" stop-color="#E56045"/>
</linearGradient>
<linearGradient id="paint21_linear" x1="133.657" y1="52.365" x2="156.404" y2="68.9838" gradientUnits="userSpaceOnUse">
<stop stop-color="#FFC063"/>
<stop offset="0.95" stop-color="#E44D0B"/>
</linearGradient>
<linearGradient id="paint22_linear" x1="174.961" y1="79.8516" x2="154.714" y2="112.074" gradientUnits="userSpaceOnUse">
<stop stop-color="#FFC063"/>
<stop offset="1" stop-color="#E58F0F"/>
</linearGradient>
<linearGradient id="paint23_linear" x1="18510.7" y1="7237.39" x2="24753.4" y2="13198.4" gradientUnits="userSpaceOnUse">
<stop stop-color="#FFC063"/>
<stop offset="0.95" stop-color="#E44D0B"/>
</linearGradient>
<linearGradient id="paint24_linear" x1="6124.91" y1="-804.28" x2="6173.17" y2="-937.697" gradientUnits="userSpaceOnUse">
<stop stop-color="#F8A695"/>
<stop offset="1" stop-color="#E56045"/>
</linearGradient>
<linearGradient id="paint25_linear" x1="7027.14" y1="-3137.02" x2="6947.02" y2="-3068.99" gradientUnits="userSpaceOnUse">
<stop stop-color="#223762"/>
<stop offset="1" stop-color="#041B48"/>
</linearGradient>
<linearGradient id="paint26_linear" x1="12761.2" y1="-4299.16" x2="13796.4" y2="-5632.57" gradientUnits="userSpaceOnUse">
<stop stop-color="#F8A695"/>
<stop offset="1" stop-color="#E56045"/>
</linearGradient>
<linearGradient id="paint27_linear" x1="14475.9" y1="-6022.62" x2="14108.8" y2="-3953.26" gradientUnits="userSpaceOnUse">
<stop stop-color="#223762"/>
<stop offset="1" stop-color="#041B48"/>
</linearGradient>
<linearGradient id="paint28_linear" x1="11051.7" y1="-5886.04" x2="10713.7" y2="-6360.3" gradientUnits="userSpaceOnUse">
<stop stop-color="#223762"/>
<stop offset="1" stop-color="#041B48"/>
</linearGradient>
<linearGradient id="paint29_linear" x1="19109.7" y1="5653.62" x2="16766.2" y2="9060.86" gradientUnits="userSpaceOnUse">
<stop stop-color="#FFC063"/>
<stop offset="1" stop-color="#E58F0F"/>
</linearGradient>
<linearGradient id="paint30_linear" x1="105435" y1="31070.3" x2="105435" y2="19563.3" gradientUnits="userSpaceOnUse">
<stop stop-color="#3769A5"/>
<stop offset="1" stop-color="#08448B"/>
</linearGradient>
<linearGradient id="paint31_linear" x1="104010" y1="31070.3" x2="104010" y2="19563.3" gradientUnits="userSpaceOnUse">
<stop stop-color="#3769A5"/>
<stop offset="1" stop-color="#08448B"/>
</linearGradient>
<linearGradient id="paint32_linear" x1="112129" y1="25212.5" x2="112129" y2="21698.5" gradientUnits="userSpaceOnUse">
<stop stop-color="#3769A5"/>
<stop offset="1" stop-color="#08448B"/>
</linearGradient>
<linearGradient id="paint33_linear" x1="110704" y1="25212.5" x2="110704" y2="21698.5" gradientUnits="userSpaceOnUse">
<stop stop-color="#3769A5"/>
<stop offset="1" stop-color="#08448B"/>
</linearGradient>
<linearGradient id="paint34_linear" x1="51.6767" y1="171.24" x2="51.6767" y2="123.107" gradientUnits="userSpaceOnUse">
<stop stop-color="#A7BDE5"/>
<stop offset="1" stop-color="#2F66CB"/>
</linearGradient>
<linearGradient id="paint35_linear" x1="-104306" y1="30421.1" x2="-104306" y2="21904.8" gradientUnits="userSpaceOnUse">
<stop stop-color="#A7BDE5"/>
<stop offset="1" stop-color="#2F66CB"/>
</linearGradient>
<linearGradient id="paint36_linear" x1="-8654.58" y1="4582.96" x2="-8922.03" y2="4499.87" gradientUnits="userSpaceOnUse">
<stop stop-color="#4C93F4"/>
<stop offset="1" stop-color="#0B63DA"/>
</linearGradient>
<linearGradient id="paint37_linear" x1="15109.6" y1="1501.78" x2="15083.2" y2="1466.99" gradientUnits="userSpaceOnUse">
<stop stop-color="#FFC063"/>
<stop offset="0.95" stop-color="#E44D0B"/>
</linearGradient>
<linearGradient id="paint38_linear" x1="-32624.7" y1="3766.77" x2="-32989.2" y2="3274.53" gradientUnits="userSpaceOnUse">
<stop stop-color="#4C93F4"/>
<stop offset="1" stop-color="#0B63DA"/>
</linearGradient>
<linearGradient id="paint39_linear" x1="824613" y1="1805.91" x2="845700" y2="40709.5" gradientUnits="userSpaceOnUse">
<stop stop-color="#A7BDE5"/>
<stop offset="1" stop-color="#2F66CB"/>
</linearGradient>
<linearGradient id="paint40_linear" x1="-112433" y1="28239.2" x2="-112433" y2="19288.7" gradientUnits="userSpaceOnUse">
<stop stop-color="#A7BDE5"/>
<stop offset="1" stop-color="#2F66CB"/>
</linearGradient>
<linearGradient id="paint41_linear" x1="-111027" y1="28239.2" x2="-111027" y2="19288.7" gradientUnits="userSpaceOnUse">
<stop stop-color="#A7BDE5"/>
<stop offset="1" stop-color="#2F66CB"/>
</linearGradient>
<linearGradient id="paint42_linear" x1="1.17942e+06" y1="2279.2" x2="1.03314e+06" y2="2279.2" gradientUnits="userSpaceOnUse">
<stop stop-color="#223762"/>
<stop offset="1" stop-color="#041B48"/>
</linearGradient>
<linearGradient id="paint43_linear" x1="910.835" y1="4981.49" x2="1430.27" y2="5094.92" gradientUnits="userSpaceOnUse">
<stop stop-color="#3769A5"/>
<stop offset="1" stop-color="#08448B"/>
</linearGradient>
<linearGradient id="paint44_linear" x1="57560.4" y1="5502.75" x2="58750.4" y2="6943.54" gradientUnits="userSpaceOnUse">
<stop stop-color="#4C93F4"/>
<stop offset="1" stop-color="#0B63DA"/>
</linearGradient>
<linearGradient id="paint45_linear" x1="3349.27" y1="-894.533" x2="5206.07" y2="-708.854" gradientUnits="userSpaceOnUse">
<stop stop-color="#223762"/>
<stop offset="1" stop-color="#041B48"/>
</linearGradient>
<linearGradient id="paint46_linear" x1="7906.49" y1="26558.7" x2="4494.09" y2="27979.6" gradientUnits="userSpaceOnUse">
<stop stop-color="#223762"/>
<stop offset="1" stop-color="#041B48"/>
</linearGradient>
<linearGradient id="paint47_linear" x1="6020.13" y1="17428.9" x2="6398.62" y2="17428.9" gradientUnits="userSpaceOnUse">
<stop stop-color="#3769A5"/>
<stop offset="1" stop-color="#08448B"/>
</linearGradient>
<linearGradient id="paint48_linear" x1="8019.28" y1="10102.5" x2="-2457.11" y2="18849.1" gradientUnits="userSpaceOnUse">
<stop stop-color="#4C93F4"/>
<stop offset="1" stop-color="#0B63DA"/>
</linearGradient>
<linearGradient id="paint49_linear" x1="16259.8" y1="23679.1" x2="13271.6" y2="26399.1" gradientUnits="userSpaceOnUse">
<stop stop-color="#3769A5"/>
<stop offset="1" stop-color="#08448B"/>
</linearGradient>
<linearGradient id="paint50_linear" x1="241.468" y1="162.427" x2="192.628" y2="184.214" gradientUnits="userSpaceOnUse">
<stop stop-color="#FF9F5B"/>
<stop offset="1" stop-color="#E5670E"/>
</linearGradient>
<linearGradient id="paint51_linear" x1="8899.19" y1="16020.3" x2="8610.09" y2="16020.3" gradientUnits="userSpaceOnUse">
<stop stop-color="#FF9F5B"/>
<stop offset="1" stop-color="#E5670E"/>
</linearGradient>
<linearGradient id="paint52_linear" x1="1694.51" y1="1088.51" x2="1658.39" y2="1142.13" gradientUnits="userSpaceOnUse">
<stop stop-color="#4C93F4"/>
<stop offset="1" stop-color="#0B63DA"/>
</linearGradient>
<linearGradient id="paint53_linear" x1="3131.51" y1="-2641.21" x2="3095.66" y2="-2617.89" gradientUnits="userSpaceOnUse">
<stop stop-color="#4C93F4"/>
<stop offset="1" stop-color="#0B63DA"/>
</linearGradient>
<linearGradient id="paint54_linear" x1="4458.73" y1="-3734.48" x2="4409.57" y2="-3702.51" gradientUnits="userSpaceOnUse">
<stop stop-color="#4C93F4"/>
<stop offset="1" stop-color="#0B63DA"/>
</linearGradient>
<linearGradient id="paint55_linear" x1="4312.45" y1="-1248.29" x2="4277.22" y2="-1201.42" gradientUnits="userSpaceOnUse">
<stop stop-color="#4C93F4"/>
<stop offset="1" stop-color="#0B63DA"/>
</linearGradient>
<linearGradient id="paint56_linear" x1="10699.6" y1="12553.1" x2="14024.9" y2="17988.9" gradientUnits="userSpaceOnUse">
<stop stop-color="#3769A5"/>
<stop offset="1" stop-color="#08448B"/>
</linearGradient>
<linearGradient id="paint57_linear" x1="11049.6" y1="12339.3" x2="14375.1" y2="17774.7" gradientUnits="userSpaceOnUse">
<stop stop-color="#4C93F4"/>
<stop offset="1" stop-color="#0B63DA"/>
</linearGradient>
<linearGradient id="paint58_linear" x1="10939.8" y1="11355.6" x2="15706.7" y2="19146.7" gradientUnits="userSpaceOnUse">
<stop stop-color="#4C93F4"/>
<stop offset="1" stop-color="#0B63DA"/>
</linearGradient>
<linearGradient id="paint59_linear" x1="2391.58" y1="4028.7" x2="2384.13" y2="4066.44" gradientUnits="userSpaceOnUse">
<stop stop-color="#4C93F4"/>
<stop offset="1" stop-color="#0B63DA"/>
</linearGradient>
<linearGradient id="paint60_linear" x1="2444.29" y1="4048.36" x2="2436.84" y2="4086.09" gradientUnits="userSpaceOnUse">
<stop stop-color="#4C93F4"/>
<stop offset="1" stop-color="#0B63DA"/>
</linearGradient>
<linearGradient id="paint61_linear" x1="2326.38" y1="-227.094" x2="2311.99" y2="-205.934" gradientUnits="userSpaceOnUse">
<stop stop-color="#4C93F4"/>
<stop offset="1" stop-color="#0B63DA"/>
</linearGradient>
<linearGradient id="paint62_linear" x1="2326.2" y1="-195.027" x2="2311.88" y2="-173.98" gradientUnits="userSpaceOnUse">
<stop stop-color="#4C93F4"/>
<stop offset="1" stop-color="#0B63DA"/>
</linearGradient>
<linearGradient id="paint63_linear" x1="3256.62" y1="-411.412" x2="3236.94" y2="-382.522" gradientUnits="userSpaceOnUse">
<stop stop-color="#4C93F4"/>
<stop offset="1" stop-color="#0B63DA"/>
</linearGradient>
<linearGradient id="paint64_linear" x1="3166.58" y1="918.824" x2="3158.01" y2="952.692" gradientUnits="userSpaceOnUse">
<stop stop-color="#4C93F4"/>
<stop offset="1" stop-color="#0B63DA"/>
</linearGradient>
<linearGradient id="paint65_linear" x1="13388.6" y1="2094.28" x2="13385.3" y2="1998.05" gradientUnits="userSpaceOnUse">
<stop stop-color="#223762"/>
<stop offset="1" stop-color="#041B48"/>
</linearGradient>
<linearGradient id="paint66_linear" x1="3179.85" y1="2637.62" x2="3356.89" y2="2555.52" gradientUnits="userSpaceOnUse">
<stop stop-color="#FFC063"/>
<stop offset="0.95" stop-color="#E44D0B"/>
</linearGradient>
<linearGradient id="paint67_linear" x1="3434.94" y1="2279.06" x2="3288.02" y2="3064.47" gradientUnits="userSpaceOnUse">
<stop stop-color="#FFC063"/>
<stop offset="0.95" stop-color="#E44D0B"/>
</linearGradient>
<linearGradient id="paint68_linear" x1="2576.25" y1="1951.87" x2="2753.2" y2="1869.71" gradientUnits="userSpaceOnUse">
<stop stop-color="#FFC063"/>
<stop offset="0.95" stop-color="#E44D0B"/>
</linearGradient>
<linearGradient id="paint69_linear" x1="2831.36" y1="1596.5" x2="2684.43" y2="2381.91" gradientUnits="userSpaceOnUse">
<stop stop-color="#FFC063"/>
<stop offset="0.95" stop-color="#E44D0B"/>
</linearGradient>
<linearGradient id="paint70_linear" x1="3866.08" y1="2207.7" x2="4042.91" y2="2125.56" gradientUnits="userSpaceOnUse">
<stop stop-color="#FFC063"/>
<stop offset="0.95" stop-color="#E44D0B"/>
</linearGradient>
<linearGradient id="paint71_linear" x1="4121.05" y1="1852.22" x2="3974.04" y2="2637.85" gradientUnits="userSpaceOnUse">
<stop stop-color="#FFC063"/>
<stop offset="0.95" stop-color="#E44D0B"/>
</linearGradient>
<linearGradient id="paint72_linear" x1="8796.8" y1="2296.97" x2="8811.89" y2="2598.7" gradientUnits="userSpaceOnUse">
<stop stop-color="#FFC063"/>
<stop offset="0.95" stop-color="#E44D0B"/>
</linearGradient>
<linearGradient id="paint73_linear" x1="17812.8" y1="6437.45" x2="16593.1" y2="9712.58" gradientUnits="userSpaceOnUse">
<stop stop-color="#4C93F4"/>
<stop offset="1" stop-color="#0B63DA"/>
</linearGradient>
<linearGradient id="paint74_linear" x1="1948.66" y1="2270.25" x2="1841.02" y2="2380.14" gradientUnits="userSpaceOnUse">
<stop stop-color="#FFC063"/>
<stop offset="0.95" stop-color="#E44D0B"/>
</linearGradient>
<linearGradient id="paint75_linear" x1="3606.95" y1="4772.5" x2="3476.43" y2="4563.53" gradientUnits="userSpaceOnUse">
<stop stop-color="#4C93F4"/>
<stop offset="1" stop-color="#0B63DA"/>
</linearGradient>
<linearGradient id="paint76_linear" x1="3957.28" y1="556.427" x2="3933.59" y2="496.724" gradientUnits="userSpaceOnUse">
<stop stop-color="#4C93F4"/>
<stop offset="1" stop-color="#0B63DA"/>
</linearGradient>
<linearGradient id="paint77_linear" x1="3998.77" y1="1920.62" x2="4309.22" y2="2009.08" gradientUnits="userSpaceOnUse">
<stop stop-color="#FFC063"/>
<stop offset="0.95" stop-color="#E44D0B"/>
</linearGradient>
<linearGradient id="paint78_linear" x1="4817.71" y1="625.753" x2="5304.43" y2="625.753" gradientUnits="userSpaceOnUse">
<stop stop-color="#4C93F4"/>
<stop offset="1" stop-color="#0B63DA"/>
</linearGradient>
<linearGradient id="paint79_linear" x1="3633.02" y1="625.753" x2="3856.65" y2="625.753" gradientUnits="userSpaceOnUse">
<stop stop-color="#4C93F4"/>
<stop offset="1" stop-color="#0B63DA"/>
</linearGradient>
<linearGradient id="paint80_linear" x1="5066.06" y1="2016.34" x2="5551.81" y2="2094.84" gradientUnits="userSpaceOnUse">
<stop stop-color="#4C93F4"/>
<stop offset="1" stop-color="#0B63DA"/>
</linearGradient>
<linearGradient id="paint81_linear" x1="3352.61" y1="1690.8" x2="3552.3" y2="1723.08" gradientUnits="userSpaceOnUse">
<stop stop-color="#4C93F4"/>
<stop offset="1" stop-color="#0B63DA"/>
</linearGradient>
</defs>
</svg>
