<svg width="30" height="30" viewBox="0 0 30 30" fill="none" xmlns="http://www.w3.org/2000/svg">
<circle cx="15" cy="15" r="15" fill="#FF872E"/>
<path d="M19.9286 13.9286H16.2857C16.1674 13.9286 16.0714 13.8326 16.0714 13.7143V10.0714C16.0714 9.47974 15.5917 9 15 9C14.4083 9 13.9286 9.47974 13.9286 10.0714V13.7143C13.9286 13.8326 13.8326 13.9286 13.7143 13.9286H10.0714C9.47974 13.9286 9 14.4083 9 15C9 15.5917 9.47974 16.0714 10.0714 16.0714H13.7143C13.8326 16.0714 13.9286 16.1674 13.9286 16.2857V19.9286C13.9286 20.5203 14.4083 21 15 21C15.5917 21 16.0714 20.5203 16.0714 19.9286V16.2857C16.0714 16.1674 16.1674 16.0714 16.2857 16.0714H19.9286C20.5203 16.0714 21 15.5917 21 15C21 14.4083 20.5203 13.9286 19.9286 13.9286Z" fill="white"/>
</svg>
