<svg width="20" height="20" viewBox="0 0 20 20" fill="none" xmlns="http://www.w3.org/2000/svg">
<path d="M14.9937 6.71237C14.6859 6.38776 14.1726 6.37346 13.8475 6.6821L8.6713 11.591L6.20239 9.05615C5.8897 8.73533 5.377 8.7283 5.05591 9.04104C4.73509 9.35346 4.72833 9.8667 5.04075 10.1875L8.06778 13.2954C8.22641 13.4583 8.43723 13.5405 8.6486 13.5405C8.84915 13.5405 9.0497 13.4664 9.20673 13.3181L14.9635 7.85862C15.2883 7.55049 15.3021 7.03725 14.9937 6.71237Z" fill="#1ABC9C"/>
<path d="M10 0C4.48594 0 0 4.48594 0 10C0 15.5141 4.48594 20 10 20C15.5141 20 20 15.5141 20 10C20 4.48594 15.5141 0 10 0ZM10 18.3784C5.38027 18.3784 1.6216 14.62 1.6216 10C1.6216 5.38027 5.38023 1.6216 10 1.6216C14.62 1.6216 18.3784 5.38023 18.3784 10C18.3784 14.62 14.62 18.3784 10 18.3784Z" fill="#1ABC9C"/>
</svg>
