<svg width="961" height="185" viewBox="0 0 961 185" fill="none" xmlns="http://www.w3.org/2000/svg">
<path d="M491 96C521.667 108.5 590.3 123 647.5 93C719 55.5 841.5 5.50001 916.5 21" stroke="#BFBFBF" stroke-linejoin="round" stroke-dasharray="8 8"/>
<path d="M43.5 158C69 170.5 126.2 185 183 155C254 117.5 354.5 80.5 448 87.5" stroke="#BFBFBF" stroke-linejoin="round" stroke-dasharray="8 8"/>
<circle cx="22.5" cy="162.5" r="22" stroke="#3B41E3"/>
<circle cx="22.5" cy="162.5" r="17.5" fill="#3B41E3"/>
<path d="M19.9231 159V157.336H23.2511V169H21.4111V159H19.9231Z" fill="white"/>
<circle cx="469.5" cy="92.5" r="22" stroke="#3B41E3"/>
<circle cx="469.5" cy="92.5" r="17.5" fill="#3B41E3"/>
<path d="M466.351 96.52C467.375 95.6347 468.18 94.9093 468.767 94.344C469.364 93.768 469.86 93.1707 470.255 92.552C470.649 91.9333 470.847 91.3147 470.847 90.696C470.847 90.056 470.692 89.5547 470.383 89.192C470.084 88.8293 469.609 88.648 468.959 88.648C468.329 88.648 467.839 88.8507 467.487 89.256C467.145 89.6507 466.964 90.184 466.943 90.856H465.183C465.215 89.64 465.577 88.712 466.271 88.072C466.975 87.4213 467.865 87.096 468.943 87.096C470.105 87.096 471.012 87.416 471.663 88.056C472.324 88.696 472.655 89.5493 472.655 90.616C472.655 91.384 472.457 92.1253 472.063 92.84C471.679 93.544 471.215 94.1787 470.671 94.744C470.137 95.2987 469.455 95.944 468.623 96.68L467.903 97.32H472.975V98.84H465.199V97.512L466.351 96.52Z" fill="white"/>
<circle cx="938.5" cy="22.5" r="22" stroke="#3B41E3"/>
<circle cx="938.5" cy="22.5" r="17.5" fill="#3B41E3"/>
<path d="M934.178 20.216C934.242 19.224 934.621 18.4507 935.314 17.896C936.018 17.3413 936.914 17.064 938.002 17.064C938.749 17.064 939.394 17.1973 939.938 17.464C940.482 17.7307 940.893 18.0933 941.17 18.552C941.447 19.0107 941.586 19.528 941.586 20.104C941.586 20.7653 941.41 21.3307 941.058 21.8C940.706 22.2693 940.285 22.584 939.794 22.744V22.808C940.423 23 940.914 23.352 941.266 23.864C941.618 24.3653 941.794 25.0107 941.794 25.8C941.794 26.4293 941.65 26.9893 941.362 27.48C941.074 27.9707 940.647 28.36 940.082 28.648C939.517 28.9253 938.839 29.064 938.05 29.064C936.898 29.064 935.949 28.7707 935.202 28.184C934.466 27.5867 934.071 26.7333 934.018 25.624H935.778C935.821 26.1893 936.039 26.6533 936.434 27.016C936.829 27.368 937.362 27.544 938.034 27.544C938.685 27.544 939.186 27.368 939.538 27.016C939.89 26.6533 940.066 26.1893 940.066 25.624C940.066 24.8773 939.826 24.3493 939.346 24.04C938.877 23.72 938.151 23.56 937.17 23.56H936.754V22.056H937.186C938.05 22.0453 938.706 21.9013 939.154 21.624C939.613 21.3467 939.842 20.9093 939.842 20.312C939.842 19.8 939.677 19.3947 939.346 19.096C939.015 18.7867 938.546 18.632 937.938 18.632C937.341 18.632 936.877 18.7867 936.546 19.096C936.215 19.3947 936.018 19.768 935.954 20.216H934.178Z" fill="white"/>
</svg>
