<svg width="230" height="55" viewBox="0 0 230 55" fill="none" xmlns="http://www.w3.org/2000/svg">
<circle cx="27.5" cy="27.5" r="27.5" fill="#1ABC9C"/>
<path d="M22.7129 37.2539C22.1543 37.2539 21.6592 37.1185 21.2275 36.8477C20.7959 37.1185 20.3939 37.2539 20.0215 37.2539C19.6576 37.2539 19.3571 37.2201 19.1201 37.1523C18.8831 37.0931 18.6758 37.0085 18.498 36.8984C18.1341 36.6784 17.9521 36.4033 17.9521 36.0732C17.9521 35.904 17.9987 35.7559 18.0918 35.6289C18.278 35.7728 18.515 35.8447 18.8027 35.8447C19.556 35.8447 20.0765 35.5231 20.3643 34.8799V28.6719C20.3643 28.291 20.2839 27.999 20.123 27.7959C19.8691 27.4658 19.4333 27.1527 18.8154 26.8564C19.3825 26.5941 19.7549 26.3656 19.9326 26.1709C20.2204 25.8408 20.3643 25.4727 20.3643 25.0664V19.709C20.0765 19.0573 19.556 18.7314 18.8027 18.7314C18.515 18.7314 18.278 18.8034 18.0918 18.9473C17.9987 18.8203 17.9521 18.6764 17.9521 18.5156C17.9521 18.3464 17.9987 18.1898 18.0918 18.0459C18.1934 17.902 18.3288 17.7793 18.498 17.6777C18.8874 17.4408 19.3317 17.3223 19.8311 17.3223C20.3389 17.3223 20.8044 17.4619 21.2275 17.7412C21.6676 17.4619 22.1585 17.3223 22.7002 17.3223C23.2926 17.3223 23.8089 17.4788 24.249 17.792C25.1885 17.3942 26.1237 17.1953 27.0547 17.1953C27.9857 17.1953 28.832 17.2884 29.5938 17.4746C30.3639 17.6523 31.0579 17.9062 31.6758 18.2363C33.0215 18.9473 33.8594 19.8698 34.1895 21.0039C34.3757 21.6302 34.7777 22.0957 35.3955 22.4004C34.71 22.8743 34.2868 23.416 34.126 24.0254C33.7705 25.3626 33.0511 26.2344 31.9678 26.6406C33.5589 27.0807 34.5957 28.1217 35.0781 29.7637C35.2474 30.3477 35.6494 30.8258 36.2842 31.1982C35.6325 31.5622 35.1966 32.1123 34.9766 32.8486C34.7565 33.585 34.3672 34.2493 33.8086 34.8418C33.2585 35.4258 32.6152 35.9082 31.8789 36.2891C30.457 37.0169 28.8532 37.3809 27.0674 37.3809C26.001 37.3809 25.0488 37.1904 24.2109 36.8096C23.7708 37.1058 23.2715 37.2539 22.7129 37.2539ZM27.4102 26.0312C28.1549 26.0312 28.6839 25.8535 28.9971 25.498C29.3271 25.1341 29.4922 24.5078 29.4922 23.6191V20.6865C29.4922 20.1702 29.2214 19.7344 28.6797 19.3789C28.2057 19.0658 27.7656 18.9092 27.3594 18.9092C26.9616 18.9092 26.6315 18.96 26.3691 19.0615C26.1152 19.1546 25.8867 19.2858 25.6836 19.4551C25.252 19.8105 25.0361 20.238 25.0361 20.7373V26.0312H27.4102ZM30.2158 19.2012C30.5036 19.8444 30.6475 20.7839 30.6475 22.0195C30.6475 23.8392 30.529 25.0199 30.292 25.5615C30.6475 25.4938 30.9479 25.151 31.1934 24.5332C31.2865 24.3047 31.3542 24.0635 31.3965 23.8096C31.4473 23.5557 31.4854 23.361 31.5107 23.2256C31.5446 23.0817 31.5911 22.959 31.6504 22.8574C31.7773 22.6458 32.0059 22.485 32.3359 22.375C31.9974 22.265 31.7858 22.1465 31.7012 22.0195C31.5911 21.8757 31.5023 21.6133 31.4346 21.2324C31.3669 20.8516 31.2865 20.5426 31.1934 20.3057C31.1003 20.0602 30.9987 19.8613 30.8887 19.709C30.6771 19.4043 30.4528 19.235 30.2158 19.2012ZM21.583 33.6357C22.0062 33.4749 22.2389 32.9206 22.2812 31.9727C22.332 31.0247 22.3574 29.7129 22.3574 28.0371C22.3574 26.3613 22.3532 25.2484 22.3447 24.6982C22.3447 24.1396 22.3405 23.6911 22.332 23.3525C22.3066 22.3538 22.2093 21.7529 22.04 21.5498C21.8792 21.3382 21.7269 21.1986 21.583 21.1309C21.583 24.0762 21.5322 25.752 21.4307 26.1582C21.3122 26.4967 21.0244 26.738 20.5674 26.8818C21.0752 27.0596 21.363 27.2754 21.4307 27.5293C21.5322 27.9355 21.583 29.4209 21.583 31.9854V33.6357ZM25.0361 33.6865C25.0361 34.279 25.2604 34.7656 25.709 35.1465C26.1406 35.502 26.6569 35.6797 27.2578 35.6797C27.8418 35.6797 28.3327 35.5527 28.7305 35.2988C29.4922 34.7995 29.873 34.2282 29.873 33.585V29.8652C29.873 29.0951 29.6234 28.5153 29.124 28.126C28.7008 27.7959 28.1465 27.6309 27.4609 27.6309H25.0361V33.6865ZM30.7236 28.0244C30.9268 28.4814 31.0283 29.5394 31.0283 31.1982C31.0283 33.2972 30.9521 34.5286 30.7998 34.8926C30.9775 34.8587 31.1595 34.6429 31.3457 34.2451C31.5319 33.8473 31.6631 33.4368 31.7393 33.0137C31.8154 32.5905 31.8662 32.3027 31.8916 32.1504C31.9255 31.998 31.972 31.8626 32.0312 31.7441C32.1667 31.4902 32.3952 31.3083 32.7168 31.1982C32.209 31.0374 31.9085 30.7158 31.8154 30.2334C31.7308 29.751 31.6462 29.3786 31.5615 29.1162C31.4769 28.8538 31.388 28.6465 31.2949 28.4941C31.1341 28.2233 30.9437 28.0667 30.7236 28.0244Z" fill="white"/>
<path d="M97.09 27.692C98.1127 27.8827 98.9533 28.394 99.612 29.226C100.271 30.058 100.6 31.0113 100.6 32.086C100.6 33.0567 100.357 33.9147 99.872 34.66C99.404 35.388 98.7193 35.96 97.818 36.376C96.9167 36.792 95.8507 37 94.62 37H86.794V18.852H94.282C95.5127 18.852 96.57 19.0513 97.454 19.45C98.3553 19.8487 99.0313 20.4033 99.482 21.114C99.95 21.8247 100.184 22.6307 100.184 23.532C100.184 24.5893 99.898 25.4733 99.326 26.184C98.7713 26.8947 98.026 27.3973 97.09 27.692ZM90.434 26.34H93.762C94.6287 26.34 95.296 26.1493 95.764 25.768C96.232 25.3693 96.466 24.806 96.466 24.078C96.466 23.35 96.232 22.7867 95.764 22.388C95.296 21.9893 94.6287 21.79 93.762 21.79H90.434V26.34ZM94.1 34.036C94.984 34.036 95.6687 33.828 96.154 33.412C96.6567 32.996 96.908 32.4067 96.908 31.644C96.908 30.864 96.648 30.2573 96.128 29.824C95.608 29.3733 94.906 29.148 94.022 29.148H90.434V34.036H94.1ZM102.565 29.746C102.565 28.29 102.851 26.9987 103.423 25.872C104.012 24.7453 104.801 23.8787 105.789 23.272C106.794 22.6653 107.912 22.362 109.143 22.362C110.218 22.362 111.154 22.5787 111.951 23.012C112.766 23.4453 113.416 23.9913 113.901 24.65V22.596H117.567V37H113.901V34.894C113.433 35.57 112.783 36.1333 111.951 36.584C111.136 37.0173 110.192 37.234 109.117 37.234C107.904 37.234 106.794 36.922 105.789 36.298C104.801 35.674 104.012 34.7987 103.423 33.672C102.851 32.528 102.565 31.2193 102.565 29.746ZM113.901 29.798C113.901 28.914 113.728 28.16 113.381 27.536C113.034 26.8947 112.566 26.4093 111.977 26.08C111.388 25.7333 110.755 25.56 110.079 25.56C109.403 25.56 108.779 25.7247 108.207 26.054C107.635 26.3833 107.167 26.8687 106.803 27.51C106.456 28.134 106.283 28.8793 106.283 29.746C106.283 30.6127 106.456 31.3753 106.803 32.034C107.167 32.6753 107.635 33.1693 108.207 33.516C108.796 33.8627 109.42 34.036 110.079 34.036C110.755 34.036 111.388 33.8713 111.977 33.542C112.566 33.1953 113.034 32.71 113.381 32.086C113.728 31.4447 113.901 30.682 113.901 29.798ZM120.186 29.798C120.186 28.3073 120.489 27.0073 121.096 25.898C121.703 24.7713 122.543 23.9047 123.618 23.298C124.693 22.674 125.923 22.362 127.31 22.362C129.095 22.362 130.569 22.8127 131.73 23.714C132.909 24.598 133.697 25.846 134.096 27.458H130.17C129.962 26.834 129.607 26.3487 129.104 26.002C128.619 25.638 128.012 25.456 127.284 25.456C126.244 25.456 125.421 25.8373 124.814 26.6C124.207 27.3453 123.904 28.4113 123.904 29.798C123.904 31.1673 124.207 32.2333 124.814 32.996C125.421 33.7413 126.244 34.114 127.284 34.114C128.757 34.114 129.719 33.4553 130.17 32.138H134.096C133.697 33.698 132.909 34.9373 131.73 35.856C130.551 36.7747 129.078 37.234 127.31 37.234C125.923 37.234 124.693 36.9307 123.618 36.324C122.543 35.7 121.703 34.8333 121.096 33.724C120.489 32.5973 120.186 31.2887 120.186 29.798ZM145.291 37L140.403 30.864V37H136.763V17.76H140.403V28.706L145.239 22.596H149.971L143.627 29.824L150.023 37H145.291ZM165.336 29.486C165.336 30.006 165.302 30.474 165.232 30.89H154.702C154.789 31.93 155.153 32.7447 155.794 33.334C156.436 33.9233 157.224 34.218 158.16 34.218C159.512 34.218 160.474 33.6373 161.046 32.476H164.972C164.556 33.8627 163.759 35.0067 162.58 35.908C161.402 36.792 159.954 37.234 158.238 37.234C156.852 37.234 155.604 36.9307 154.494 36.324C153.402 35.7 152.544 34.8247 151.92 33.698C151.314 32.5713 151.01 31.2713 151.01 29.798C151.01 28.3073 151.314 26.9987 151.92 25.872C152.527 24.7453 153.376 23.8787 154.468 23.272C155.56 22.6653 156.817 22.362 158.238 22.362C159.608 22.362 160.83 22.6567 161.904 23.246C162.996 23.8353 163.837 24.676 164.426 25.768C165.033 26.8427 165.336 28.082 165.336 29.486ZM161.566 28.446C161.549 27.51 161.211 26.7647 160.552 26.21C159.894 25.638 159.088 25.352 158.134 25.352C157.233 25.352 156.47 25.6293 155.846 26.184C155.24 26.7213 154.867 27.4753 154.728 28.446H161.566ZM171.633 24.832C172.101 24.0693 172.708 23.4713 173.453 23.038C174.216 22.6047 175.083 22.388 176.053 22.388V26.21H175.091C173.947 26.21 173.081 26.4787 172.491 27.016C171.919 27.5533 171.633 28.4893 171.633 29.824V37H167.993V22.596H171.633V24.832ZM188.34 18.852V37H184.7V18.852H188.34ZM199.919 22.388C201.635 22.388 203.021 22.934 204.079 24.026C205.136 25.1007 205.665 26.6087 205.665 28.55V37H202.025V29.044C202.025 27.9 201.739 27.0247 201.167 26.418C200.595 25.794 199.815 25.482 198.827 25.482C197.821 25.482 197.024 25.794 196.435 26.418C195.863 27.0247 195.577 27.9 195.577 29.044V37H191.937V22.596H195.577V24.39C196.062 23.766 196.677 23.2807 197.423 22.934C198.185 22.57 199.017 22.388 199.919 22.388ZM208.19 29.798C208.19 28.3073 208.493 27.0073 209.1 25.898C209.707 24.7713 210.547 23.9047 211.622 23.298C212.697 22.674 213.927 22.362 215.314 22.362C217.099 22.362 218.573 22.8127 219.734 23.714C220.913 24.598 221.701 25.846 222.1 27.458H218.174C217.966 26.834 217.611 26.3487 217.108 26.002C216.623 25.638 216.016 25.456 215.288 25.456C214.248 25.456 213.425 25.8373 212.818 26.6C212.211 27.3453 211.908 28.4113 211.908 29.798C211.908 31.1673 212.211 32.2333 212.818 32.996C213.425 33.7413 214.248 34.114 215.288 34.114C216.761 34.114 217.723 33.4553 218.174 32.138H222.1C221.701 33.698 220.913 34.9373 219.734 35.856C218.555 36.7747 217.082 37.234 215.314 37.234C213.927 37.234 212.697 36.9307 211.622 36.324C210.547 35.7 209.707 34.8333 209.1 33.724C208.493 32.5973 208.19 31.2887 208.19 29.798ZM226.379 37.182C225.72 37.182 225.174 36.9827 224.741 36.584C224.325 36.168 224.117 35.6567 224.117 35.05C224.117 34.4433 224.325 33.9407 224.741 33.542C225.174 33.126 225.72 32.918 226.379 32.918C227.02 32.918 227.549 33.126 227.965 33.542C228.381 33.9407 228.589 34.4433 228.589 35.05C228.589 35.6567 228.381 36.168 227.965 36.584C227.549 36.9827 227.02 37.182 226.379 37.182Z" fill="white"/>
</svg>
