<svg width="55" height="55" viewBox="0 0 55 55" fill="none" xmlns="http://www.w3.org/2000/svg">
<circle cx="27.5" cy="27.5" r="27.5" fill="#1ABC9C"/>
<path d="M22.7129 37.2539C22.1543 37.2539 21.6592 37.1185 21.2275 36.8477C20.7959 37.1185 20.3939 37.2539 20.0215 37.2539C19.6576 37.2539 19.3571 37.2201 19.1201 37.1523C18.8831 37.0931 18.6758 37.0085 18.498 36.8984C18.1341 36.6784 17.9521 36.4033 17.9521 36.0732C17.9521 35.904 17.9987 35.7559 18.0918 35.6289C18.278 35.7728 18.515 35.8447 18.8027 35.8447C19.556 35.8447 20.0765 35.5231 20.3643 34.8799V28.6719C20.3643 28.291 20.2839 27.999 20.123 27.7959C19.8691 27.4658 19.4333 27.1527 18.8154 26.8564C19.3825 26.5941 19.7549 26.3656 19.9326 26.1709C20.2204 25.8408 20.3643 25.4727 20.3643 25.0664V19.709C20.0765 19.0573 19.556 18.7314 18.8027 18.7314C18.515 18.7314 18.278 18.8034 18.0918 18.9473C17.9987 18.8203 17.9521 18.6764 17.9521 18.5156C17.9521 18.3464 17.9987 18.1898 18.0918 18.0459C18.1934 17.902 18.3288 17.7793 18.498 17.6777C18.8874 17.4408 19.3317 17.3223 19.8311 17.3223C20.3389 17.3223 20.8044 17.4619 21.2275 17.7412C21.6676 17.4619 22.1585 17.3223 22.7002 17.3223C23.2926 17.3223 23.8089 17.4788 24.249 17.792C25.1885 17.3942 26.1237 17.1953 27.0547 17.1953C27.9857 17.1953 28.832 17.2884 29.5938 17.4746C30.3639 17.6523 31.0579 17.9062 31.6758 18.2363C33.0215 18.9473 33.8594 19.8698 34.1895 21.0039C34.3757 21.6302 34.7777 22.0957 35.3955 22.4004C34.71 22.8743 34.2868 23.416 34.126 24.0254C33.7705 25.3626 33.0511 26.2344 31.9678 26.6406C33.5589 27.0807 34.5957 28.1217 35.0781 29.7637C35.2474 30.3477 35.6494 30.8258 36.2842 31.1982C35.6325 31.5622 35.1966 32.1123 34.9766 32.8486C34.7565 33.585 34.3672 34.2493 33.8086 34.8418C33.2585 35.4258 32.6152 35.9082 31.8789 36.2891C30.457 37.0169 28.8532 37.3809 27.0674 37.3809C26.001 37.3809 25.0488 37.1904 24.2109 36.8096C23.7708 37.1058 23.2715 37.2539 22.7129 37.2539ZM27.4102 26.0312C28.1549 26.0312 28.6839 25.8535 28.9971 25.498C29.3271 25.1341 29.4922 24.5078 29.4922 23.6191V20.6865C29.4922 20.1702 29.2214 19.7344 28.6797 19.3789C28.2057 19.0658 27.7656 18.9092 27.3594 18.9092C26.9616 18.9092 26.6315 18.96 26.3691 19.0615C26.1152 19.1546 25.8867 19.2858 25.6836 19.4551C25.252 19.8105 25.0361 20.238 25.0361 20.7373V26.0312H27.4102ZM30.2158 19.2012C30.5036 19.8444 30.6475 20.7839 30.6475 22.0195C30.6475 23.8392 30.529 25.0199 30.292 25.5615C30.6475 25.4938 30.9479 25.151 31.1934 24.5332C31.2865 24.3047 31.3542 24.0635 31.3965 23.8096C31.4473 23.5557 31.4854 23.361 31.5107 23.2256C31.5446 23.0817 31.5911 22.959 31.6504 22.8574C31.7773 22.6458 32.0059 22.485 32.3359 22.375C31.9974 22.265 31.7858 22.1465 31.7012 22.0195C31.5911 21.8757 31.5023 21.6133 31.4346 21.2324C31.3669 20.8516 31.2865 20.5426 31.1934 20.3057C31.1003 20.0602 30.9987 19.8613 30.8887 19.709C30.6771 19.4043 30.4528 19.235 30.2158 19.2012ZM21.583 33.6357C22.0062 33.4749 22.2389 32.9206 22.2812 31.9727C22.332 31.0247 22.3574 29.7129 22.3574 28.0371C22.3574 26.3613 22.3532 25.2484 22.3447 24.6982C22.3447 24.1396 22.3405 23.6911 22.332 23.3525C22.3066 22.3538 22.2093 21.7529 22.04 21.5498C21.8792 21.3382 21.7269 21.1986 21.583 21.1309C21.583 24.0762 21.5322 25.752 21.4307 26.1582C21.3122 26.4967 21.0244 26.738 20.5674 26.8818C21.0752 27.0596 21.363 27.2754 21.4307 27.5293C21.5322 27.9355 21.583 29.4209 21.583 31.9854V33.6357ZM25.0361 33.6865C25.0361 34.279 25.2604 34.7656 25.709 35.1465C26.1406 35.502 26.6569 35.6797 27.2578 35.6797C27.8418 35.6797 28.3327 35.5527 28.7305 35.2988C29.4922 34.7995 29.873 34.2282 29.873 33.585V29.8652C29.873 29.0951 29.6234 28.5153 29.124 28.126C28.7008 27.7959 28.1465 27.6309 27.4609 27.6309H25.0361V33.6865ZM30.7236 28.0244C30.9268 28.4814 31.0283 29.5394 31.0283 31.1982C31.0283 33.2972 30.9521 34.5286 30.7998 34.8926C30.9775 34.8587 31.1595 34.6429 31.3457 34.2451C31.5319 33.8473 31.6631 33.4368 31.7393 33.0137C31.8154 32.5905 31.8662 32.3027 31.8916 32.1504C31.9255 31.998 31.972 31.8626 32.0312 31.7441C32.1667 31.4902 32.3952 31.3083 32.7168 31.1982C32.209 31.0374 31.9085 30.7158 31.8154 30.2334C31.7308 29.751 31.6462 29.3786 31.5615 29.1162C31.4769 28.8538 31.388 28.6465 31.2949 28.4941C31.1341 28.2233 30.9437 28.0667 30.7236 28.0244Z" fill="white"/>
</svg>
