<svg width="218" height="200" viewBox="0 0 218 200" fill="none" xmlns="http://www.w3.org/2000/svg">
<path opacity="0.49" d="M201.699 122.513C201.699 122.513 190.781 148.565 187.077 155.154C183.372 161.742 177.782 171.581 188.718 177.443C199.654 183.305 202.519 183.032 209.079 174.149C214.381 166.972 213.437 126.589 210.444 122.15C207.452 117.712 205.799 118.667 204.296 119.35C202.792 120.033 201.699 122.513 201.699 122.513Z" fill="url(#paint0_linear)"/>
<path opacity="0.49" d="M60.4062 46.312C107.712 46.5989 136.56 9.379 159.046 2.22048C192.851 -8.53364 237.444 19.2905 208.687 96.2872C179.929 173.284 165.031 192.835 113.232 199.394C71.7886 204.66 35.2914 174.541 20.7492 150.501C-2.00115 112.892 13.0967 46.0287 60.4062 46.312Z" fill="url(#paint1_linear)"/>
<path opacity="0.1" d="M192.761 135.781V93.5961H167.185V39.3497L154.157 28.8171L140.461 39.8909V93.5961H108.231V50.6486H96.6092L76.1179 67.2138H46.4088V101.757H10.7542C9.12345 118.765 12.3486 136.623 20.7529 150.501C22.3031 153.047 23.9832 155.511 25.7867 157.885H181.425C185.228 151.518 188.954 144.189 192.761 135.781Z" fill="#4C93F4"/>
<path d="M124.974 191.908L95.8065 195.555H127.368V191.908H124.974Z" fill="url(#paint2_linear)"/>
<path d="M129.761 191.908L158.933 195.555H127.368V191.908H129.761Z" fill="url(#paint3_linear)"/>
<path d="M129.75 147.708H124.974V191.908H129.75V147.708Z" fill="url(#paint4_linear)"/>
<path d="M131.744 149.982H122.98V158.146H131.744V149.982Z" fill="url(#paint5_linear)"/>
<path d="M82.8516 195.548H87.3915L69.6459 129.327H65.1096L82.8516 195.548Z" fill="url(#paint6_linear)"/>
<path d="M47.2296 195.548H42.6897L60.4316 129.327H64.9715L47.2296 195.548Z" fill="url(#paint7_linear)"/>
<path d="M187.89 195.548H192.43L174.684 129.327H170.148L187.89 195.548Z" fill="url(#paint8_linear)"/>
<path d="M152.268 195.548H147.728L165.47 129.327H170.01L152.268 195.548Z" fill="url(#paint9_linear)"/>
<path d="M60.0793 195.548H64.6192L46.8736 129.327H42.3337L60.0793 195.548Z" fill="url(#paint10_linear)"/>
<path d="M114.576 188.44C114.576 188.44 115.303 191.691 115.332 192.936C115.336 193.821 115.214 194.702 114.969 195.551H94.637C94.637 195.551 91.9676 195.697 91.2993 194.672C90.631 193.648 91.6625 192.57 94.3683 191.491C98.8392 189.711 106.296 188.444 106.296 188.444L107.185 184.125L114.576 188.44Z" fill="url(#paint11_linear)"/>
<path d="M79.5388 188.44C79.5388 188.44 80.2652 191.691 80.2943 192.936C80.299 193.821 80.1767 194.702 79.9311 195.551H59.5887C59.5887 195.551 56.9192 195.697 56.251 194.672C55.5827 193.648 56.6142 192.57 59.3199 191.491C63.7908 189.711 71.2472 188.444 71.2472 188.444L72.137 184.125L79.5388 188.44Z" fill="url(#paint12_linear)"/>
<path d="M95.8064 143.818H85.5825V148.405H95.8064V143.818Z" fill="url(#paint13_linear)"/>
<path d="M163.484 91.1626H121.056C120.024 91.1626 119.185 92.1686 119.178 93.418V93.4907C119.087 99.0201 118.706 104.541 118.037 110.03C117.523 114.453 116.727 118.838 115.655 123.16C114.565 127.424 113.113 131.346 111.34 134.259C109.356 137.495 106.695 140.263 103.539 142.373C100.394 144.454 96.8525 145.71 93.3005 145.707C90.8818 145.708 88.4999 145.115 86.3635 143.982C85.4155 143.484 84.3151 144.014 83.9047 145.162C83.4943 146.31 83.9301 147.643 84.878 148.14C87.1908 149.365 89.7427 150.072 92.3561 150.21L92.4106 150.239H134.933L153.819 138.85L160.015 128.219L163.8 99.5778L163.484 91.1626Z" fill="url(#paint14_linear)"/>
<path d="M119.625 85.6747L99.533 115.093L77.5925 119.492L78.831 125.303C78.831 125.303 103.361 125.168 105.631 124.634C107.901 124.1 125.817 100.736 125.817 100.736L119.625 85.6747Z" fill="url(#paint15_linear)"/>
<path d="M104.919 132.632C98.3815 133.565 94.993 134.234 92.1455 137.84C89.2981 141.447 70.6772 185.636 70.6772 185.636C70.6772 185.636 73.3285 187.892 76.6409 188.178L79.9532 188.451L103.452 148.137L104.919 132.632Z" fill="url(#paint16_linear)"/>
<path d="M94.4298 141.708C95.1562 148.246 93.4855 155.727 92.7555 159.534C92.0255 163.34 79.4082 175.289 76.6044 181.63C75.7141 183.59 75.0112 185.629 74.5051 187.721C75.1934 187.953 75.9065 188.102 76.6298 188.168L79.9421 188.44L103.441 148.126L104.893 132.639C100.898 133.209 98.0872 133.685 95.8499 134.786C94.6489 136.882 94.1512 139.308 94.4298 141.708Z" fill="url(#paint17_linear)"/>
<path d="M140.966 79.2064C140.966 79.2064 148.502 81.4401 152.029 85.6749C155.555 89.9097 147.554 139.427 147.554 139.427L145.037 139.14L109.637 135.098C109.637 135.098 114.388 90.331 118.194 86.5901C122 82.8492 128.207 80.4631 128.207 80.4631L140.966 79.2064Z" fill="url(#paint18_linear)"/>
<path d="M114.591 134.589C114.984 134.602 115.365 134.726 115.69 134.948C116.015 135.17 116.27 135.48 116.425 135.842L120.816 136.343C120.944 135.868 121.239 135.454 121.647 135.177C122.054 134.9 122.548 134.779 123.037 134.834C123.527 134.89 123.98 135.12 124.315 135.481C124.65 135.843 124.844 136.312 124.862 136.805L129.024 137.288C129.024 137.222 129.024 137.157 129.024 137.088C129.027 136.79 129.094 136.495 129.222 136.225C129.349 135.956 129.533 135.716 129.761 135.524C129.99 135.332 130.257 135.192 130.545 135.112C130.832 135.033 131.134 135.017 131.428 135.065C131.723 135.114 132.003 135.225 132.251 135.392C132.498 135.559 132.707 135.777 132.862 136.032C133.017 136.287 133.116 136.572 133.15 136.868C133.185 137.165 133.155 137.465 133.063 137.749L137.494 138.254C137.357 137.965 137.29 137.648 137.297 137.328C137.306 137 137.391 136.679 137.547 136.391C137.704 136.104 137.926 135.857 138.196 135.672C138.466 135.486 138.777 135.368 139.102 135.326C139.426 135.284 139.757 135.319 140.065 135.43C140.373 135.54 140.651 135.722 140.876 135.961C141.1 136.2 141.264 136.488 141.356 136.803C141.447 137.118 141.462 137.45 141.4 137.771C141.338 138.093 141.2 138.395 140.998 138.653L145.124 139.126L146.384 139.271C145.983 138.985 145.698 138.564 145.581 138.086C145.463 137.607 145.521 137.103 145.744 136.663C145.967 136.224 146.34 135.879 146.795 135.691C147.25 135.503 147.758 135.485 148.226 135.639C148.418 134.386 148.647 132.86 148.901 131.132C148.565 131.323 148.182 131.417 147.795 131.401C147.408 131.386 147.034 131.262 146.714 131.044C146.394 130.826 146.142 130.522 145.986 130.168C145.83 129.813 145.777 129.422 145.833 129.039C145.888 128.656 146.051 128.296 146.301 128.001C146.551 127.706 146.879 127.486 147.248 127.368C147.616 127.25 148.011 127.238 148.386 127.333C148.761 127.428 149.102 127.627 149.37 127.907C151.498 113.016 154.545 88.5801 152.116 85.66C149.686 82.74 145.342 80.7715 142.883 79.8308C142.689 80.1957 142.389 80.4936 142.023 80.6855C141.657 80.8774 141.241 80.9545 140.831 80.9067C140.42 80.8588 140.034 80.6883 139.721 80.4173C139.409 80.1463 139.186 79.7875 139.081 79.3877L134.457 79.8417C134.287 80.0744 134.07 80.2685 133.819 80.4113C133.569 80.5542 133.291 80.6425 133.004 80.6706C132.717 80.6988 132.427 80.666 132.154 80.5744C131.881 80.4829 131.63 80.3347 131.417 80.1395L128.305 80.4446C128.305 80.4446 122.087 82.8126 118.281 86.5535C118.185 86.6532 118.099 86.7614 118.023 86.8767C117.939 87.2208 117.768 87.5374 117.525 87.7956C116.875 89.4143 116.362 91.0848 115.993 92.7895C116.286 92.8133 116.57 92.8996 116.827 93.0425C117.085 93.1854 117.308 93.3816 117.483 93.618C117.658 93.8543 117.781 94.1254 117.842 94.413C117.904 94.7006 117.903 94.998 117.841 95.2854C117.778 95.5727 117.655 95.8433 117.479 96.0791C117.303 96.3148 117.079 96.5103 116.821 96.6523C116.563 96.7942 116.279 96.8795 115.985 96.9023C115.692 96.9251 115.397 96.885 115.121 96.7846C114.816 98.3173 114.514 99.9553 114.22 101.666C114.546 101.403 114.944 101.246 115.361 101.215C115.778 101.184 116.195 101.281 116.556 101.492C116.917 101.704 117.206 102.02 117.383 102.399C117.56 102.778 117.618 103.202 117.549 103.614C117.479 104.027 117.286 104.409 116.995 104.709C116.703 105.009 116.328 105.214 115.917 105.296C115.507 105.377 115.082 105.333 114.697 105.167C114.313 105.001 113.988 104.723 113.766 104.368C111.511 118.246 109.724 135.054 109.724 135.054L112.876 135.417C113.075 135.152 113.334 134.938 113.632 134.794C113.931 134.65 114.259 134.58 114.591 134.589ZM149.152 85.3077C149.561 85.3194 149.958 85.4522 150.292 85.6894C150.626 85.9266 150.882 86.2574 151.028 86.6401C151.173 87.0228 151.202 87.4402 151.111 87.8394C151.019 88.2385 150.812 88.6016 150.514 88.8827C150.216 89.1638 149.841 89.3502 149.438 89.4184C149.034 89.4866 148.619 89.4334 148.245 89.2657C147.872 89.0981 147.556 88.8233 147.339 88.4763C147.121 88.1293 147.012 87.7255 147.024 87.3162C147.031 87.0443 147.092 86.7765 147.203 86.5282C147.314 86.2799 147.473 86.056 147.671 85.8691C147.869 85.6822 148.101 85.5362 148.355 85.4392C148.609 85.3423 148.88 85.2964 149.152 85.3041V85.3077ZM148.909 93.7447C149.318 93.7563 149.715 93.8892 150.049 94.1263C150.382 94.3635 150.638 94.6944 150.784 95.0771C150.93 95.4598 150.959 95.8771 150.868 96.2763C150.776 96.6755 150.568 97.0386 150.271 97.3197C149.973 97.6007 149.598 97.7872 149.194 97.8553C148.791 97.9235 148.376 97.8704 148.002 97.7027C147.628 97.535 147.313 97.2603 147.095 96.9132C146.878 96.5662 146.768 96.1625 146.78 95.7531C146.797 95.2047 147.03 94.685 147.429 94.3084C147.828 93.9318 148.36 93.729 148.909 93.7447ZM148.662 102.182C149.071 102.193 149.468 102.326 149.802 102.563C150.135 102.8 150.391 103.131 150.537 103.514C150.683 103.897 150.712 104.314 150.621 104.713C150.529 105.112 150.321 105.476 150.024 105.757C149.726 106.038 149.351 106.224 148.947 106.292C148.544 106.36 148.129 106.307 147.755 106.14C147.381 105.972 147.066 105.697 146.848 105.35C146.631 105.003 146.521 104.599 146.533 104.19C146.55 103.642 146.783 103.122 147.182 102.745C147.581 102.369 148.113 102.166 148.662 102.182ZM148.415 110.619C148.824 110.63 149.221 110.763 149.555 111C149.889 111.237 150.145 111.568 150.29 111.951C150.436 112.334 150.465 112.751 150.374 113.15C150.282 113.549 150.074 113.913 149.777 114.194C149.479 114.475 149.104 114.661 148.7 114.729C148.297 114.797 147.882 114.744 147.508 114.577C147.134 114.409 146.819 114.134 146.601 113.787C146.384 113.44 146.274 113.036 146.286 112.627C146.303 112.079 146.536 111.559 146.935 111.182C147.334 110.806 147.866 110.603 148.415 110.619ZM148.182 119.059C148.592 119.071 148.988 119.204 149.322 119.441C149.656 119.678 149.912 120.009 150.058 120.392C150.204 120.774 150.233 121.192 150.141 121.591C150.05 121.99 149.842 122.353 149.544 122.634C149.246 122.915 148.872 123.102 148.468 123.17C148.064 123.238 147.649 123.185 147.276 123.017C146.902 122.85 146.586 122.575 146.369 122.228C146.152 121.881 146.042 121.477 146.054 121.068C146.07 120.519 146.303 120 146.702 119.623C147.102 119.246 147.634 119.044 148.182 119.059ZM140.889 85.0644C141.299 85.0761 141.695 85.2089 142.029 85.4461C142.363 85.6832 142.619 86.0141 142.765 86.3968C142.911 86.7795 142.94 87.1968 142.848 87.596C142.757 87.9952 142.549 88.3583 142.251 88.6394C141.953 88.9204 141.579 89.1069 141.175 89.175C140.771 89.2432 140.356 89.1901 139.983 89.0224C139.609 88.8547 139.294 88.58 139.076 88.2329C138.859 87.8859 138.749 87.4822 138.761 87.0728C138.777 86.5263 139.009 86.0083 139.406 85.632C139.802 85.2557 140.332 85.0517 140.879 85.0644H140.889ZM140.642 93.5013C141.052 93.513 141.448 93.6458 141.782 93.883C142.116 94.1202 142.372 94.451 142.518 94.8337C142.664 95.2164 142.693 95.6338 142.601 96.033C142.51 96.4322 142.302 96.7953 142.004 97.0763C141.706 97.3574 141.332 97.5438 140.928 97.612C140.524 97.6802 140.109 97.6271 139.736 97.4594C139.362 97.2917 139.047 97.0169 138.829 96.6699C138.612 96.3229 138.502 95.9191 138.514 95.5098C138.53 94.9632 138.762 94.4453 139.159 94.069C139.555 93.6927 140.085 93.4886 140.632 93.5013H140.642ZM140.395 101.938C140.805 101.95 141.202 102.083 141.535 102.32C141.869 102.557 142.125 102.888 142.271 103.271C142.417 103.653 142.446 104.071 142.354 104.47C142.263 104.869 142.055 105.232 141.757 105.513C141.459 105.794 141.085 105.981 140.681 106.049C140.277 106.117 139.862 106.064 139.489 105.896C139.115 105.729 138.8 105.454 138.582 105.107C138.365 104.76 138.255 104.356 138.267 103.947C138.284 103.401 138.516 102.884 138.913 102.508C139.31 102.133 139.839 101.929 140.385 101.942L140.395 101.938ZM140.148 110.375C140.558 110.387 140.955 110.52 141.288 110.757C141.622 110.994 141.878 111.325 142.024 111.708C142.17 112.09 142.199 112.508 142.107 112.907C142.016 113.306 141.808 113.669 141.51 113.95C141.212 114.231 140.838 114.418 140.434 114.486C140.03 114.554 139.615 114.501 139.242 114.333C138.868 114.166 138.553 113.891 138.335 113.544C138.118 113.197 138.008 112.793 138.02 112.384C138.037 111.837 138.27 111.32 138.667 110.944C139.065 110.568 139.595 110.365 140.141 110.379L140.148 110.375ZM139.902 118.812C140.311 118.824 140.708 118.957 141.041 119.194C141.375 119.431 141.631 119.762 141.777 120.145C141.923 120.527 141.952 120.945 141.86 121.344C141.769 121.743 141.561 122.106 141.263 122.387C140.966 122.668 140.591 122.855 140.187 122.923C139.783 122.991 139.368 122.938 138.995 122.77C138.621 122.603 138.306 122.328 138.088 121.981C137.871 121.634 137.761 121.23 137.773 120.821C137.79 120.274 138.023 119.757 138.42 119.381C138.818 119.005 139.348 118.802 139.894 118.816L139.902 118.812ZM139.662 127.031C140.071 127.043 140.468 127.176 140.802 127.413C141.136 127.65 141.392 127.981 141.537 128.364C141.683 128.746 141.712 129.164 141.621 129.563C141.529 129.962 141.321 130.325 141.024 130.606C140.726 130.887 140.351 131.074 139.947 131.142C139.544 131.21 139.129 131.157 138.755 130.989C138.381 130.822 138.066 130.547 137.849 130.2C137.631 129.853 137.521 129.449 137.534 129.04C137.551 128.493 137.783 127.976 138.181 127.6C138.578 127.224 139.108 127.021 139.655 127.035L139.662 127.031ZM132.605 84.8247C133.014 84.8364 133.411 84.9692 133.745 85.2064C134.079 85.4435 134.335 85.7744 134.481 86.1571C134.626 86.5398 134.655 86.9571 134.564 87.3563C134.472 87.7555 134.265 88.1186 133.967 88.3997C133.669 88.6807 133.294 88.8672 132.891 88.9353C132.487 89.0035 132.072 88.9504 131.698 88.7827C131.325 88.615 131.009 88.3403 130.792 87.9932C130.574 87.6462 130.465 87.2425 130.477 86.8331C130.493 86.2847 130.726 85.765 131.125 85.3884C131.524 85.0118 132.056 84.809 132.605 84.8247ZM132.358 93.2616C132.767 93.2733 133.164 93.4061 133.498 93.6433C133.832 93.8805 134.088 94.2113 134.234 94.594C134.379 94.9767 134.408 95.3941 134.317 95.7933C134.225 96.1924 134.018 96.5555 133.72 96.8366C133.422 97.1177 133.047 97.3041 132.644 97.3723C132.24 97.4405 131.825 97.3874 131.451 97.2197C131.078 97.052 130.762 96.7772 130.545 96.4302C130.327 96.0832 130.218 95.6794 130.23 95.2701C130.246 94.7216 130.479 94.202 130.878 93.8254C131.277 93.4488 131.81 93.246 132.358 93.2616ZM132.111 101.695C132.52 101.707 132.917 101.839 133.251 102.077C133.585 102.314 133.841 102.645 133.987 103.027C134.132 103.41 134.161 103.827 134.07 104.227C133.979 104.626 133.771 104.989 133.473 105.27C133.175 105.551 132.801 105.737 132.397 105.806C131.993 105.874 131.578 105.821 131.204 105.653C130.831 105.485 130.515 105.211 130.298 104.864C130.08 104.516 129.971 104.113 129.983 103.703C129.999 103.155 130.232 102.635 130.631 102.259C131.03 101.882 131.563 101.679 132.111 101.695ZM131.864 110.132C132.273 110.144 132.67 110.276 133.004 110.514C133.338 110.751 133.594 111.082 133.74 111.464C133.885 111.847 133.914 112.264 133.823 112.664C133.732 113.063 133.524 113.426 133.226 113.707C132.928 113.988 132.554 114.174 132.15 114.243C131.746 114.311 131.331 114.258 130.957 114.09C130.584 113.922 130.268 113.647 130.051 113.3C129.833 112.953 129.724 112.55 129.736 112.14C129.754 111.593 129.988 111.074 130.388 110.699C130.788 110.324 131.32 110.123 131.868 110.139L131.864 110.132ZM131.617 118.569C132.026 118.581 132.423 118.713 132.757 118.951C133.091 119.188 133.347 119.519 133.493 119.901C133.638 120.284 133.667 120.701 133.576 121.1C133.485 121.5 133.277 121.863 132.979 122.144C132.681 122.425 132.307 122.611 131.903 122.68C131.499 122.748 131.084 122.695 130.71 122.527C130.337 122.359 130.021 122.084 129.804 121.737C129.586 121.39 129.477 120.987 129.489 120.577C129.507 120.029 129.741 119.511 130.141 119.136C130.541 118.761 131.073 118.559 131.621 118.576L131.617 118.569ZM131.377 126.788C131.787 126.8 132.183 126.932 132.517 127.17C132.851 127.407 133.107 127.738 133.253 128.12C133.399 128.503 133.428 128.92 133.336 129.32C133.245 129.719 133.037 130.082 132.739 130.363C132.441 130.644 132.067 130.83 131.663 130.899C131.259 130.967 130.844 130.914 130.471 130.746C130.097 130.578 129.782 130.303 129.564 129.956C129.347 129.609 129.237 129.206 129.249 128.796C129.267 128.248 129.502 127.73 129.901 127.355C130.301 126.98 130.833 126.779 131.381 126.795L131.377 126.788ZM124.328 84.5813C124.737 84.593 125.134 84.7258 125.468 84.963C125.802 85.2002 126.058 85.531 126.203 85.9137C126.349 86.2964 126.378 86.7138 126.287 87.113C126.195 87.5122 125.988 87.8753 125.69 88.1563C125.392 88.4374 125.017 88.6238 124.614 88.692C124.21 88.7602 123.795 88.7071 123.421 88.5394C123.047 88.3717 122.732 88.0969 122.515 87.7499C122.297 87.4029 122.187 86.9991 122.2 86.5898C122.216 86.0413 122.449 85.5217 122.848 85.1451C123.247 84.7685 123.779 84.5657 124.328 84.5813ZM124.081 93.0183C124.49 93.03 124.887 93.1628 125.221 93.4C125.555 93.6371 125.811 93.968 125.956 94.3507C126.102 94.7334 126.131 95.1507 126.04 95.5499C125.948 95.9491 125.741 96.3122 125.443 96.5933C125.145 96.8743 124.77 97.0608 124.367 97.129C123.963 97.1971 123.548 97.144 123.174 96.9763C122.801 96.8086 122.485 96.5339 122.268 96.1869C122.05 95.8398 121.941 95.4361 121.953 95.0268C121.97 94.4783 122.204 93.959 122.604 93.5831C123.003 93.2071 123.536 93.0053 124.084 93.0219L124.081 93.0183ZM123.848 101.459C124.258 101.471 124.654 101.603 124.988 101.841C125.322 102.078 125.578 102.409 125.724 102.791C125.87 103.174 125.899 103.591 125.807 103.991C125.716 104.39 125.508 104.753 125.21 105.034C124.912 105.315 124.538 105.501 124.134 105.57C123.73 105.638 123.315 105.585 122.942 105.417C122.568 105.249 122.253 104.974 122.035 104.627C121.818 104.28 121.708 103.877 121.72 103.467C121.736 102.919 121.969 102.399 122.369 102.023C122.768 101.646 123.3 101.443 123.848 101.459ZM123.601 109.896C124.011 109.908 124.408 110.04 124.741 110.277C125.075 110.515 125.331 110.846 125.477 111.228C125.623 111.611 125.652 112.028 125.56 112.427C125.469 112.827 125.261 113.19 124.963 113.471C124.665 113.752 124.291 113.938 123.887 114.006C123.483 114.075 123.068 114.022 122.695 113.854C122.321 113.686 122.006 113.411 121.788 113.064C121.571 112.717 121.461 112.314 121.473 111.904C121.489 111.358 121.721 110.84 122.118 110.463C122.514 110.087 123.044 109.883 123.591 109.896H123.601ZM123.354 118.333C123.764 118.344 124.161 118.477 124.494 118.714C124.828 118.952 125.084 119.282 125.23 119.665C125.376 120.048 125.405 120.465 125.313 120.864C125.222 121.264 125.014 121.627 124.716 121.908C124.418 122.189 124.044 122.375 123.64 122.443C123.236 122.512 122.821 122.459 122.448 122.291C122.074 122.123 121.759 121.848 121.541 121.501C121.324 121.154 121.214 120.751 121.226 120.341C121.243 119.795 121.476 119.277 121.873 118.901C122.271 118.526 122.801 118.323 123.347 118.336L123.354 118.333ZM123.122 126.555C123.53 126.57 123.925 126.705 124.257 126.943C124.589 127.182 124.843 127.513 124.986 127.896C125.13 128.278 125.158 128.695 125.065 129.093C124.973 129.491 124.765 129.852 124.467 130.132C124.17 130.412 123.796 130.598 123.393 130.666C122.99 130.734 122.576 130.681 122.203 130.514C121.83 130.347 121.515 130.073 121.297 129.728C121.079 129.382 120.969 128.98 120.979 128.571C120.986 128.298 121.047 128.028 121.159 127.779C121.271 127.529 121.431 127.304 121.63 127.116C121.83 126.929 122.064 126.783 122.32 126.687C122.576 126.59 122.849 126.546 123.122 126.555ZM115.332 109.656C115.741 109.668 116.138 109.801 116.471 110.038C116.805 110.275 117.061 110.606 117.207 110.989C117.353 111.371 117.382 111.789 117.29 112.188C117.199 112.587 116.991 112.95 116.693 113.231C116.396 113.512 116.021 113.699 115.617 113.767C115.213 113.835 114.798 113.782 114.425 113.614C114.051 113.446 113.736 113.172 113.518 112.825C113.301 112.478 113.191 112.074 113.203 111.665C113.219 111.119 113.451 110.601 113.847 110.225C114.242 109.849 114.771 109.644 115.317 109.656H115.332ZM115.085 118.093C115.494 118.105 115.891 118.238 116.225 118.475C116.558 118.712 116.814 119.043 116.96 119.425C117.106 119.808 117.135 120.226 117.044 120.625C116.952 121.024 116.744 121.387 116.446 121.668C116.149 121.949 115.774 122.136 115.37 122.204C114.966 122.272 114.551 122.219 114.178 122.051C113.804 121.883 113.489 121.609 113.271 121.262C113.054 120.915 112.944 120.511 112.956 120.102C112.972 119.555 113.204 119.037 113.601 118.661C113.998 118.284 114.527 118.08 115.074 118.093H115.085ZM114.845 126.312C115.254 126.324 115.651 126.457 115.985 126.694C116.319 126.931 116.575 127.262 116.72 127.645C116.866 128.027 116.895 128.445 116.804 128.844C116.712 129.243 116.505 129.606 116.207 129.887C115.909 130.168 115.534 130.355 115.131 130.423C114.727 130.491 114.312 130.438 113.938 130.27C113.565 130.102 113.249 129.828 113.032 129.481C112.814 129.134 112.705 128.73 112.717 128.321C112.733 127.774 112.964 127.256 113.361 126.88C113.758 126.503 114.287 126.299 114.834 126.312H114.845Z" fill="url(#paint19_linear)"/>
<path d="M142.117 94.5366C142.117 94.5366 144.569 98.9857 144.438 102.189C143.824 117.08 110.385 128.459 110.385 128.459L109.633 135.08L147.55 139.409L153.078 103.569L142.117 94.5366Z" fill="url(#paint20_linear)"/>
<path d="M146.675 139.307C146.675 139.307 116 125.887 103.742 131.84C94.539 136.3 106.147 188.048 106.147 188.048C106.147 188.048 109.608 189.649 112.35 189.384L115.092 189.116L117.068 143.884L135.562 147.93L145.775 144.058L146.675 139.307Z" fill="url(#paint21_linear)"/>
<path d="M145.785 144.047L146.686 139.325C142.056 137.362 137.328 135.636 132.522 134.154C132.006 135.417 131.294 136.827 130.506 137.473C128.908 138.788 114.09 136.158 110.015 137.473C105.94 138.788 109.147 141.614 111.467 144.871C113.788 148.129 108.398 155.208 110.015 164.153L111.616 173.099L112.158 189.399H112.372L115.114 189.13L117.09 143.898L135.583 147.944L145.785 144.047Z" fill="url(#paint22_linear)"/>
<path d="M134.668 118.402C132.852 118.058 130.994 117.991 129.158 118.202C126.275 118.565 124.633 121.195 124.633 121.195C124.633 121.195 133.088 123.545 134.366 123.577C135.645 123.61 137.595 122.521 137.595 122.521L134.668 118.402Z" fill="url(#paint23_linear)"/>
<path d="M127.27 143.818H117.046V148.62H127.27V143.818Z" fill="url(#paint24_linear)"/>
<path d="M152.25 86.0052C152.25 86.0052 163.349 107.513 162.972 111.065C162.594 114.618 137.127 123.073 137.127 123.073C137.127 123.073 134.276 118.682 134.16 118.05C133.993 117.153 151.916 107.405 151.916 107.405C151.916 107.405 142.437 98.1068 141.768 93.2073C141.1 88.3079 145.618 84.8866 148.458 84.8866C151.299 84.8866 152.25 86.0052 152.25 86.0052Z" fill="url(#paint25_linear)"/>
<path d="M160.811 93.407V93.4797C160.721 99.0127 160.342 104.537 159.674 110.03C159.159 114.453 158.363 118.838 157.291 123.16C156.202 127.424 154.749 131.346 152.977 134.259C150.991 137.495 148.329 140.263 145.172 142.373C142.026 144.454 138.485 145.71 134.933 145.707C132.515 145.708 130.133 145.115 127.996 143.982C127.048 143.484 125.948 144.014 125.537 145.162C125.127 146.31 125.563 147.643 126.511 148.14C129.105 149.517 131.996 150.238 134.933 150.239C139.212 150.239 143.341 148.743 146.962 146.353C150.616 143.906 153.695 140.694 155.984 136.939C158.199 133.307 159.783 128.786 160.974 124.05C162.754 116.949 163.636 109.329 164.087 103.457C164.537 97.5838 164.552 93.4615 164.552 93.4107C164.552 92.1613 163.72 91.1407 162.688 91.1371C161.657 91.1335 160.818 92.1431 160.811 93.3925V93.407Z" fill="url(#paint26_linear)"/>
<path d="M130.284 79.2062L128.214 80.4629C128.214 80.4629 127.633 81.0985 129.525 82.8309C131.417 84.5633 133.883 84.3672 136.531 83.165C139.179 81.9629 140.962 79.2062 140.962 79.2062L139.31 78.7886L130.284 79.2062Z" fill="white"/>
<path d="M128.933 72.738L130.273 79.2064C130.273 79.2064 131.236 80.4304 133.949 80.4631C136.662 80.4957 139.299 78.7887 139.299 78.7887L139.379 72.2004L128.933 72.738Z" fill="url(#paint27_linear)"/>
<path d="M125.363 49.3521C125.363 49.3521 124.764 58.5989 124.636 61.8313C124.509 65.0637 128.526 65.8918 128.526 65.8918L134.388 59.7611L131.799 50.0966L125.363 49.3521Z" fill="url(#paint28_linear)"/>
<path d="M125.392 60.393C125.581 64.0249 125.843 68.4377 127.368 72.2839C128.893 76.1301 136.473 76.9691 138.99 73.9146C141.507 70.8602 142.411 65.9716 142.411 65.9716C142.411 65.9716 145.023 66.1532 145.698 64.2029C146.374 62.2525 146.221 59.3361 145.005 58.755C143.788 58.1739 142.626 59.5177 142.626 59.5177C142.626 59.5177 143.098 55.755 140.403 53.3907C137.708 51.0263 127.488 51.8253 126.921 52.3011C126.355 52.7769 125.203 56.7465 125.392 60.393Z" fill="url(#paint29_linear)"/>
<path d="M140.919 64.2865C140.919 64.2865 141.892 59.6086 141.54 57.4948C141.187 55.3811 140.018 53.9828 137.599 53.1365C135.18 52.2903 128.207 53.1147 126.67 52.6644C125.134 52.214 124.226 51.4695 124.767 48.3969C125.309 45.3243 129.739 41.0132 136.026 41.6597C142.313 42.3061 145.28 45.1354 147.34 47.0349C149.399 48.9344 148.124 54.1172 147.561 58.4718C146.998 62.8265 145.48 68.7502 144.187 70.8204C142.894 72.8906 140.054 72.4257 140.054 72.4257L142.371 65.565C142.371 65.565 143.414 66.0299 144.619 64.6098C145.825 63.1897 146.305 60.68 145.611 59.4706C144.917 58.2612 142.978 58.5445 142.342 60.1026C141.707 61.6607 140.919 64.2865 140.919 64.2865Z" fill="url(#paint30_linear)"/>
<path d="M163.124 123.984H143.824L149.221 98.136H168.521L163.124 123.984Z" fill="#223762"/>
<path d="M164.817 123.984H145.164L150.659 98.136H170.312L164.817 123.984Z" fill="url(#paint31_linear)"/>
<path d="M160.317 106.17L166.851 123.984H156.532L159.282 106.17H160.317Z" fill="#223762"/>
<path d="M159.281 106.17L165.815 123.984H155.497L159.281 106.17Z" fill="#4C93F4"/>
<path d="M125.817 122.15L135.144 123.959L130.909 123.984H125.817V122.15Z" fill="#3769A5"/>
<path d="M125.991 122.364L135.071 123.959V122.666L125.991 121.071V122.364Z" fill="#4C93F4"/>
<path d="M95.9298 121.071C95.3414 121.071 94.8656 121.725 94.8656 122.524C94.8656 123.323 95.3414 123.977 95.9298 123.977H126.027V121.071H95.9298Z" fill="#223762"/>
<path d="M24.4538 195.548H19.9175L37.6594 129.327H42.1993L24.4538 195.548Z" fill="url(#paint32_linear)"/>
<path d="M31.013 143.826C32.4658 154.158 30.599 163.801 26.5276 170.397C20.7965 165.17 16.3582 156.417 14.9055 146.085C13.4527 135.752 15.3195 126.109 19.3909 119.513C25.1184 124.732 29.5639 133.482 31.013 143.826Z" fill="url(#paint33_linear)"/>
<path d="M17.96 142.166C19.6274 146.854 21.0065 151.64 22.0895 156.497C24.0144 164.952 23.5422 175.02 23.5422 175.02" stroke="#112244" stroke-linecap="round" stroke-linejoin="round"/>
<path d="M28.5505 139.409C28.5505 139.409 27.3955 149.11 25.9718 156.588C24.5481 164.066 23.582 173.945 23.582 173.945" stroke="#112244" stroke-linecap="round" stroke-linejoin="round"/>
<path d="M30.8713 155.698C30.8713 155.698 28.5577 162.018 26.8762 166.111C25.1946 170.204 23.6074 174.417 23.6074 174.417" stroke="#112244" stroke-linecap="round" stroke-linejoin="round"/>
<path d="M21.7917 102.058C22.7432 109.013 21.4648 115.496 18.7082 119.927C14.862 116.397 11.8947 110.484 10.9431 103.54C9.99155 96.5958 11.27 90.102 14.0266 85.671C17.8547 89.2049 20.8256 95.1031 21.7917 102.058Z" fill="url(#paint34_linear)"/>
<path d="M29.3422 118.097C28.979 110.001 28.4379 95.3938 28.1292 86.8624C33.7441 93.8139 37.347 104.466 37.347 116.426C37.347 128.248 33.824 138.788 28.3216 145.743C28.9354 137.593 29.6727 125.466 29.3422 118.097Z" fill="url(#paint35_linear)"/>
<path d="M18.4355 116.441C18.4355 104.31 22.1365 93.516 27.8785 86.5718C27.9584 86.6698 28.0383 86.7752 28.1182 86.8769C28.427 95.3937 28.9681 110.001 29.3313 118.111C29.6618 125.481 28.9245 137.608 28.3107 145.772C28.1655 145.954 28.0275 146.135 27.8785 146.324C22.1546 139.365 18.4355 128.571 18.4355 116.441Z" fill="url(#paint36_linear)"/>
<path d="M17.5821 129.469C20.7165 136.369 21.3956 143.495 19.9065 148.939C14.8218 146.466 9.93328 141.272 6.79893 134.354C3.66459 127.435 2.98542 120.327 4.4745 114.883C9.5483 117.356 14.4478 122.553 17.5821 129.469Z" fill="url(#paint37_linear)"/>
<path d="M13.1149 195.526H33.9367L37.0275 168.537H10.0242L13.1149 195.526Z" fill="url(#paint38_linear)"/>
<path d="M37.0275 168.537L33.9367 195.526H25.9719L28.2782 168.537H37.0275Z" fill="url(#paint39_linear)"/>
<path d="M8.97075 174.417H38.0842V167.767H8.97075V174.417Z" fill="#FFD46A"/>
<path d="M184.155 71.6383L184.067 71.1523C184.019 70.8878 183.766 70.7121 183.502 70.7599L156.367 75.6617C156.103 75.7095 155.927 75.9626 155.975 76.2271L156.063 76.7132C156.111 76.9777 156.364 77.1534 156.628 77.1056L183.763 72.2038C184.027 72.156 184.203 71.9028 184.155 71.6383Z" fill="#223762"/>
<path d="M27.4791 121.921C28.0709 121.921 28.5505 121.064 28.5505 120.007C28.5505 118.95 28.0709 118.093 27.4791 118.093C26.8874 118.093 26.4077 118.95 26.4077 120.007C26.4077 121.064 26.8874 121.921 27.4791 121.921Z" fill="url(#paint40_linear)"/>
<path d="M26.3539 123.475C26.7723 123.056 26.5055 122.111 25.758 121.364C25.0106 120.616 24.0654 120.35 23.647 120.768C23.2286 121.186 23.4953 122.132 24.2428 122.879C24.9903 123.627 25.9354 123.893 26.3539 123.475Z" fill="url(#paint41_linear)"/>
<path opacity="0.48" d="M151.571 90.4234C152.817 88.468 152.242 85.8726 150.287 84.6263C148.331 83.3801 145.736 83.955 144.49 85.9105C143.243 87.8659 143.818 90.4613 145.774 91.7075C147.729 92.9537 150.325 92.3788 151.571 90.4234Z" fill="#EF8C48"/>
<path d="M27.2056 134.134C27.78 133.559 27.4144 132.262 26.3889 131.237C25.3634 130.211 24.0665 129.846 23.492 130.42C22.9176 130.995 23.2832 132.292 24.3087 133.317C25.3342 134.342 26.6312 134.708 27.2056 134.134Z" fill="url(#paint42_linear)"/>
<path d="M27.0576 139.898C27.794 139.555 27.8947 138.212 27.2825 136.897C26.6703 135.582 25.577 134.794 24.8405 135.137C24.1041 135.48 24.0034 136.824 24.6156 138.139C25.2278 139.453 26.3211 140.241 27.0576 139.898Z" fill="url(#paint43_linear)"/>
<path d="M183.626 68.7289L183.539 68.2428C183.491 67.9783 183.238 67.8027 182.973 67.8504L155.839 72.7522C155.574 72.7999 155.399 73.0531 155.446 73.3176L155.534 73.8037C155.582 74.0682 155.835 74.2439 156.1 74.1961L183.234 69.2943C183.499 69.2466 183.674 68.9934 183.626 68.7289Z" fill="#223762"/>
<path d="M169.944 125.662L170.43 125.753C170.694 125.803 170.948 125.629 170.998 125.365L181.455 69.8095C181.505 69.5453 181.331 69.2909 181.067 69.2412L180.581 69.1498C180.317 69.1001 180.063 69.2739 180.013 69.5381L169.556 125.093C169.506 125.357 169.68 125.612 169.944 125.662Z" fill="#223762"/>
<path d="M159.635 72.5365L157.271 71.0296C156.768 70.7094 156.102 70.8571 155.781 71.3595L146.17 86.4407C145.85 86.9431 145.998 87.6099 146.5 87.9301L148.864 89.437C149.367 89.7572 150.034 89.6094 150.354 89.1071L159.965 74.0259C160.285 73.5235 160.138 72.8567 159.635 72.5365Z" fill="url(#paint44_linear)"/>
<path d="M150.551 89.7734C151.438 88.3813 151.029 86.5335 149.637 85.6463C148.245 84.7591 146.397 85.1684 145.51 86.5605C144.622 87.9526 145.032 89.8004 146.424 90.6876C147.816 91.5749 149.664 91.1656 150.551 89.7734Z" fill="url(#paint45_linear)"/>
<path d="M153.95 78.8613C149.817 76.2282 143.483 78.7705 139.803 84.5453L154.774 94.0682C158.453 88.3116 158.083 81.4981 153.95 78.8613Z" fill="url(#paint46_linear)"/>
<path d="M139.8 84.5452L143.824 87.1093C146.515 82.889 150.02 79.8455 153.3 78.5053C149.174 76.4968 143.294 79.0646 139.8 84.5452Z" fill="#223762"/>
<path d="M172.852 126.208L173.337 126.3C173.601 126.35 173.856 126.176 173.906 125.912L184.363 70.3564C184.412 70.0922 184.239 69.8378 183.974 69.788L183.489 69.6967C183.225 69.647 182.97 69.8208 182.921 70.0849L172.464 125.64C172.414 125.904 172.588 126.159 172.852 126.208Z" fill="#223762"/>
<path d="M181.098 73.8966C183.076 73.8966 184.679 72.2933 184.679 70.3156C184.679 68.3378 183.076 66.7345 181.098 66.7345C179.121 66.7345 177.517 68.3378 177.517 70.3156C177.517 72.2933 179.121 73.8966 181.098 73.8966Z" fill="#223762"/>
<path d="M181.767 73.8966C183.745 73.8966 185.348 72.2933 185.348 70.3156C185.348 68.3378 183.745 66.7345 181.767 66.7345C179.789 66.7345 178.186 68.3378 178.186 70.3156C178.186 72.2933 179.789 73.8966 181.767 73.8966Z" fill="#4C93F4"/>
<path d="M181.767 72.1095C182.758 72.1095 183.561 71.3062 183.561 70.3153C183.561 69.3244 182.758 68.5211 181.767 68.5211C180.776 68.5211 179.973 69.3244 179.973 70.3153C179.973 71.3062 180.776 72.1095 181.767 72.1095Z" fill="#223762"/>
<path d="M19.9138 129.327L192.946 129.327V123.988L19.9138 123.988V129.327Z" fill="url(#paint47_linear)"/>
<path d="M161.108 129.327H192.946V123.988H161.108V129.327Z" fill="#3769A5"/>
<path d="M19.9138 129.327L192.946 129.327V127.591L19.9138 127.591V129.327Z" fill="#83A4D6"/>
<path d="M161.257 129.327H192.946V127.591H161.257V129.327Z" fill="#223762"/>
<path d="M165.837 195.548H170.377L152.631 129.327H148.091L165.837 195.548Z" fill="url(#paint48_linear)"/>
<path d="M130.212 195.548H125.672L143.417 129.327H147.957L130.212 195.548Z" fill="url(#paint49_linear)"/>
<path d="M104.799 123.984H79.5065V122.67H103.924C104.155 122.67 104.377 122.761 104.54 122.925C104.704 123.088 104.796 123.31 104.796 123.541V123.981L104.799 123.984Z" fill="#3769A5"/>
<path d="M61.7427 114.222H120.754C121.02 114.226 121.284 114.174 121.528 114.069C121.773 113.964 121.992 113.808 122.171 113.611C122.351 113.415 122.486 113.182 122.569 112.929C122.651 112.676 122.679 112.409 122.65 112.144L119.334 74.2598C119.276 73.6972 119.015 73.1753 118.599 72.7925C118.182 72.4097 117.64 72.1927 117.075 72.1823H58.0708C57.8048 72.1776 57.5408 72.2296 57.2964 72.3349C57.0521 72.4402 56.833 72.5963 56.6536 72.7928C56.4743 72.9893 56.3388 73.2218 56.2563 73.4747C56.1737 73.7277 56.146 73.9953 56.1749 74.2598L59.4909 112.144C59.5483 112.706 59.8089 113.227 60.2236 113.609C60.6383 113.992 61.1785 114.21 61.7427 114.222Z" fill="#223762"/>
<path d="M60.1228 114.222H119.127C119.393 114.226 119.657 114.174 119.901 114.069C120.146 113.964 120.365 113.808 120.544 113.611C120.723 113.415 120.859 113.182 120.941 112.929C121.024 112.676 121.052 112.409 121.023 112.144L117.707 74.2598C117.649 73.6972 117.388 73.1753 116.971 72.7925C116.555 72.4097 116.013 72.1927 115.448 72.1823H56.4472C56.1812 72.1776 55.9173 72.2296 55.6729 72.3349C55.4286 72.4402 55.2094 72.5963 55.0301 72.7928C54.8507 72.9893 54.7153 73.2218 54.6327 73.4747C54.5502 73.7277 54.5225 73.9953 54.5514 74.2598L57.8673 112.144C57.9249 112.706 58.186 113.228 58.6014 113.61C59.0169 113.993 59.558 114.211 60.1228 114.222Z" fill="url(#paint50_linear)"/>
<path d="M61.9059 123.984C61.8166 123.985 61.729 123.96 61.6524 123.915C61.5758 123.869 61.5132 123.803 61.4713 123.724C61.4294 123.645 61.4099 123.556 61.4148 123.467C61.4197 123.378 61.4489 123.292 61.4991 123.218C62.1861 122.258 63.0923 121.475 64.1424 120.935C65.1926 120.395 66.3564 120.113 67.5372 120.113C68.718 120.113 69.8819 120.395 70.932 120.935C71.9821 121.475 72.8883 122.258 73.5753 123.218C73.6255 123.292 73.6547 123.378 73.6596 123.467C73.6645 123.556 73.645 123.645 73.6031 123.724C73.5613 123.803 73.4987 123.869 73.4221 123.915C73.3455 123.96 73.2578 123.985 73.1685 123.984H61.9059Z" fill="#4C93F4"/>
<path d="M68.4219 122.837C67.9617 121.857 67.3488 120.958 66.606 120.171C66.912 120.133 67.2201 120.113 67.5285 120.113C68.7098 120.112 69.8743 120.393 70.9249 120.933C71.9756 121.473 72.8819 122.257 73.5684 123.218C73.6186 123.292 73.6478 123.378 73.6527 123.467C73.6576 123.556 73.6381 123.645 73.5962 123.724C73.5543 123.803 73.4917 123.869 73.4151 123.915C73.3385 123.961 73.2509 123.985 73.1616 123.984H68.0042C68.411 123.984 68.6435 123.316 68.4219 122.837Z" fill="#223762"/>
<path d="M43.5649 143.157C40.2417 151.54 34.7285 157.99 28.8484 161.208C36.9875 152.012 45.192 119.931 45.192 119.931C47.284 126.305 46.8881 134.775 43.5649 143.157Z" fill="url(#paint51_linear)"/>
<path d="M30.508 137.978C33.8312 129.596 39.3445 123.153 45.2246 119.931C45.2246 119.931 37.0055 152.012 28.8809 161.208C26.7744 154.834 27.1703 146.368 30.508 137.978Z" fill="url(#paint52_linear)"/>
<path d="M30.508 137.978C33.8312 129.596 39.3445 123.153 45.2246 119.931C45.2246 119.931 37.0055 152.012 28.8809 161.208C26.7744 154.834 27.1703 146.368 30.508 137.978Z" fill="url(#paint53_linear)"/>
<path d="M36.9567 144.411C37.2713 143.66 37.1845 142.908 36.7627 142.731C36.3408 142.554 35.7438 143.02 35.4291 143.771C35.1145 144.522 35.2013 145.274 35.6231 145.451C36.045 145.628 36.642 145.162 36.9567 144.411Z" fill="url(#paint54_linear)"/>
<path d="M31.6277 145.269C31.9424 144.518 31.8555 143.766 31.4337 143.589C31.0119 143.412 30.4149 143.878 30.1002 144.629C29.7856 145.38 29.8725 146.133 30.2943 146.309C30.7161 146.486 31.3131 146.02 31.6277 145.269Z" fill="url(#paint55_linear)"/>
<path d="M34.36 146.221C34.7832 146.048 34.8761 145.296 34.5675 144.543C34.2589 143.789 33.6656 143.319 33.2424 143.492C32.8192 143.665 32.7263 144.417 33.0349 145.17C33.3435 145.924 33.9368 146.395 34.36 146.221Z" fill="url(#paint56_linear)"/>
<path d="M33.9259 149.072C34.3491 148.899 34.442 148.147 34.1334 147.394C33.8248 146.64 33.2315 146.169 32.8083 146.343C32.3851 146.516 32.2922 147.268 32.6008 148.021C32.9094 148.775 33.5027 149.245 33.9259 149.072Z" fill="url(#paint57_linear)"/>
<path d="M31.7886 154.059C32.3696 153.821 32.4974 152.79 32.074 151.756C31.6506 150.722 30.8364 150.077 30.2554 150.315C29.6744 150.553 29.5466 151.584 29.97 152.618C30.3934 153.652 31.2076 154.297 31.7886 154.059Z" fill="url(#paint58_linear)"/>
<path d="M29.9645 158.117C30.5918 158.093 31.065 157.168 31.0213 156.051C30.9777 154.935 30.4337 154.05 29.8063 154.074C29.179 154.099 28.7058 155.024 28.7495 156.14C28.7932 157.257 29.3371 158.142 29.9645 158.117Z" fill="url(#paint59_linear)"/>
<path d="M0 199.485H207.165L192.946 195.548H13.1149L0 199.485Z" fill="url(#paint60_linear)"/>
<path d="M86.0692 123.984H71.4253L82.5063 90.814H92.7628L86.0692 123.984Z" fill="#3769A5"/>
<path d="M84.9178 123.984H70.2739L81.3549 90.814H91.6115L84.9178 123.984Z" fill="#223762"/>
<path d="M86.9155 82.0608C86.8196 81.7218 86.7731 81.3708 86.7775 81.0185C86.4097 80.9661 86.0346 81.0086 85.6879 81.142C84.3295 81.6722 83.6177 83.4264 84.0971 85.0608C84.5765 86.6952 86.0656 87.6032 87.4276 87.0547C88.4954 86.6371 89.1564 85.4603 89.1564 84.1819C88.618 84.0823 88.1199 83.8291 87.7223 83.4527C87.3247 83.0763 87.0445 82.5929 86.9155 82.0608Z" fill="#D6E3FA"/>
<path d="M128.803 61.7115C128.803 61.7115 127.982 66.364 128.131 67.5226C128.28 68.6812 131.279 67.835 131.279 67.835" stroke="#EB6057" stroke-linecap="round" stroke-linejoin="round"/>
<path d="M140.966 49.0723C137.697 47.8047 127.815 50.743 126.413 49.3701C125.977 48.9452 125.639 47.9464 125.381 46.7697C125.09 47.2817 124.883 47.8372 124.767 48.4149C124.226 51.4875 125.131 52.2321 126.67 52.6824C128.21 53.1328 135.169 52.3192 137.588 53.1655C140.007 54.0117 141.176 55.4136 141.529 57.5238C141.881 59.6339 140.908 64.3155 140.908 64.3155C140.908 64.3155 144.238 50.3398 140.966 49.0723Z" fill="url(#paint61_linear)"/>
<path d="M126.039 123.984C126.626 123.984 127.103 123.332 127.103 122.528C127.103 121.723 126.626 121.071 126.039 121.071C125.451 121.071 124.974 121.723 124.974 122.528C124.974 123.332 125.451 123.984 126.039 123.984Z" fill="#4C93F4"/>
<path d="M142.883 61.439C142.883 61.439 143.766 60.8433 144.06 61.6424C144.354 62.4414 144.325 63.2041 143.316 63.6944C143.153 63.764 142.971 63.7721 142.804 63.7173C142.636 63.6625 142.494 63.5485 142.404 63.3966" stroke="#EB6057" stroke-linecap="round" stroke-linejoin="round"/>
<defs>
<linearGradient id="paint0_linear" x1="218.053" y1="132.712" x2="183.114" y2="175.285" gradientUnits="userSpaceOnUse">
<stop stop-color="#EAF1FC"/>
<stop offset="1" stop-color="#C0D4F4"/>
</linearGradient>
<linearGradient id="paint1_linear" x1="123408" y1="43822.3" x2="-22963.8" y2="105315" gradientUnits="userSpaceOnUse">
<stop stop-color="#EAF1FC"/>
<stop offset="1" stop-color="#C0D4F4"/>
</linearGradient>
<linearGradient id="paint2_linear" x1="116.839" y1="195.555" x2="123.249" y2="197.781" gradientUnits="userSpaceOnUse">
<stop stop-color="#223762"/>
<stop offset="1" stop-color="#041B48"/>
</linearGradient>
<linearGradient id="paint3_linear" x1="34988.4" y1="2155.26" x2="34926.2" y2="2342.24" gradientUnits="userSpaceOnUse">
<stop stop-color="#223762"/>
<stop offset="1" stop-color="#041B48"/>
</linearGradient>
<linearGradient id="paint4_linear" x1="1646.46" y1="22079.1" x2="1972.82" y2="22047.7" gradientUnits="userSpaceOnUse">
<stop stop-color="#223762"/>
<stop offset="1" stop-color="#041B48"/>
</linearGradient>
<linearGradient id="paint5_linear" x1="3094.09" y1="3698.21" x2="3208.54" y2="3588.59" gradientUnits="userSpaceOnUse">
<stop stop-color="#223762"/>
<stop offset="1" stop-color="#041B48"/>
</linearGradient>
<linearGradient id="paint6_linear" x1="76.2487" y1="176.378" x2="76.2487" y2="116.47" gradientUnits="userSpaceOnUse">
<stop stop-color="#3769A5"/>
<stop offset="1" stop-color="#08448B"/>
</linearGradient>
<linearGradient id="paint7_linear" x1="-22644.9" y1="32288.1" x2="-22644.9" y2="21365" gradientUnits="userSpaceOnUse">
<stop stop-color="#3769A5"/>
<stop offset="1" stop-color="#08448B"/>
</linearGradient>
<linearGradient id="paint8_linear" x1="-30337" y1="26727.6" x2="-30337" y2="23392" gradientUnits="userSpaceOnUse">
<stop stop-color="#3769A5"/>
<stop offset="1" stop-color="#08448B"/>
</linearGradient>
<linearGradient id="paint9_linear" x1="-28984" y1="26727.6" x2="-28984" y2="23392" gradientUnits="userSpaceOnUse">
<stop stop-color="#3769A5"/>
<stop offset="1" stop-color="#08448B"/>
</linearGradient>
<linearGradient id="paint10_linear" x1="53.4765" y1="172.997" x2="53.4765" y2="128.659" gradientUnits="userSpaceOnUse">
<stop stop-color="#A7BDE5"/>
<stop offset="1" stop-color="#2F66CB"/>
</linearGradient>
<linearGradient id="paint11_linear" x1="7244.71" y1="6692.66" x2="7217.67" y2="6491.37" gradientUnits="userSpaceOnUse">
<stop stop-color="#223762"/>
<stop offset="1" stop-color="#041B48"/>
</linearGradient>
<linearGradient id="paint12_linear" x1="4873.65" y1="6692.66" x2="4846.69" y2="6491.41" gradientUnits="userSpaceOnUse">
<stop stop-color="#223762"/>
<stop offset="1" stop-color="#041B48"/>
</linearGradient>
<linearGradient id="paint13_linear" x1="2702.99" y1="2090.82" x2="2697.32" y2="2046.37" gradientUnits="userSpaceOnUse">
<stop stop-color="#223762"/>
<stop offset="1" stop-color="#041B48"/>
</linearGradient>
<linearGradient id="paint14_linear" x1="29413.9" y1="24825.5" x2="29293.8" y2="24251.9" gradientUnits="userSpaceOnUse">
<stop stop-color="#223762"/>
<stop offset="1" stop-color="#041B48"/>
</linearGradient>
<linearGradient id="paint15_linear" x1="96.4277" y1="117.959" x2="107.465" y2="108.345" gradientUnits="userSpaceOnUse">
<stop stop-color="#FFC063"/>
<stop offset="0.95" stop-color="#E44D0B"/>
</linearGradient>
<linearGradient id="paint16_linear" x1="6429.71" y1="27736.2" x2="9781.24" y2="25901.8" gradientUnits="userSpaceOnUse">
<stop stop-color="#3769A5"/>
<stop offset="1" stop-color="#08448B"/>
</linearGradient>
<linearGradient id="paint17_linear" x1="5818.5" y1="27602.3" x2="8869.53" y2="26119.9" gradientUnits="userSpaceOnUse">
<stop stop-color="#223762"/>
<stop offset="1" stop-color="#041B48"/>
</linearGradient>
<linearGradient id="paint18_linear" x1="143.472" y1="79.428" x2="110.062" y2="183.05" gradientUnits="userSpaceOnUse">
<stop stop-color="#FFC063"/>
<stop offset="1" stop-color="#E58F0F"/>
</linearGradient>
<linearGradient id="paint19_linear" x1="17183.7" y1="13166.8" x2="10173" y2="28886.7" gradientUnits="userSpaceOnUse">
<stop stop-color="#FFC063"/>
<stop offset="0.95" stop-color="#E44D0B"/>
</linearGradient>
<linearGradient id="paint20_linear" x1="13224.4" y1="14546.1" x2="18420.9" y2="14546.1" gradientUnits="userSpaceOnUse">
<stop stop-color="#FFC063"/>
<stop offset="0.95" stop-color="#E44D0B"/>
</linearGradient>
<linearGradient id="paint21_linear" x1="95.0911" y1="173.164" x2="121.593" y2="149.52" gradientUnits="userSpaceOnUse">
<stop stop-color="#4C93F4"/>
<stop offset="1" stop-color="#0B63DA"/>
</linearGradient>
<linearGradient id="paint22_linear" x1="15849.8" y1="26901.5" x2="15717.2" y2="26843.5" gradientUnits="userSpaceOnUse">
<stop stop-color="#3769A5"/>
<stop offset="1" stop-color="#08448B"/>
</linearGradient>
<linearGradient id="paint23_linear" x1="126.914" y1="122.749" x2="140.294" y2="117.806" gradientUnits="userSpaceOnUse">
<stop stop-color="#F8A695"/>
<stop offset="1" stop-color="#E56045"/>
</linearGradient>
<linearGradient id="paint24_linear" x1="3621.99" y1="2186.24" x2="3615.62" y2="2138.47" gradientUnits="userSpaceOnUse">
<stop stop-color="#223762"/>
<stop offset="1" stop-color="#041B48"/>
</linearGradient>
<linearGradient id="paint25_linear" x1="10885.3" y1="10055.6" x2="14749" y2="13126.9" gradientUnits="userSpaceOnUse">
<stop stop-color="#FFC063"/>
<stop offset="0.95" stop-color="#E44D0B"/>
</linearGradient>
<linearGradient id="paint26_linear" x1="12828.9" y1="28930.7" x2="13452.9" y2="28278.8" gradientUnits="userSpaceOnUse">
<stop stop-color="#3769A5"/>
<stop offset="1" stop-color="#08448B"/>
</linearGradient>
<linearGradient id="paint27_linear" x1="3902.55" y1="1963.27" x2="3900.03" y2="1846.87" gradientUnits="userSpaceOnUse">
<stop stop-color="#F8A695"/>
<stop offset="1" stop-color="#E56045"/>
</linearGradient>
<linearGradient id="paint28_linear" x1="3521.58" y1="2846.14" x2="3470.6" y2="2927.01" gradientUnits="userSpaceOnUse">
<stop stop-color="#223762"/>
<stop offset="1" stop-color="#041B48"/>
</linearGradient>
<linearGradient id="paint29_linear" x1="7534.53" y1="5089.4" x2="7976.03" y2="3620.71" gradientUnits="userSpaceOnUse">
<stop stop-color="#F8A695"/>
<stop offset="1" stop-color="#E56045"/>
</linearGradient>
<linearGradient id="paint30_linear" x1="8698.35" y1="5081.34" x2="9041.99" y2="6972.71" gradientUnits="userSpaceOnUse">
<stop stop-color="#223762"/>
<stop offset="1" stop-color="#041B48"/>
</linearGradient>
<linearGradient id="paint31_linear" x1="8811.34" y1="6837.84" x2="7301.69" y2="8666.15" gradientUnits="userSpaceOnUse">
<stop stop-color="#4C93F4"/>
<stop offset="1" stop-color="#0B63DA"/>
</linearGradient>
<linearGradient id="paint32_linear" x1="-21270.6" y1="31671.6" x2="-21270.6" y2="23587.4" gradientUnits="userSpaceOnUse">
<stop stop-color="#A7BDE5"/>
<stop offset="1" stop-color="#2F66CB"/>
</linearGradient>
<linearGradient id="paint33_linear" x1="16016.3" y1="20426.5" x2="15212.4" y2="20426.5" gradientUnits="userSpaceOnUse">
<stop stop-color="#223762"/>
<stop offset="1" stop-color="#041B48"/>
</linearGradient>
<linearGradient id="paint34_linear" x1="9927.44" y1="8283.54" x2="11527.6" y2="9385.5" gradientUnits="userSpaceOnUse">
<stop stop-color="#223762"/>
<stop offset="1" stop-color="#041B48"/>
</linearGradient>
<linearGradient id="paint35_linear" x1="-8939.33" y1="18944" x2="-8705.29" y2="18944" gradientUnits="userSpaceOnUse">
<stop stop-color="#3769A5"/>
<stop offset="1" stop-color="#08448B"/>
</linearGradient>
<linearGradient id="paint36_linear" x1="9806.7" y1="14532.3" x2="16286.5" y2="19936.4" gradientUnits="userSpaceOnUse">
<stop stop-color="#4C93F4"/>
<stop offset="1" stop-color="#0B63DA"/>
</linearGradient>
<linearGradient id="paint37_linear" x1="-14777" y1="10651.3" x2="-16843.9" y2="12424.3" gradientUnits="userSpaceOnUse">
<stop stop-color="#3769A5"/>
<stop offset="1" stop-color="#08448B"/>
</linearGradient>
<linearGradient id="paint38_linear" x1="-0.177898" y1="170.767" x2="36.1377" y2="186.965" gradientUnits="userSpaceOnUse">
<stop stop-color="#FF9F5B"/>
<stop offset="1" stop-color="#E5670E"/>
</linearGradient>
<linearGradient id="paint39_linear" x1="-9667.33" y1="13695.1" x2="-9846.1" y2="13695.1" gradientUnits="userSpaceOnUse">
<stop stop-color="#FF9F5B"/>
<stop offset="1" stop-color="#E5670E"/>
</linearGradient>
<linearGradient id="paint40_linear" x1="1658.47" y1="1262.22" x2="1680.85" y2="1295.36" gradientUnits="userSpaceOnUse">
<stop stop-color="#4C93F4"/>
<stop offset="1" stop-color="#0B63DA"/>
</linearGradient>
<linearGradient id="paint41_linear" x1="1054.76" y1="1328.6" x2="1094.02" y2="1336.2" gradientUnits="userSpaceOnUse">
<stop stop-color="#4C93F4"/>
<stop offset="1" stop-color="#0B63DA"/>
</linearGradient>
<linearGradient id="paint42_linear" x1="1443.17" y1="1875.68" x2="1496.99" y2="1886.16" gradientUnits="userSpaceOnUse">
<stop stop-color="#4C93F4"/>
<stop offset="1" stop-color="#0B63DA"/>
</linearGradient>
<linearGradient id="paint43_linear" x1="1888.15" y1="2000.24" x2="1935.13" y2="2028.52" gradientUnits="userSpaceOnUse">
<stop stop-color="#4C93F4"/>
<stop offset="1" stop-color="#0B63DA"/>
</linearGradient>
<linearGradient id="paint44_linear" x1="5824.53" y1="5113.25" x2="6077.66" y2="5033.57" gradientUnits="userSpaceOnUse">
<stop stop-color="#4C93F4"/>
<stop offset="1" stop-color="#0B63DA"/>
</linearGradient>
<linearGradient id="paint45_linear" x1="2526.35" y1="1599.69" x2="2551.47" y2="1566.64" gradientUnits="userSpaceOnUse">
<stop stop-color="#FFC063"/>
<stop offset="0.95" stop-color="#E44D0B"/>
</linearGradient>
<linearGradient id="paint46_linear" x1="21744.4" y1="4219.12" x2="22090.1" y2="3751.89" gradientUnits="userSpaceOnUse">
<stop stop-color="#4C93F4"/>
<stop offset="1" stop-color="#0B63DA"/>
</linearGradient>
<linearGradient id="paint47_linear" x1="180500" y1="1949.95" x2="200502" y2="38869.8" gradientUnits="userSpaceOnUse">
<stop stop-color="#A7BDE5"/>
<stop offset="1" stop-color="#2F66CB"/>
</linearGradient>
<linearGradient id="paint48_linear" x1="-29010.9" y1="29600.2" x2="-29010.9" y2="21104.1" gradientUnits="userSpaceOnUse">
<stop stop-color="#A7BDE5"/>
<stop offset="1" stop-color="#2F66CB"/>
</linearGradient>
<linearGradient id="paint49_linear" x1="-27657.6" y1="29600.2" x2="-27657.6" y2="21104.1" gradientUnits="userSpaceOnUse">
<stop stop-color="#A7BDE5"/>
<stop offset="1" stop-color="#2F66CB"/>
</linearGradient>
<linearGradient id="paint50_linear" x1="18625.5" y1="8107.3" x2="15473.1" y2="16796.7" gradientUnits="userSpaceOnUse">
<stop stop-color="#4C93F4"/>
<stop offset="1" stop-color="#0B63DA"/>
</linearGradient>
<linearGradient id="paint51_linear" x1="-17513.1" y1="13508.1" x2="-15456.4" y2="16869.7" gradientUnits="userSpaceOnUse">
<stop stop-color="#3769A5"/>
<stop offset="1" stop-color="#08448B"/>
</linearGradient>
<linearGradient id="paint52_linear" x1="16992.5" y1="13375.6" x2="14936" y2="16737.8" gradientUnits="userSpaceOnUse">
<stop stop-color="#4C93F4"/>
<stop offset="1" stop-color="#0B63DA"/>
</linearGradient>
<linearGradient id="paint53_linear" x1="17060.4" y1="12767.6" x2="14112.7" y2="17586.7" gradientUnits="userSpaceOnUse">
<stop stop-color="#4C93F4"/>
<stop offset="1" stop-color="#0B63DA"/>
</linearGradient>
<linearGradient id="paint54_linear" x1="3151.35" y1="1641.4" x2="3148.4" y2="1656.87" gradientUnits="userSpaceOnUse">
<stop stop-color="#4C93F4"/>
<stop offset="1" stop-color="#0B63DA"/>
</linearGradient>
<linearGradient id="paint55_linear" x1="3116.5" y1="1641.97" x2="3113.57" y2="1657.46" gradientUnits="userSpaceOnUse">
<stop stop-color="#4C93F4"/>
<stop offset="1" stop-color="#0B63DA"/>
</linearGradient>
<linearGradient id="paint56_linear" x1="1093.97" y1="1343.05" x2="1113.74" y2="1356.3" gradientUnits="userSpaceOnUse">
<stop stop-color="#4C93F4"/>
<stop offset="1" stop-color="#0B63DA"/>
</linearGradient>
<linearGradient id="paint57_linear" x1="1096.83" y1="1366.7" x2="1116.58" y2="1379.92" gradientUnits="userSpaceOnUse">
<stop stop-color="#4C93F4"/>
<stop offset="1" stop-color="#0B63DA"/>
</linearGradient>
<linearGradient id="paint58_linear" x1="1542.19" y1="1827.8" x2="1569.31" y2="1845.99" gradientUnits="userSpaceOnUse">
<stop stop-color="#4C93F4"/>
<stop offset="1" stop-color="#0B63DA"/>
</linearGradient>
<linearGradient id="paint59_linear" x1="1705.31" y1="1748.47" x2="1724.56" y2="1774.85" gradientUnits="userSpaceOnUse">
<stop stop-color="#4C93F4"/>
<stop offset="1" stop-color="#0B63DA"/>
</linearGradient>
<linearGradient id="paint60_linear" x1="298084" y1="2336.61" x2="179917" y2="2336.61" gradientUnits="userSpaceOnUse">
<stop stop-color="#223762"/>
<stop offset="1" stop-color="#041B48"/>
</linearGradient>
<linearGradient id="paint61_linear" x1="7101.72" y1="2880.24" x2="6701.18" y2="2521.96" gradientUnits="userSpaceOnUse">
<stop stop-color="#223762"/>
<stop offset="1" stop-color="#041B48"/>
</linearGradient>
</defs>
</svg>
